{"glyphs":{"0":{"ha":736,"x_min":60,"x_max":676,"o":"m 138 828 q 177 890 138 828 q 368 951 217 951 q 598 828 519 951 q 676 468 676 706 q 599 107 676 229 q 368 -15 521 -15 q 138 107 215 -15 q 60 468 60 229 q 138 828 60 706 m 368 901 q 113 468 113 901 q 368 33 113 33 q 622 468 622 33 q 368 901 622 901 z "},"1":{"ha":736,"x_min":158,"x_max":413,"o":"m 413 0 l 360 0 l 360 801 l 358 801 q 158 735 304 735 l 158 781 q 308 816 260 781 q 368 936 356 851 l 413 936 l 413 0 z "},"2":{"ha":736,"x_min":68,"x_max":661,"o":"m 368 951 q 565 881 489 951 q 640 700 640 811 q 627 615 640 653 q 595 548 614 576 q 538 488 576 519 q 465 435 499 457 q 371 379 431 414 q 169 221 218 292 q 119 49 119 150 l 661 49 l 661 0 l 69 0 q 68 24 68 11 q 122 240 68 156 q 344 422 176 324 q 453 487 418 464 q 524 544 488 510 q 574 614 561 578 q 586 700 586 650 q 526 845 586 789 q 368 901 467 901 q 202 843 261 901 q 135 679 143 785 l 82 679 q 165 878 89 806 q 368 951 242 951 z "},"3":{"ha":736,"x_min":67,"x_max":658,"o":"m 351 951 q 561 883 482 951 q 640 706 640 815 q 467 479 640 532 l 467 478 q 658 240 658 425 q 573 57 658 129 q 356 -15 488 -15 q 143 59 219 -15 q 67 258 67 133 l 119 258 q 181 93 119 153 q 356 33 243 33 q 534 92 464 33 q 604 242 604 150 q 535 398 604 343 q 344 453 467 453 l 290 453 l 290 501 l 344 501 q 522 556 458 501 q 586 703 586 610 q 522 848 586 793 q 350 903 457 903 q 185 845 244 903 q 125 681 125 788 l 72 681 q 148 880 72 808 q 351 951 224 951 z "},"4":{"ha":736,"x_min":29,"x_max":700,"o":"m 700 274 l 519 274 l 519 0 l 468 0 l 468 274 l 29 274 l 29 329 l 447 936 l 519 936 l 519 322 l 700 322 l 700 274 m 82 322 l 468 322 l 468 468 l 468 879 l 465 879 l 210 507 l 82 322 z "},"5":{"ha":736,"x_min":83,"x_max":654,"o":"m 613 888 l 185 888 l 147 494 l 149 494 q 364 604 215 604 q 576 522 497 604 q 654 300 654 440 q 572 71 654 157 q 353 -15 490 -15 q 156 53 229 -15 q 83 242 83 122 l 136 242 q 196 90 138 144 q 353 35 254 35 q 533 106 467 35 q 600 299 600 178 q 536 486 600 417 q 363 556 472 556 q 138 388 188 556 l 86 390 l 139 936 l 613 936 l 613 888 z "},"6":{"ha":736,"x_min":72,"x_max":668,"o":"m 390 951 q 569 889 501 951 q 653 714 638 826 l 599 714 q 390 901 565 901 q 192 783 263 901 q 122 424 121 664 l 125 424 q 219 556 153 506 q 379 607 286 607 q 588 522 508 607 q 668 300 668 438 q 588 72 668 158 q 376 -15 507 -15 q 72 425 72 -15 q 156 817 72 683 q 390 951 239 951 m 375 557 q 206 486 272 557 q 139 307 139 415 q 201 110 139 185 q 376 35 264 35 q 549 107 483 35 q 614 300 614 179 q 549 486 614 415 q 375 557 483 557 z "},"7":{"ha":736,"x_min":58,"x_max":663,"o":"m 663 936 l 663 886 q 289 0 396 493 l 232 0 q 606 888 350 506 l 58 888 l 58 936 l 663 936 z "},"8":{"ha":736,"x_min":68,"x_max":668,"o":"m 368 951 q 569 882 490 951 q 649 703 649 813 q 601 566 649 622 q 474 485 554 510 l 474 483 q 616 398 564 457 q 668 251 668 339 q 584 59 668 133 q 368 -15 500 -15 q 152 59 236 -15 q 68 251 68 133 q 120 398 68 339 q 261 483 172 457 l 261 485 q 135 566 182 510 q 88 703 88 622 q 166 882 88 813 q 368 951 244 951 m 531 847 q 500 874 531 847 q 368 901 468 901 q 205 847 268 901 q 142 703 142 792 q 203 561 142 615 q 368 507 265 507 q 533 561 471 507 q 594 703 594 615 q 531 847 594 792 m 544 400 q 510 429 544 400 q 368 458 475 458 q 191 400 261 458 q 121 253 121 342 q 190 95 121 156 q 368 35 260 35 q 545 95 476 35 q 614 253 614 156 q 544 400 614 342 z "},"9":{"ha":736,"x_min":68,"x_max":664,"o":"m 344 -15 q 167 47 235 -15 q 83 222 99 110 l 136 222 q 344 35 171 35 q 543 153 472 35 q 614 513 614 272 l 611 513 q 516 380 583 431 q 357 329 449 329 q 148 414 228 329 q 68 636 68 499 q 148 865 68 778 q 358 951 228 951 q 586 841 508 951 q 664 511 664 731 q 581 119 664 253 q 344 -15 497 -15 m 361 379 q 531 450 464 379 q 597 629 597 521 q 534 826 597 751 q 358 901 471 901 q 186 829 251 901 q 121 636 121 757 q 187 450 121 521 q 361 379 253 379 z "}," ":{"ha":319,"x_min":0,"x_max":0,"o":""},"!":{"ha":310,"x_min":122,"x_max":188,"o":"m 175 207 l 135 207 l 122 989 l 188 989 l 175 207 m 186 0 l 124 0 l 124 111 l 186 111 l 186 0 z "},"\"":{"ha":424,"x_min":106,"x_max":318,"o":"m 151 642 l 114 642 l 106 989 l 160 989 l 151 642 m 310 642 l 274 642 l 265 989 l 318 989 l 310 642 z "},"#":{"ha":871,"x_min":49,"x_max":822,"o":"m 628 608 l 583 332 l 772 332 l 764 290 l 576 290 l 531 0 l 485 0 l 531 290 l 283 290 l 238 0 l 193 0 l 239 290 l 49 290 l 56 332 l 246 332 l 290 608 l 99 608 l 106 650 l 296 650 l 342 936 l 386 936 l 340 650 l 588 650 l 633 936 l 679 936 l 633 650 l 822 650 l 814 608 l 628 608 m 582 608 l 335 608 l 290 332 l 538 332 l 582 608 z "},"$":{"ha":722,"x_min":65,"x_max":656,"o":"m 656 236 q 583 56 656 124 q 383 -15 511 -11 l 383 -137 l 336 -137 l 336 -14 q 65 306 68 3 l 119 306 q 336 35 119 49 l 336 464 q 256 488 286 478 q 190 519 226 499 q 133 565 153 540 q 98 628 113 589 q 83 718 83 667 q 149 885 83 825 q 336 951 214 946 l 336 1061 l 383 1061 l 383 951 q 646 647 646 936 l 592 647 q 540 835 592 774 q 383 901 489 896 l 383 507 q 469 481 438 492 q 542 449 501 471 q 603 402 582 428 q 640 334 625 376 q 656 236 656 292 m 138 718 q 183 590 138 628 q 336 521 229 551 l 336 903 q 138 718 138 894 m 383 450 l 383 33 q 544 90 488 38 q 601 236 601 143 q 550 377 601 336 q 383 450 499 418 z "},"%":{"ha":1100,"x_min":63,"x_max":1038,"o":"m 314 -42 l 261 -42 l 786 978 l 839 978 l 314 -42 m 112 885 q 136 918 112 885 q 251 951 161 951 q 391 885 342 951 q 440 697 440 819 q 391 511 440 576 q 251 446 342 446 q 112 511 161 446 q 63 697 63 576 q 112 885 63 819 m 351 852 q 334 879 351 852 q 251 906 317 906 q 151 852 186 906 q 115 697 115 799 q 151 544 115 597 q 251 492 186 492 q 351 544 317 492 q 386 697 386 597 q 351 852 386 799 m 709 424 q 734 457 709 424 q 849 490 758 490 q 988 424 939 490 q 1038 236 1038 358 q 988 50 1038 115 q 849 -15 939 -15 q 709 50 758 -15 q 660 236 660 115 q 709 424 660 358 m 949 391 q 931 418 949 391 q 849 444 914 444 q 749 391 783 444 q 714 236 714 338 q 749 83 714 136 q 849 31 783 31 q 949 83 914 31 q 983 236 983 136 q 949 391 983 338 z "},"&":{"ha":989,"x_min":93,"x_max":974,"o":"m 900 0 l 746 151 q 410 -17 610 -17 q 179 60 265 -17 q 93 257 93 136 q 151 426 93 356 q 336 557 210 496 q 228 688 256 638 q 201 806 201 739 q 259 948 201 892 q 406 1004 317 1004 q 555 947 499 1004 q 611 803 611 890 q 567 660 611 718 q 415 547 522 601 l 740 229 q 818 550 818 358 l 871 550 q 776 193 871 340 l 974 0 l 900 0 m 250 806 q 276 703 250 750 q 382 579 303 657 q 524 681 485 629 q 563 803 563 732 q 519 914 563 871 q 406 957 476 957 q 293 915 336 957 q 250 806 250 874 m 410 32 q 711 186 592 32 l 369 525 q 197 406 247 465 q 147 257 147 346 q 219 94 147 157 q 410 32 290 32 z "},"'":{"ha":265,"x_min":106,"x_max":160,"o":"m 151 642 l 114 642 l 106 989 l 160 989 l 151 642 z "},"(":{"ha":347,"x_min":78,"x_max":306,"o":"m 256 1029 l 306 1029 q 174 738 215 882 q 132 413 132 593 q 174 88 132 232 q 306 -204 215 -57 l 256 -204 q 122 81 165 -65 q 78 413 78 228 q 122 744 78 597 q 256 1029 165 890 z "},")":{"ha":347,"x_min":42,"x_max":269,"o":"m 42 1029 l 92 1029 q 226 744 182 890 q 269 413 269 597 q 226 81 269 228 q 92 -204 182 -65 l 42 -204 q 174 88 132 -57 q 215 413 215 232 q 174 738 215 593 q 42 1029 132 882 z "},"*":{"ha":532,"x_min":51,"x_max":481,"o":"m 282 794 l 461 867 l 481 810 l 293 767 l 415 619 l 368 583 l 265 749 l 164 583 l 117 619 l 239 767 l 51 810 l 71 867 l 250 794 l 238 989 l 294 989 l 282 794 z "},"+":{"ha":786,"x_min":104,"x_max":682,"o":"m 417 464 l 682 464 l 682 417 l 417 417 l 417 151 l 369 151 l 369 417 l 104 417 l 104 464 l 369 464 l 369 729 l 417 729 l 417 464 z "},",":{"ha":238,"x_min":69,"x_max":158,"o":"m 158 0 l 107 -176 l 69 -176 l 111 0 l 93 0 l 93 110 l 158 110 l 158 0 z "},"-":{"ha":390,"x_min":42,"x_max":349,"o":"m 349 381 l 42 381 l 42 431 l 349 431 l 349 381 z "},".":{"ha":238,"x_min":85,"x_max":153,"o":"m 153 0 l 85 0 l 85 110 l 153 110 l 153 0 z "},"/":{"ha":578,"x_min":42,"x_max":507,"o":"m 94 -124 l 42 -124 l 454 1035 l 507 1035 l 94 -124 z "},":":{"ha":238,"x_min":85,"x_max":153,"o":"m 153 596 l 85 596 l 85 706 l 153 706 l 153 596 m 153 0 l 85 0 l 85 110 l 153 110 l 153 0 z "},";":{"ha":239,"x_min":69,"x_max":160,"o":"m 160 596 l 93 596 l 93 706 l 160 706 l 160 596 m 158 0 l 107 -176 l 69 -176 l 111 0 l 93 0 l 93 110 l 158 110 l 158 0 z "},"<":{"ha":786,"x_min":104,"x_max":682,"o":"m 682 675 l 153 442 l 153 439 l 682 206 l 682 153 l 104 408 l 104 472 l 682 728 l 682 675 z "},"=":{"ha":786,"x_min":104,"x_max":682,"o":"m 682 511 l 104 511 l 104 558 l 682 558 l 682 511 m 682 321 l 104 321 l 104 368 l 682 368 l 682 321 z "},">":{"ha":786,"x_min":104,"x_max":682,"o":"m 682 472 l 682 408 l 104 153 l 104 206 l 633 439 l 633 442 l 104 675 l 104 728 l 682 472 z "},"?":{"ha":671,"x_min":50,"x_max":615,"o":"m 336 1004 q 537 936 458 1004 q 615 763 615 868 q 585 636 615 688 q 460 507 554 585 q 351 381 375 435 q 326 201 326 326 l 281 201 l 281 236 q 308 406 281 347 q 424 539 336 464 q 535 655 508 611 q 561 763 561 699 q 499 902 561 849 q 336 956 436 956 q 170 899 232 956 q 100 735 108 842 l 50 735 q 133 935 58 865 q 336 1004 208 1004 m 335 0 l 272 0 l 272 111 l 335 111 l 335 0 z "},"@":{"ha":1182,"x_min":83,"x_max":1099,"o":"m 603 943 q 963 809 828 943 q 1099 451 1099 675 q 1032 201 1099 288 q 865 114 965 114 q 731 263 739 114 l 729 263 q 528 114 669 114 q 383 181 435 114 q 332 375 332 249 q 403 624 332 528 q 585 719 474 719 q 701 680 657 719 q 758 572 746 640 l 760 572 l 785 706 l 833 706 q 774 289 774 422 q 871 160 774 160 q 998 234 946 160 q 1050 451 1050 308 q 928 776 1050 654 q 603 897 806 897 q 258 751 383 897 q 132 381 132 604 q 253 41 132 164 q 582 -82 375 -82 q 893 0 764 -82 l 915 -39 q 582 -128 774 -128 q 218 8 353 -128 q 83 381 83 143 q 223 783 83 622 q 603 943 363 943 m 590 674 q 440 591 499 674 q 382 375 382 508 q 423 215 382 269 q 538 160 464 160 q 680 242 622 160 q 738 489 738 324 q 699 625 738 576 q 590 674 660 674 z "},"A":{"ha":900,"x_min":8,"x_max":890,"o":"m 693 347 l 206 347 l 64 0 l 8 0 l 414 989 l 485 989 l 890 0 l 835 0 l 693 347 m 674 396 l 624 518 q 534 736 592 594 q 450 943 476 878 l 449 943 q 365 736 422 878 q 275 518 307 594 l 225 396 l 674 396 z "},"B":{"ha":833,"x_min":144,"x_max":761,"o":"m 144 989 l 432 989 q 661 923 583 989 q 739 743 739 857 q 690 592 739 653 q 554 508 642 531 l 554 507 q 704 427 647 492 q 761 267 761 363 q 681 72 761 143 q 458 0 601 0 l 144 0 l 144 989 m 196 942 l 196 529 l 426 529 q 623 587 560 529 q 686 738 686 644 q 428 942 686 942 l 196 942 m 196 482 l 196 47 l 453 47 q 641 105 575 47 q 707 267 707 163 q 638 424 707 365 q 426 482 569 482 l 196 482 z "},"C":{"ha":932,"x_min":65,"x_max":858,"o":"m 482 1004 q 746 908 647 1004 q 853 664 844 811 l 799 664 q 705 874 789 793 q 482 954 621 954 q 216 831 314 954 q 118 494 118 707 q 215 158 118 282 q 476 35 311 35 q 701 116 613 35 q 804 329 789 197 l 858 329 q 741 79 843 174 q 476 -15 639 -15 q 176 122 286 -15 q 65 494 65 258 q 178 867 65 729 q 482 1004 290 1004 z "},"D":{"ha":989,"x_min":144,"x_max":925,"o":"m 144 989 l 422 989 q 794 860 664 989 q 925 494 925 732 q 794 128 925 257 q 422 0 664 0 l 144 0 l 144 989 m 196 940 l 196 49 l 422 49 q 755 164 639 49 q 871 494 871 279 q 755 825 871 710 q 422 940 639 940 l 196 940 z "},"E":{"ha":829,"x_min":144,"x_max":750,"o":"m 732 940 l 196 940 l 196 532 l 707 532 l 707 483 l 196 483 l 196 49 l 750 49 l 750 0 l 144 0 l 144 989 l 732 989 l 732 940 z "},"F":{"ha":767,"x_min":144,"x_max":718,"o":"m 718 940 l 196 940 l 196 529 l 690 529 l 690 481 l 196 481 l 196 0 l 144 0 l 144 989 l 718 989 l 718 940 z "},"G":{"ha":986,"x_min":65,"x_max":865,"o":"m 494 1004 q 752 922 654 1004 q 863 701 850 839 l 808 701 q 711 886 793 818 q 494 954 629 954 q 219 831 319 954 q 118 490 118 707 q 214 156 118 276 q 478 35 310 35 q 606 57 547 35 q 713 126 664 79 q 788 256 761 172 q 815 454 815 340 l 503 454 l 503 503 l 865 503 l 865 0 l 815 0 l 815 221 l 814 221 q 691 49 782 113 q 474 -15 600 -15 q 174 120 283 -15 q 65 490 65 256 q 180 867 65 729 q 494 1004 294 1004 z "},"H":{"ha":996,"x_min":144,"x_max":853,"o":"m 853 0 l 800 0 l 800 489 l 196 489 l 196 0 l 144 0 l 144 989 l 196 989 l 196 538 l 800 538 l 800 989 l 853 989 l 853 0 z "},"I":{"ha":340,"x_min":144,"x_max":196,"o":"m 196 0 l 144 0 l 144 989 l 196 989 l 196 0 z "},"J":{"ha":442,"x_min":21,"x_max":306,"o":"m 306 989 l 306 251 q 246 60 306 125 q 76 -6 186 -6 q 21 1 44 -6 l 21 51 q 76 44 53 44 q 253 251 253 44 l 253 989 l 306 989 z "},"K":{"ha":788,"x_min":144,"x_max":781,"o":"m 256 518 l 781 0 l 706 0 l 197 504 l 196 504 l 196 0 l 144 0 l 144 989 l 196 989 l 196 532 l 197 532 l 663 989 l 736 989 l 256 518 z "},"L":{"ha":747,"x_min":144,"x_max":738,"o":"m 196 49 l 738 49 l 738 0 l 144 0 l 144 989 l 196 989 l 196 49 z "},"M":{"ha":1217,"x_min":144,"x_max":1072,"o":"m 1072 0 l 1021 0 l 1021 524 l 1021 931 l 1018 931 q 934 723 990 861 q 850 515 878 585 l 639 0 l 576 0 l 367 515 q 197 931 333 597 l 196 931 l 196 524 l 196 0 l 144 0 l 144 989 l 229 989 l 449 449 l 607 57 l 610 57 l 768 449 l 988 989 l 1072 989 l 1072 0 z "},"N":{"ha":1014,"x_min":144,"x_max":871,"o":"m 871 0 l 789 0 l 504 453 l 197 938 l 196 938 l 196 419 l 196 0 l 144 0 l 144 989 l 225 989 l 510 536 l 817 51 l 818 51 l 818 569 l 818 989 l 871 989 l 871 0 z "},"O":{"ha":989,"x_min":65,"x_max":924,"o":"m 181 866 q 239 935 181 866 q 494 1004 297 1004 q 808 866 692 1004 q 924 494 924 728 q 808 123 924 261 q 494 -15 692 -15 q 181 123 297 -15 q 65 494 65 261 q 181 866 65 728 m 768 830 q 717 892 768 830 q 494 954 667 954 q 220 829 322 954 q 118 494 118 704 q 220 160 118 285 q 494 35 322 35 q 768 159 667 35 q 869 494 869 283 q 768 830 869 706 z "},"P":{"ha":818,"x_min":144,"x_max":776,"o":"m 144 989 l 461 989 q 695 915 614 989 q 776 715 776 840 q 695 516 776 590 q 461 442 614 442 l 196 442 l 196 0 l 144 0 l 144 989 m 196 940 l 196 490 l 461 490 q 656 551 589 490 q 722 715 722 611 q 656 880 722 819 q 461 940 589 940 l 196 940 z "},"Q":{"ha":988,"x_min":65,"x_max":924,"o":"m 924 494 q 792 104 924 243 l 903 -17 l 867 -51 l 756 71 q 499 -15 650 -15 q 183 123 300 -15 q 65 494 65 261 q 183 866 65 728 q 499 1004 300 1004 q 808 866 693 1004 q 924 494 924 728 m 499 35 q 719 110 628 35 l 592 249 l 628 285 l 756 144 q 869 494 869 269 q 769 830 869 706 q 499 954 668 954 q 222 829 325 954 q 118 494 118 704 q 222 160 118 285 q 499 35 325 35 z "},"R":{"ha":843,"x_min":144,"x_max":800,"o":"m 144 989 l 415 989 q 661 922 579 989 q 743 733 743 856 q 688 565 743 632 q 539 482 632 499 l 539 479 q 627 426 594 465 q 693 294 660 388 l 800 0 l 743 0 l 642 285 q 563 421 607 383 q 429 458 518 458 l 196 458 l 196 0 l 144 0 l 144 989 m 196 940 l 196 507 l 429 507 q 625 569 560 507 q 690 733 690 632 q 621 887 690 833 q 415 940 551 940 l 196 940 z "},"S":{"ha":814,"x_min":68,"x_max":729,"o":"m 383 1004 q 713 678 713 1004 l 660 678 q 383 956 660 956 q 204 901 269 956 q 139 750 139 846 q 199 612 139 656 q 406 533 260 568 q 542 494 492 513 q 640 446 592 476 q 708 368 688 415 q 729 251 729 321 q 643 56 729 128 q 408 -15 557 -15 q 156 72 243 -15 q 68 331 68 158 l 121 331 q 408 33 121 33 q 606 91 536 33 q 676 251 676 149 q 660 342 676 306 q 603 404 644 379 q 518 444 561 429 q 394 479 475 460 q 158 575 231 519 q 86 750 86 631 q 167 934 86 864 q 383 1004 247 1004 z "},"T":{"ha":804,"x_min":10,"x_max":793,"o":"m 793 940 l 428 940 l 428 0 l 376 0 l 376 940 l 10 940 l 10 989 l 793 989 l 793 940 z "},"U":{"ha":950,"x_min":136,"x_max":814,"o":"m 814 989 l 814 364 q 727 81 814 178 q 475 -15 640 -15 q 223 81 310 -15 q 136 364 136 178 l 136 989 l 188 989 l 188 364 q 262 117 188 200 q 475 35 336 35 q 688 117 614 35 q 763 364 763 200 l 763 989 l 814 989 z "},"V":{"ha":847,"x_min":11,"x_max":838,"o":"m 460 0 l 389 0 l 11 989 l 65 989 l 246 515 q 422 51 283 419 l 425 51 q 601 515 463 147 l 782 989 l 838 989 l 460 0 z "},"W":{"ha":1217,"x_min":17,"x_max":1201,"o":"m 938 0 l 857 0 l 735 464 l 610 939 l 607 939 l 482 464 l 360 0 l 279 0 l 17 989 l 68 989 l 190 536 l 319 50 l 321 50 q 449 539 396 333 l 568 989 l 649 989 l 768 539 q 896 50 821 333 l 897 50 l 1026 536 l 1149 989 l 1201 989 l 938 0 z "},"X":{"ha":839,"x_min":15,"x_max":824,"o":"m 453 508 l 824 0 l 760 0 l 421 465 l 418 465 l 79 0 l 15 0 l 388 508 l 36 989 l 100 989 l 418 553 l 421 553 l 739 989 l 803 989 l 453 508 z "},"Y":{"ha":813,"x_min":8,"x_max":804,"o":"m 432 433 l 432 0 l 381 0 l 381 433 l 8 989 l 71 989 l 221 763 q 404 486 282 669 l 407 486 q 593 765 468 579 l 742 989 l 804 989 l 432 433 z "},"Z":{"ha":765,"x_min":24,"x_max":742,"o":"m 713 931 l 81 51 l 81 49 l 742 49 l 742 0 l 24 0 l 24 58 l 656 938 l 656 940 l 32 940 l 32 989 l 713 989 l 713 931 z "},"[":{"ha":358,"x_min":111,"x_max":331,"o":"m 331 986 l 161 986 l 161 -162 l 331 -162 l 331 -206 l 111 -206 l 111 1029 l 331 1029 l 331 986 z "},"\\":{"ha":578,"x_min":71,"x_max":536,"o":"m 124 1035 l 536 -124 l 483 -124 l 71 1035 l 124 1035 z "},"]":{"ha":358,"x_min":28,"x_max":247,"o":"m 247 1029 l 247 -206 l 28 -206 l 28 -162 l 197 -162 l 197 986 l 28 986 l 28 1029 l 247 1029 z "},"^":{"ha":558,"x_min":19,"x_max":539,"o":"m 539 515 l 489 515 l 281 946 l 278 946 l 69 515 l 19 515 l 250 989 l 308 989 l 539 515 z "},"_":{"ha":694,"x_min":0,"x_max":694,"o":"m 694 -106 l 0 -106 l 0 -69 l 694 -69 l 694 -106 z "},"`":{"ha":335,"x_min":69,"x_max":265,"o":"m 138 989 l 265 796 l 215 796 l 69 989 l 138 989 z "},"a":{"ha":706,"x_min":56,"x_max":607,"o":"m 346 721 q 526 656 460 721 q 593 458 593 590 l 593 165 q 607 0 593 65 l 560 0 q 549 133 549 58 l 547 133 q 289 -14 472 -14 q 119 41 183 -14 q 56 185 56 96 q 114 322 56 271 q 310 394 172 374 q 544 422 443 414 l 544 463 q 491 624 544 571 q 346 676 438 676 q 195 626 249 676 q 136 493 142 576 l 85 493 q 160 659 92 597 q 346 721 228 721 m 544 304 l 544 378 q 315 350 432 368 q 154 294 201 333 q 107 186 107 254 q 158 73 107 115 q 297 31 210 31 q 476 103 411 31 q 530 186 515 144 q 544 304 544 228 z "},"b":{"ha":769,"x_min":122,"x_max":704,"o":"m 172 556 l 174 556 q 263 677 201 633 q 408 721 325 721 q 624 622 544 721 q 704 353 704 524 q 624 85 704 183 q 408 -14 544 -14 q 263 30 325 -14 q 174 151 201 74 l 172 151 l 172 0 l 122 0 l 122 989 l 172 989 l 172 556 m 403 676 q 233 590 296 676 q 169 353 169 503 q 233 117 169 204 q 403 31 296 31 q 585 117 518 31 q 653 353 653 204 q 585 590 653 503 q 403 676 518 676 z "},"c":{"ha":701,"x_min":65,"x_max":643,"o":"m 369 721 q 558 652 483 721 q 643 472 633 583 l 590 472 q 522 619 583 563 q 369 675 461 675 q 184 590 251 675 q 117 353 117 504 q 184 116 117 201 q 369 31 251 31 q 522 90 461 31 q 590 240 582 149 l 643 240 q 558 56 633 126 q 369 -15 483 -15 q 147 83 228 -15 q 65 353 65 181 q 147 623 65 525 q 369 721 228 721 z "},"d":{"ha":769,"x_min":65,"x_max":647,"o":"m 647 0 l 597 0 l 597 151 l 596 151 q 506 30 568 74 q 361 -14 444 -14 q 145 85 225 -14 q 65 353 65 183 q 145 622 65 524 q 361 721 225 721 q 506 677 444 721 q 596 556 568 633 l 597 556 l 597 989 l 647 989 l 647 0 m 365 676 q 183 590 250 676 q 117 353 117 503 q 183 117 117 204 q 365 31 250 31 q 537 117 474 31 q 600 353 600 204 q 537 590 600 503 q 365 676 474 676 z "},"e":{"ha":731,"x_min":65,"x_max":665,"o":"m 375 29 q 530 78 468 29 q 606 208 592 126 l 658 208 q 567 47 642 110 q 375 -15 492 -15 q 149 88 232 -15 q 65 367 65 192 q 147 624 65 526 q 367 721 228 721 q 559 653 482 721 q 657 467 636 585 q 665 349 665 425 l 115 349 q 188 114 117 199 q 375 29 258 29 m 367 676 q 188 599 254 676 q 115 393 121 522 l 617 393 q 544 601 613 526 q 367 676 476 676 z "},"f":{"ha":371,"x_min":21,"x_max":350,"o":"m 310 949 q 201 813 201 949 l 201 706 l 349 706 l 349 661 l 201 661 l 201 0 l 151 0 l 151 661 l 21 661 l 21 706 l 151 706 l 151 817 q 304 993 151 993 q 350 989 331 993 l 350 943 q 310 949 331 949 z "},"g":{"ha":769,"x_min":65,"x_max":647,"o":"m 363 721 q 596 557 529 721 l 597 557 l 597 706 l 647 706 l 647 43 q 363 -264 647 -264 q 165 -206 238 -264 q 93 -44 93 -147 l 143 -44 q 203 -174 144 -128 q 363 -219 263 -219 q 597 44 597 -219 l 597 172 l 596 172 q 363 8 529 8 q 145 104 225 8 q 65 364 65 200 q 145 625 65 529 q 363 721 225 721 m 363 676 q 183 592 249 676 q 117 364 117 508 q 183 137 117 221 q 363 53 249 53 q 537 136 474 53 q 600 364 600 219 q 537 593 600 510 q 363 676 474 676 z "},"h":{"ha":763,"x_min":122,"x_max":650,"o":"m 172 579 l 174 579 q 269 683 207 646 q 404 719 331 719 q 586 647 522 719 q 650 429 650 574 l 650 0 l 600 0 l 600 428 q 399 675 600 675 q 238 608 304 675 q 172 432 172 542 l 172 0 l 122 0 l 122 989 l 172 989 l 172 579 z "},"i":{"ha":293,"x_min":122,"x_max":172,"o":"m 172 876 l 122 876 l 122 989 l 172 989 l 172 876 m 172 0 l 122 0 l 122 706 l 172 706 l 172 0 z "},"j":{"ha":306,"x_min":-17,"x_max":185,"o":"m 185 876 l 135 876 l 135 989 l 185 989 l 185 876 m 185 706 l 185 -61 q 142 -215 185 -168 q 18 -261 99 -261 q -17 -257 -1 -261 l -17 -211 q 15 -214 3 -214 q 105 -180 75 -214 q 135 -61 135 -146 l 135 706 l 185 706 z "},"k":{"ha":635,"x_min":122,"x_max":642,"o":"m 642 0 l 569 0 l 174 372 l 172 372 l 172 0 l 122 0 l 122 989 l 172 989 l 172 400 l 174 400 l 529 706 l 601 706 l 228 388 l 642 0 z "},"l":{"ha":293,"x_min":122,"x_max":172,"o":"m 172 0 l 122 0 l 122 989 l 172 989 l 172 0 z "},"m":{"ha":1147,"x_min":122,"x_max":1035,"o":"m 814 719 q 977 649 919 719 q 1035 440 1035 579 l 1035 0 l 985 0 l 985 439 q 808 675 985 675 q 660 610 717 675 q 603 440 603 544 l 603 0 l 553 0 l 553 464 q 506 619 553 563 q 379 675 460 675 q 230 606 288 675 q 172 421 172 536 l 172 0 l 122 0 l 122 706 l 172 706 l 172 585 l 174 585 q 383 719 242 719 q 514 678 460 719 q 589 563 568 636 q 676 678 618 636 q 814 719 733 719 z "},"n":{"ha":763,"x_min":122,"x_max":650,"o":"m 404 719 q 586 647 522 719 q 650 429 650 574 l 650 0 l 600 0 l 600 428 q 399 675 600 675 q 238 608 304 675 q 172 432 172 542 l 172 0 l 122 0 l 122 706 l 172 706 l 172 579 l 174 579 q 266 682 204 644 q 404 719 328 719 z "},"o":{"ha":749,"x_min":65,"x_max":683,"o":"m 147 623 q 188 672 147 623 q 374 721 229 721 q 601 623 518 721 q 683 353 683 525 q 601 83 683 181 q 374 -15 518 -15 q 147 83 229 -15 q 65 353 65 181 q 147 623 65 525 m 374 675 q 185 590 253 675 q 117 353 117 504 q 185 116 117 201 q 374 31 253 31 q 564 116 496 31 q 632 353 632 201 q 564 590 632 504 q 374 675 496 675 z "},"p":{"ha":769,"x_min":122,"x_max":704,"o":"m 408 721 q 624 622 544 721 q 704 353 704 524 q 624 85 704 183 q 408 -14 544 -14 q 263 30 325 -14 q 174 151 201 74 l 172 151 l 172 -257 l 122 -257 l 122 706 l 172 706 l 172 556 l 174 556 q 263 677 201 633 q 408 721 325 721 m 403 676 q 233 590 296 676 q 169 353 169 503 q 233 117 169 204 q 403 31 296 31 q 585 117 518 31 q 653 353 653 204 q 585 590 653 503 q 403 676 518 676 z "},"q":{"ha":769,"x_min":65,"x_max":647,"o":"m 361 721 q 506 677 444 721 q 596 556 568 633 l 597 556 l 597 706 l 647 706 l 647 -257 l 597 -257 l 597 151 l 596 151 q 506 30 568 74 q 361 -14 444 -14 q 145 85 225 -14 q 65 353 65 183 q 145 622 65 524 q 361 721 225 721 m 365 676 q 183 590 250 676 q 117 353 117 503 q 183 117 117 204 q 365 31 250 31 q 537 117 474 31 q 600 353 600 204 q 537 590 600 503 q 365 676 474 676 z "},"r":{"ha":460,"x_min":122,"x_max":442,"o":"m 400 710 q 442 706 422 710 l 442 657 q 401 660 419 660 q 233 591 294 660 q 172 392 172 522 l 172 0 l 122 0 l 122 706 l 172 706 l 172 568 l 174 568 q 400 710 239 710 z "},"s":{"ha":640,"x_min":60,"x_max":579,"o":"m 307 721 q 491 657 425 721 q 558 479 557 593 l 507 479 q 454 624 507 572 q 307 675 401 675 q 176 637 226 675 q 125 533 125 599 q 166 442 125 468 q 317 390 207 415 q 426 363 386 375 q 505 327 465 350 q 562 269 544 304 q 579 182 579 233 q 510 40 579 94 q 332 -15 442 -15 q 132 52 203 -15 q 60 240 61 119 l 110 240 q 168 85 110 140 q 332 31 226 31 q 474 72 418 31 q 529 179 529 113 q 482 283 529 253 q 303 343 435 314 q 228 362 256 354 q 167 384 200 369 q 117 417 135 399 q 87 464 99 435 q 75 531 75 493 q 140 669 75 617 q 307 721 206 721 z "},"t":{"ha":394,"x_min":18,"x_max":351,"o":"m 303 43 q 351 49 329 43 l 351 3 q 297 -3 324 -3 q 185 38 219 -3 q 150 171 150 78 l 150 661 l 18 661 l 18 706 l 150 706 l 150 868 l 200 868 l 200 706 l 344 706 l 344 661 l 200 661 l 200 171 q 224 72 200 101 q 303 43 247 43 z "},"u":{"ha":763,"x_min":114,"x_max":642,"o":"m 358 -14 q 177 59 240 -14 q 114 276 114 132 l 114 706 l 164 706 l 164 278 q 364 31 164 31 q 525 97 458 31 q 592 274 592 164 l 592 706 l 642 706 l 642 0 l 592 0 l 592 126 l 589 126 q 496 24 557 61 q 358 -14 435 -14 z "},"v":{"ha":608,"x_min":-1,"x_max":611,"o":"m 338 0 l 271 0 l -1 706 l 53 706 l 175 386 l 303 50 l 306 50 l 435 386 l 557 706 l 611 706 l 338 0 z "},"w":{"ha":1033,"x_min":13,"x_max":1021,"o":"m 799 0 l 726 0 l 617 344 l 518 658 l 515 658 l 417 344 l 307 0 l 235 0 l 13 706 l 64 706 l 167 379 l 269 49 l 272 49 q 305 152 288 97 q 344 274 322 207 q 376 378 365 342 l 478 706 l 556 706 l 657 378 l 761 49 l 764 49 l 867 379 l 969 706 l 1021 706 l 799 0 z "},"x":{"ha":628,"x_min":3,"x_max":625,"o":"m 344 368 l 625 0 l 563 0 l 315 329 l 313 329 l 65 0 l 3 0 l 285 368 l 28 706 l 89 706 l 313 406 l 315 406 l 538 706 l 600 706 l 344 368 z "},"y":{"ha":614,"x_min":-1,"x_max":615,"o":"m 615 706 l 322 -21 q 211 -214 264 -165 q 68 -262 158 -262 q 15 -254 39 -262 l 15 -208 q 68 -217 39 -217 q 183 -175 142 -217 q 278 -1 225 -133 l -1 706 l 53 706 l 303 65 l 304 65 l 561 706 l 615 706 z "},"z":{"ha":625,"x_min":31,"x_max":594,"o":"m 581 651 l 90 49 l 90 46 l 594 46 l 594 0 l 31 0 l 31 54 l 521 657 l 521 660 l 44 660 l 44 706 l 581 706 l 581 651 z "},"{":{"ha":388,"x_min":56,"x_max":358,"o":"m 358 1029 l 358 989 q 237 950 274 989 q 200 822 200 911 l 200 581 q 177 472 200 510 q 96 414 154 435 l 96 411 q 177 353 154 390 q 200 244 200 315 l 200 1 q 237 -126 200 -87 q 358 -165 274 -165 l 358 -206 l 342 -206 q 198 -155 244 -206 q 151 4 151 -104 l 151 243 q 130 340 151 308 q 56 389 108 372 l 56 435 q 131 484 110 453 q 151 581 151 515 l 151 819 q 198 978 151 928 q 342 1029 244 1029 l 358 1029 z "},"|":{"ha":344,"x_min":149,"x_max":196,"o":"m 196 -285 l 149 -285 l 149 1017 l 196 1017 l 196 -285 z "},"}":{"ha":388,"x_min":29,"x_max":332,"o":"m 29 1029 l 46 1029 q 190 978 143 1029 q 236 819 236 928 l 236 581 q 257 484 236 515 q 332 435 278 453 l 332 389 q 258 340 279 372 q 236 243 236 308 l 236 4 q 190 -155 236 -104 q 46 -206 143 -206 l 29 -206 l 29 -165 q 151 -126 114 -165 q 188 1 188 -87 l 188 244 q 210 353 188 315 q 292 411 233 390 l 292 414 q 210 472 233 435 q 188 581 188 510 l 188 822 q 151 950 188 911 q 29 989 114 989 l 29 1029 z "},"~":{"ha":793,"x_min":35,"x_max":758,"o":"m 215 554 q 321 526 269 554 q 405 464 372 497 q 485 402 438 431 q 579 374 532 374 q 679 419 642 374 q 717 538 717 464 l 758 538 q 708 384 758 443 q 578 325 658 325 q 472 353 522 325 q 388 416 421 382 q 309 478 356 450 q 215 507 263 507 q 115 463 153 507 q 78 343 78 418 l 35 343 q 85 496 35 438 q 215 554 135 554 z "}," ":{"ha":319,"x_min":0,"x_max":0,"o":""},"¡":{"ha":310,"x_min":122,"x_max":188,"o":"m 124 706 l 186 706 l 186 594 l 124 594 l 124 706 m 135 499 l 175 499 l 188 -283 l 122 -283 l 135 499 z "},"¢":{"ha":722,"x_min":72,"x_max":650,"o":"m 403 785 l 403 142 q 538 208 485 150 q 599 351 592 267 l 650 351 q 574 174 640 244 q 403 96 507 104 l 403 -28 l 356 -28 l 356 94 q 148 201 224 103 q 72 463 72 299 q 148 726 72 628 q 356 832 224 824 l 356 951 l 403 951 l 403 831 q 574 756 507 824 q 650 583 642 688 l 599 583 q 538 722 592 667 q 403 785 485 778 m 125 463 q 186 234 125 319 q 356 142 247 149 l 356 785 q 186 692 247 778 q 125 463 125 607 z "},"£":{"ha":722,"x_min":33,"x_max":663,"o":"m 150 47 l 661 47 l 661 0 l 33 0 l 33 47 q 181 240 181 47 l 181 431 l 33 431 l 33 476 l 181 476 l 181 678 q 244 881 181 811 q 422 951 307 951 q 598 878 533 951 q 663 679 663 806 l 613 679 q 562 844 613 786 q 422 903 511 903 q 281 844 331 903 q 231 678 231 786 l 231 476 l 414 476 l 414 431 l 231 431 l 231 240 q 150 49 231 99 l 150 47 z "},"¤":{"ha":722,"x_min":35,"x_max":686,"o":"m 576 603 q 642 404 642 525 q 576 206 642 283 l 686 90 l 649 56 l 542 171 q 361 111 467 111 q 181 171 253 111 l 72 56 l 35 90 l 144 206 q 79 404 79 286 q 144 603 79 522 l 35 718 l 72 753 l 181 638 q 361 697 253 697 q 542 638 467 697 l 649 753 l 686 718 l 576 603 m 361 160 q 528 226 465 160 q 592 404 592 293 q 528 582 592 515 q 361 649 465 649 q 193 582 256 649 q 131 404 131 515 q 193 226 131 293 q 361 160 256 160 z "},"¥":{"ha":722,"x_min":8,"x_max":714,"o":"m 418 494 l 644 494 l 644 447 l 386 447 l 386 339 l 644 339 l 644 292 l 386 292 l 386 0 l 335 0 l 335 292 l 78 292 l 78 339 l 335 339 l 335 447 l 78 447 l 78 494 l 303 494 l 8 936 l 69 936 l 176 776 q 360 500 238 683 l 361 500 l 549 779 l 651 936 l 714 936 l 418 494 z "},"¦":{"ha":344,"x_min":149,"x_max":196,"o":"m 196 531 l 149 531 l 149 1017 l 196 1017 l 196 531 m 196 -285 l 149 -285 l 149 201 l 196 201 l 196 -285 z "},"§":{"ha":713,"x_min":89,"x_max":624,"o":"m 342 1004 q 506 948 449 1004 q 564 783 563 892 l 514 783 q 342 958 510 958 q 225 919 268 958 q 182 815 182 881 q 217 718 182 749 q 383 624 253 688 q 578 502 533 550 q 624 372 624 454 q 506 174 624 250 l 506 172 q 579 7 579 114 q 519 -144 579 -89 q 353 -199 458 -199 q 118 39 118 -199 l 168 39 q 353 -153 168 -153 q 482 -110 436 -153 q 528 7 528 -68 q 488 122 528 85 q 313 225 447 158 q 134 339 179 292 q 89 469 89 386 q 203 665 89 588 l 203 667 q 131 815 131 722 q 189 952 131 900 q 342 1004 247 1004 m 240 642 q 138 474 138 567 q 178 368 138 410 q 338 268 218 326 q 469 197 418 231 q 575 368 575 267 q 536 474 575 433 q 369 575 497 515 q 240 642 285 615 z "},"¨":{"ha":443,"x_min":69,"x_max":374,"o":"m 119 876 l 69 876 l 69 989 l 119 989 l 119 876 m 374 876 l 324 876 l 324 989 l 374 989 l 374 876 z "},"©":{"ha":1138,"x_min":74,"x_max":1064,"o":"m 210 863 q 278 933 210 863 q 568 1003 346 1003 q 927 863 790 1003 q 1064 494 1064 722 q 927 126 1064 267 q 568 -14 790 -14 q 210 126 346 -14 q 74 494 74 267 q 210 863 74 722 m 899 835 q 836 899 899 835 q 568 964 774 964 q 238 835 363 964 q 113 494 113 706 q 238 154 113 283 q 568 25 363 25 q 899 154 774 25 q 1025 494 1025 283 q 899 835 1025 706 m 569 846 q 751 780 683 846 q 825 613 818 714 l 772 613 q 711 744 765 693 q 569 796 657 796 q 399 715 461 796 q 336 493 336 633 q 398 274 336 354 q 565 193 460 193 q 710 245 653 193 q 776 381 767 297 l 829 381 q 747 208 818 274 q 565 143 676 143 q 358 238 435 143 q 282 493 282 332 q 360 751 282 657 q 569 846 438 846 z "},"ª":{"ha":513,"x_min":39,"x_max":444,"o":"m 251 964 q 385 917 336 964 q 433 778 433 871 l 433 575 q 444 458 433 503 l 403 458 q 394 547 394 508 l 393 547 q 208 449 339 449 q 85 488 132 449 q 39 589 39 526 q 82 686 39 650 q 226 738 125 722 q 390 757 317 751 l 390 782 q 353 890 390 854 q 251 925 315 925 q 148 892 185 925 q 107 804 111 858 l 61 804 q 115 920 65 876 q 251 964 165 964 m 390 671 l 390 718 q 232 699 313 711 q 120 661 153 686 q 88 590 88 636 q 122 515 88 543 q 217 488 157 488 q 342 535 297 488 q 380 592 369 564 q 390 671 390 619 z "},"«":{"ha":543,"x_min":74,"x_max":469,"o":"m 126 353 l 285 75 l 232 75 l 74 353 l 232 631 l 285 631 l 126 353 m 313 353 l 469 75 l 417 75 l 258 353 l 417 631 l 469 631 l 313 353 z "},"¬":{"ha":786,"x_min":104,"x_max":682,"o":"m 682 211 l 635 211 l 635 567 l 104 567 l 104 614 l 682 614 l 682 211 z "},"­":{"ha":390,"x_min":42,"x_max":349,"o":"m 349 381 l 42 381 l 42 431 l 349 431 l 349 381 z "},"®":{"ha":806,"x_min":63,"x_max":743,"o":"m 156 908 q 203 956 156 908 q 403 1004 250 1004 q 649 908 556 1004 q 743 656 743 811 q 649 402 743 499 q 403 306 556 306 q 156 402 250 306 q 63 656 63 499 q 156 908 63 813 m 626 885 q 584 928 626 885 q 403 972 542 972 q 180 885 264 972 q 96 656 96 797 q 180 425 96 513 q 403 338 264 338 q 626 425 542 338 q 710 656 710 513 q 626 885 710 797 m 261 882 l 400 882 q 509 850 472 882 q 546 760 546 818 q 523 688 546 718 q 461 651 500 658 l 461 649 q 497 627 483 643 q 525 574 511 611 l 572 438 l 526 438 l 485 561 q 452 616 472 600 q 394 632 432 632 l 303 632 l 303 438 l 261 438 l 261 882 m 303 843 l 303 671 l 394 671 q 476 695 449 671 q 503 760 503 719 q 394 843 503 843 l 303 843 z "},"¯":{"ha":475,"x_min":69,"x_max":406,"o":"m 406 885 l 69 885 l 69 929 l 406 929 l 406 885 z "},"°":{"ha":414,"x_min":61,"x_max":354,"o":"m 103 960 q 125 981 103 960 q 207 1003 146 1003 q 311 960 268 1003 q 354 856 354 917 q 311 753 354 796 q 207 710 268 710 q 104 752 147 710 q 61 856 61 794 q 103 960 61 917 m 282 931 q 266 947 282 931 q 207 963 250 963 q 133 931 164 963 q 101 856 101 900 q 133 781 101 813 q 207 750 164 750 q 282 781 250 750 q 314 856 314 813 q 282 931 314 900 z "},"±":{"ha":786,"x_min":104,"x_max":682,"o":"m 417 469 l 682 469 l 682 422 l 417 422 l 417 158 l 369 158 l 369 422 l 104 422 l 104 469 l 369 469 l 369 736 l 417 736 l 417 469 m 682 0 l 104 0 l 104 47 l 682 47 l 682 0 z "},"²":{"ha":540,"x_min":56,"x_max":488,"o":"m 275 1125 q 419 1075 364 1125 q 474 947 474 1025 q 428 824 474 871 q 279 721 383 778 q 138 614 174 661 q 103 501 103 567 l 488 501 l 488 458 l 58 458 q 56 476 56 465 q 95 631 56 571 q 256 758 135 690 q 389 848 353 813 q 425 947 425 883 q 383 1044 425 1007 q 274 1081 342 1081 q 160 1042 200 1081 q 114 932 119 1003 l 65 932 q 127 1073 71 1021 q 275 1125 183 1125 z "},"³":{"ha":535,"x_min":46,"x_max":478,"o":"m 256 1125 q 408 1077 351 1125 q 465 951 465 1029 q 344 794 465 833 l 344 793 q 478 628 478 753 q 416 498 478 549 q 258 447 354 447 q 102 499 158 447 q 46 643 46 551 l 94 643 q 137 530 94 569 q 258 490 179 490 q 381 529 333 490 q 429 628 429 568 q 382 734 429 697 q 247 771 335 771 l 213 771 l 213 814 l 247 814 q 373 850 328 814 q 418 949 418 886 q 373 1044 418 1008 q 254 1081 328 1081 q 140 1043 181 1081 q 99 932 99 1006 l 50 932 q 106 1074 50 1022 q 256 1125 161 1125 z "},"´":{"ha":335,"x_min":69,"x_max":265,"o":"m 119 796 l 69 796 l 199 989 l 265 989 l 119 796 z "},"µ":{"ha":772,"x_min":122,"x_max":746,"o":"m 644 706 l 644 167 q 659 66 644 92 q 713 40 674 40 q 746 46 731 40 l 746 1 q 699 -6 721 -6 q 623 24 647 -6 q 596 129 599 54 l 594 129 q 505 26 567 64 q 367 -12 443 -12 q 172 103 222 -12 l 172 -257 l 122 -257 l 122 706 l 172 706 l 172 281 q 369 33 172 33 q 529 99 464 33 q 594 279 594 165 l 594 706 l 644 706 z "},"¶":{"ha":724,"x_min":56,"x_max":694,"o":"m 694 949 l 583 949 l 583 -167 l 542 -167 l 542 949 l 415 949 l 415 -167 l 374 -167 l 374 451 l 310 451 q 124 524 193 451 q 56 721 56 597 q 124 917 56 844 q 310 989 193 989 l 694 989 l 694 949 z "},"·":{"ha":238,"x_min":85,"x_max":153,"o":"m 153 369 l 85 369 l 85 479 l 153 479 l 153 369 z "},"¸":{"ha":401,"x_min":69,"x_max":332,"o":"m 253 0 l 192 -92 q 221 -89 206 -89 q 301 -115 271 -89 q 332 -185 332 -140 q 297 -262 332 -232 q 197 -293 261 -293 q 69 -258 129 -293 l 85 -228 q 193 -256 135 -256 q 262 -237 238 -256 q 286 -186 286 -218 q 201 -119 286 -119 q 157 -126 178 -119 l 139 -107 l 211 0 l 253 0 z "},"¹":{"ha":318,"x_min":14,"x_max":206,"o":"m 206 458 l 160 458 l 160 1017 l 157 1017 q 14 965 125 965 l 14 1004 q 124 1029 89 1004 q 167 1114 158 1054 l 206 1114 l 206 458 z "},"º":{"ha":544,"x_min":46,"x_max":499,"o":"m 272 964 q 438 894 378 964 q 499 706 499 825 q 438 516 499 585 q 272 447 378 447 q 107 516 168 447 q 46 706 46 585 q 107 894 46 825 q 272 964 168 964 m 272 924 q 141 865 189 924 q 93 706 93 807 q 141 546 93 604 q 272 488 189 488 q 405 545 357 488 q 453 706 453 603 q 405 866 453 808 q 272 924 357 924 z "},"»":{"ha":543,"x_min":74,"x_max":469,"o":"m 126 631 l 285 353 l 126 75 l 74 75 l 231 353 l 74 631 l 126 631 m 311 631 l 469 353 l 311 75 l 258 75 l 417 353 l 258 631 l 311 631 z "},"¼":{"ha":872,"x_min":13,"x_max":860,"o":"m 138 836 l 136 836 q 13 803 99 803 l 13 843 q 107 864 76 843 q 144 936 138 885 l 185 936 l 185 375 l 138 375 l 138 836 m 668 936 l 121 0 l 65 0 l 613 936 l 668 936 m 860 157 l 754 157 l 754 0 l 708 0 l 708 157 l 438 157 l 438 206 l 690 561 l 754 561 l 754 200 l 860 200 l 860 157 m 488 200 l 708 200 l 708 282 l 708 507 l 706 507 q 639 413 690 486 q 558 301 588 340 l 488 200 z "},"½":{"ha":921,"x_min":13,"x_max":876,"o":"m 185 375 l 138 375 l 138 836 l 136 836 q 13 803 99 803 l 13 843 q 107 864 76 843 q 144 936 138 885 l 185 936 l 185 375 m 121 0 l 65 0 l 613 936 l 668 936 l 121 0 m 692 572 q 816 529 768 572 q 864 419 864 486 q 824 311 864 353 q 697 222 783 269 q 578 134 608 172 q 549 44 549 96 l 876 44 l 876 0 l 501 0 l 501 15 q 535 150 501 99 q 674 260 568 201 q 753 308 729 292 q 797 353 778 325 q 815 419 815 382 q 781 497 815 467 q 692 526 747 526 q 560 404 571 526 l 513 404 q 565 527 517 482 q 692 572 614 572 z "},"¾":{"ha":1057,"x_min":40,"x_max":1044,"o":"m 415 521 q 363 408 415 451 q 226 364 310 364 q 90 410 139 364 q 40 535 40 456 l 88 535 q 226 410 88 410 q 328 440 289 410 q 368 521 368 471 q 328 608 368 578 q 213 639 288 639 l 185 639 l 185 682 l 213 682 q 318 713 279 682 q 357 794 357 743 q 321 872 357 843 q 224 901 285 901 q 126 870 161 901 q 92 779 92 839 l 43 779 q 92 903 43 858 q 225 947 142 947 q 356 906 307 947 q 404 797 404 865 q 304 663 404 700 l 304 661 q 415 521 415 628 m 853 936 l 306 0 l 250 0 l 797 936 l 853 936 m 1044 157 l 939 157 l 939 0 l 893 0 l 893 157 l 622 157 l 622 206 l 875 561 l 939 561 l 939 200 l 1044 200 l 1044 157 m 672 200 l 893 200 l 893 282 l 893 507 l 890 507 q 824 413 875 486 q 743 301 772 340 l 672 200 z "},"¿":{"ha":621,"x_min":56,"x_max":621,"o":"m 336 706 l 399 706 l 399 594 l 336 594 l 336 706 m 333 -299 q 133 -231 211 -299 q 56 -57 56 -162 q 86 69 56 18 q 211 199 117 121 q 320 325 296 271 q 344 504 344 379 l 390 504 l 390 469 q 362 300 390 358 q 246 167 333 242 q 135 51 161 94 q 110 -57 110 7 q 172 -197 110 -143 q 333 -250 235 -250 q 501 -193 439 -250 q 569 -29 563 -136 l 621 -29 q 538 -229 613 -160 q 333 -299 463 -299 z "},"À":{"ha":900,"x_min":8,"x_max":890,"o":"m 475 1056 l 321 1236 l 389 1236 l 528 1056 l 475 1056 m 693 347 l 206 347 l 64 0 l 8 0 l 414 989 l 485 989 l 890 0 l 835 0 l 693 347 m 674 396 l 624 518 q 534 736 592 594 q 450 943 476 878 l 449 943 q 365 736 422 878 q 275 518 307 594 l 225 396 l 674 396 z "},"Á":{"ha":900,"x_min":8,"x_max":890,"o":"m 424 1056 l 372 1056 l 510 1236 l 579 1236 l 424 1056 m 693 347 l 206 347 l 64 0 l 8 0 l 414 989 l 485 989 l 890 0 l 835 0 l 693 347 m 674 396 l 624 518 q 534 736 592 594 q 450 943 476 878 l 449 943 q 365 736 422 878 q 275 518 307 594 l 225 396 l 674 396 z "},"Â":{"ha":900,"x_min":8,"x_max":890,"o":"m 319 1056 l 260 1056 l 422 1236 l 478 1236 l 642 1056 l 582 1056 l 450 1200 l 319 1056 m 693 347 l 206 347 l 64 0 l 8 0 l 414 989 l 485 989 l 890 0 l 835 0 l 693 347 m 674 396 l 624 518 q 534 736 592 594 q 450 943 476 878 l 449 943 q 365 736 422 878 q 275 518 307 594 l 225 396 l 674 396 z "},"Ã":{"ha":900,"x_min":8,"x_max":890,"o":"m 349 1178 q 281 1094 288 1178 l 238 1094 q 272 1189 242 1156 q 349 1222 301 1222 q 456 1181 392 1222 q 551 1139 519 1139 q 621 1222 614 1139 l 664 1222 q 630 1128 660 1161 q 553 1094 600 1094 q 446 1136 510 1094 q 349 1178 382 1178 m 693 347 l 206 347 l 64 0 l 8 0 l 414 989 l 485 989 l 890 0 l 835 0 l 693 347 m 674 396 l 624 518 q 534 736 592 594 q 450 943 476 878 l 449 943 q 365 736 422 878 q 275 518 307 594 l 225 396 l 674 396 z "},"Ä":{"ha":900,"x_min":8,"x_max":890,"o":"m 347 1082 l 297 1082 l 297 1194 l 347 1194 l 347 1082 m 601 1082 l 551 1082 l 551 1194 l 601 1194 l 601 1082 m 693 347 l 206 347 l 64 0 l 8 0 l 414 989 l 485 989 l 890 0 l 835 0 l 693 347 m 674 396 l 624 518 q 534 736 592 594 q 450 943 476 878 l 449 943 q 365 736 422 878 q 275 518 307 594 l 225 396 l 674 396 z "},"Å":{"ha":900,"x_min":8,"x_max":890,"o":"m 450 1056 q 361 1092 397 1056 q 325 1181 325 1128 q 362 1269 325 1232 q 450 1306 399 1306 q 538 1269 501 1306 q 575 1181 575 1232 q 538 1092 575 1129 q 450 1056 501 1056 m 513 1244 q 500 1257 513 1244 q 450 1269 488 1269 q 387 1244 413 1269 q 361 1181 361 1218 q 387 1117 361 1143 q 450 1092 413 1092 q 513 1117 488 1092 q 539 1181 539 1143 q 513 1244 539 1218 m 693 347 l 206 347 l 64 0 l 8 0 l 414 989 l 485 989 l 890 0 l 835 0 l 693 347 m 674 396 l 624 518 q 534 736 592 594 q 450 943 476 878 l 449 943 q 365 736 422 878 q 275 518 307 594 l 225 396 l 674 396 z "},"Æ":{"ha":1268,"x_min":-8,"x_max":1188,"o":"m 1188 49 l 1188 0 l 714 0 l 656 372 l 244 372 l 50 0 l -8 0 l 507 989 l 1169 989 l 1169 940 l 619 940 l 683 532 l 1144 532 l 1144 483 l 690 483 l 758 49 l 1188 49 m 649 421 l 568 940 l 542 940 l 269 421 l 649 421 z "},"Ç":{"ha":932,"x_min":65,"x_max":858,"o":"m 804 329 l 858 329 q 753 91 843 183 q 517 -14 663 -1 l 465 -92 q 494 -89 479 -89 q 575 -115 544 -89 q 606 -185 606 -140 q 570 -262 606 -232 q 471 -293 535 -293 q 343 -258 403 -293 l 358 -228 q 467 -256 408 -256 q 535 -237 511 -256 q 560 -186 560 -218 q 475 -119 560 -119 q 431 -126 451 -119 l 413 -107 l 475 -15 q 175 123 285 -14 q 65 494 65 260 q 178 867 65 729 q 482 1004 290 1004 q 746 908 647 1004 q 853 664 844 811 l 799 664 q 705 874 789 793 q 482 954 621 954 q 216 831 314 954 q 118 494 118 707 q 215 158 118 282 q 476 35 311 35 q 701 116 613 35 q 804 329 789 197 z "},"È":{"ha":829,"x_min":144,"x_max":750,"o":"m 378 1236 l 517 1056 l 464 1056 l 310 1236 l 378 1236 m 732 940 l 196 940 l 196 532 l 707 532 l 707 483 l 196 483 l 196 49 l 750 49 l 750 0 l 144 0 l 144 989 l 732 989 l 732 940 z "},"É":{"ha":829,"x_min":144,"x_max":750,"o":"m 411 1056 l 360 1056 l 497 1236 l 567 1236 l 411 1056 m 732 940 l 196 940 l 196 532 l 707 532 l 707 483 l 196 483 l 196 49 l 750 49 l 750 0 l 144 0 l 144 989 l 732 989 l 732 940 z "},"Ê":{"ha":829,"x_min":144,"x_max":750,"o":"m 410 1236 l 465 1236 l 629 1056 l 569 1056 l 438 1200 l 307 1056 l 247 1056 l 410 1236 m 732 940 l 196 940 l 196 532 l 707 532 l 707 483 l 196 483 l 196 49 l 750 49 l 750 0 l 144 0 l 144 989 l 732 989 l 732 940 z "},"Ë":{"ha":829,"x_min":144,"x_max":750,"o":"m 336 1082 l 286 1082 l 286 1194 l 336 1194 l 336 1082 m 590 1082 l 540 1082 l 540 1194 l 590 1194 l 590 1082 m 732 940 l 196 940 l 196 532 l 707 532 l 707 483 l 196 483 l 196 49 l 750 49 l 750 0 l 144 0 l 144 989 l 732 989 l 732 940 z "},"Ì":{"ha":340,"x_min":42,"x_max":249,"o":"m 110 1236 l 249 1056 l 196 1056 l 42 1236 l 110 1236 m 196 0 l 144 0 l 144 989 l 196 989 l 196 0 z "},"Í":{"ha":340,"x_min":92,"x_max":299,"o":"m 143 1056 l 92 1056 l 229 1236 l 299 1236 l 143 1056 m 196 0 l 144 0 l 144 989 l 196 989 l 196 0 z "},"Î":{"ha":340,"x_min":-21,"x_max":361,"o":"m 142 1236 l 197 1236 l 361 1056 l 301 1056 l 169 1200 l 39 1056 l -21 1056 l 142 1236 m 196 0 l 144 0 l 144 989 l 196 989 l 196 0 z "},"Ï":{"ha":340,"x_min":18,"x_max":322,"o":"m 68 1082 l 18 1082 l 18 1194 l 68 1194 l 68 1082 m 322 1082 l 272 1082 l 272 1194 l 322 1194 l 322 1082 m 196 0 l 144 0 l 144 989 l 196 989 l 196 0 z "},"Ð":{"ha":989,"x_min":57,"x_max":925,"o":"m 144 989 l 422 989 q 794 860 664 989 q 925 494 925 732 q 794 128 925 257 q 422 0 664 0 l 144 0 l 144 478 l 57 478 l 57 524 l 144 524 l 144 989 m 196 49 l 422 49 q 755 164 639 49 q 871 494 871 279 q 755 825 871 710 q 422 940 639 940 l 196 940 l 196 524 l 529 524 l 529 478 l 196 478 l 196 49 z "},"Ñ":{"ha":1014,"x_min":144,"x_max":871,"o":"m 678 1222 l 721 1222 q 687 1128 717 1161 q 610 1094 657 1094 q 503 1136 567 1094 q 406 1178 439 1178 q 338 1094 344 1178 l 294 1094 q 328 1189 299 1156 q 406 1222 358 1222 q 513 1181 449 1222 q 608 1139 576 1139 q 678 1222 671 1139 m 871 0 l 789 0 l 504 453 l 197 938 l 196 938 l 196 419 l 196 0 l 144 0 l 144 989 l 225 989 l 510 536 l 817 51 l 818 51 l 818 569 l 818 989 l 871 989 l 871 0 z "},"Ò":{"ha":989,"x_min":65,"x_max":924,"o":"m 433 1236 l 572 1056 l 519 1056 l 365 1236 l 433 1236 m 181 866 q 239 935 181 866 q 494 1004 297 1004 q 808 866 692 1004 q 924 494 924 728 q 808 123 924 261 q 494 -15 692 -15 q 181 123 297 -15 q 65 494 65 261 q 181 866 65 728 m 768 830 q 717 892 768 830 q 494 954 667 954 q 220 829 322 954 q 118 494 118 704 q 220 160 118 285 q 494 35 322 35 q 768 159 667 35 q 869 494 869 283 q 768 830 869 706 z "},"Ó":{"ha":989,"x_min":65,"x_max":924,"o":"m 468 1056 l 417 1056 l 554 1236 l 624 1236 l 468 1056 m 181 866 q 239 935 181 866 q 494 1004 297 1004 q 808 866 692 1004 q 924 494 924 728 q 808 123 924 261 q 494 -15 692 -15 q 181 123 297 -15 q 65 494 65 261 q 181 866 65 728 m 768 830 q 717 892 768 830 q 494 954 667 954 q 220 829 322 954 q 118 494 118 704 q 220 160 118 285 q 494 35 322 35 q 768 159 667 35 q 869 494 869 283 q 768 830 869 706 z "},"Ô":{"ha":989,"x_min":65,"x_max":924,"o":"m 467 1236 l 522 1236 l 686 1056 l 626 1056 l 494 1200 l 364 1056 l 304 1056 l 467 1236 m 181 866 q 239 935 181 866 q 494 1004 297 1004 q 808 866 692 1004 q 924 494 924 728 q 808 123 924 261 q 494 -15 692 -15 q 181 123 297 -15 q 65 494 65 261 q 181 866 65 728 m 768 830 q 717 892 768 830 q 494 954 667 954 q 220 829 322 954 q 118 494 118 704 q 220 160 118 285 q 494 35 322 35 q 768 159 667 35 q 869 494 869 283 q 768 830 869 706 z "},"Õ":{"ha":989,"x_min":65,"x_max":924,"o":"m 665 1222 l 708 1222 q 674 1128 704 1161 q 597 1094 644 1094 q 490 1136 554 1094 q 393 1178 426 1178 q 325 1094 332 1178 l 282 1094 q 316 1189 286 1156 q 393 1222 346 1222 q 500 1181 436 1222 q 596 1139 564 1139 q 665 1222 658 1139 m 181 866 q 239 935 181 866 q 494 1004 297 1004 q 808 866 692 1004 q 924 494 924 728 q 808 123 924 261 q 494 -15 692 -15 q 181 123 297 -15 q 65 494 65 261 q 181 866 65 728 m 768 830 q 717 892 768 830 q 494 954 667 954 q 220 829 322 954 q 118 494 118 704 q 220 160 118 285 q 494 35 322 35 q 768 159 667 35 q 869 494 869 283 q 768 830 869 706 z "},"Ö":{"ha":989,"x_min":65,"x_max":924,"o":"m 392 1082 l 342 1082 l 342 1194 l 392 1194 l 392 1082 m 646 1082 l 596 1082 l 596 1194 l 646 1194 l 646 1082 m 181 866 q 239 935 181 866 q 494 1004 297 1004 q 808 866 692 1004 q 924 494 924 728 q 808 123 924 261 q 494 -15 692 -15 q 181 123 297 -15 q 65 494 65 261 q 181 866 65 728 m 768 830 q 717 892 768 830 q 494 954 667 954 q 220 829 322 954 q 118 494 118 704 q 220 160 118 285 q 494 35 322 35 q 768 159 667 35 q 869 494 869 283 q 768 830 869 706 z "},"×":{"ha":786,"x_min":79,"x_max":708,"o":"m 708 708 l 425 425 l 708 142 l 676 110 l 393 393 l 111 111 l 79 143 l 361 425 l 79 707 l 111 739 l 393 457 l 676 740 l 708 708 z "},"Ø":{"ha":989,"x_min":65,"x_max":924,"o":"m 899 986 l 807 867 q 924 494 924 728 q 808 123 924 261 q 494 -15 692 -15 q 215 88 325 -15 l 129 -25 l 92 4 l 182 122 q 65 494 65 261 q 181 866 65 728 q 494 1004 297 1004 q 774 901 664 1004 l 860 1014 l 899 986 m 118 494 q 215 167 118 290 l 742 858 q 494 954 642 954 q 220 829 322 954 q 118 494 118 704 m 494 35 q 768 159 667 35 q 869 494 869 283 q 774 822 869 699 l 247 131 q 494 35 346 35 z "},"Ù":{"ha":950,"x_min":136,"x_max":814,"o":"m 414 1236 l 553 1056 l 500 1056 l 346 1236 l 414 1236 m 814 989 l 814 364 q 727 81 814 178 q 475 -15 640 -15 q 223 81 310 -15 q 136 364 136 178 l 136 989 l 188 989 l 188 364 q 262 117 188 200 q 475 35 336 35 q 688 117 614 35 q 763 364 763 200 l 763 989 l 814 989 z "},"Ú":{"ha":950,"x_min":136,"x_max":814,"o":"m 449 1056 l 397 1056 l 535 1236 l 604 1236 l 449 1056 m 814 989 l 814 364 q 727 81 814 178 q 475 -15 640 -15 q 223 81 310 -15 q 136 364 136 178 l 136 989 l 188 989 l 188 364 q 262 117 188 200 q 475 35 336 35 q 688 117 614 35 q 763 364 763 200 l 763 989 l 814 989 z "},"Û":{"ha":950,"x_min":136,"x_max":814,"o":"m 447 1236 l 503 1236 l 667 1056 l 607 1056 l 475 1200 l 344 1056 l 285 1056 l 447 1236 m 814 989 l 814 364 q 727 81 814 178 q 475 -15 640 -15 q 223 81 310 -15 q 136 364 136 178 l 136 989 l 188 989 l 188 364 q 262 117 188 200 q 475 35 336 35 q 688 117 614 35 q 763 364 763 200 l 763 989 l 814 989 z "},"Ü":{"ha":950,"x_min":136,"x_max":814,"o":"m 372 1082 l 322 1082 l 322 1194 l 372 1194 l 372 1082 m 626 1082 l 576 1082 l 576 1194 l 626 1194 l 626 1082 m 814 989 l 814 364 q 727 81 814 178 q 475 -15 640 -15 q 223 81 310 -15 q 136 364 136 178 l 136 989 l 188 989 l 188 364 q 262 117 188 200 q 475 35 336 35 q 688 117 614 35 q 763 364 763 200 l 763 989 l 814 989 z "},"Ý":{"ha":813,"x_min":8,"x_max":804,"o":"m 379 1056 l 328 1056 l 465 1236 l 535 1236 l 379 1056 m 432 433 l 432 0 l 381 0 l 381 433 l 8 989 l 71 989 l 221 763 q 404 486 282 669 l 407 486 q 593 765 468 579 l 742 989 l 804 989 l 432 433 z "},"Þ":{"ha":818,"x_min":144,"x_max":776,"o":"m 196 786 l 461 786 q 695 712 614 786 q 776 513 776 638 q 695 313 776 388 q 461 239 614 239 l 196 239 l 196 0 l 144 0 l 144 989 l 196 989 l 196 786 m 196 738 l 196 288 l 461 288 q 656 348 589 288 q 722 513 722 408 q 656 677 722 617 q 461 738 589 738 l 196 738 z "},"ß":{"ha":746,"x_min":122,"x_max":685,"o":"m 382 1004 q 567 940 497 1004 q 636 772 636 876 q 471 560 636 603 l 471 558 q 626 474 567 543 q 685 286 685 404 q 600 69 685 147 q 361 -8 515 -8 q 285 1 318 -8 l 285 49 q 361 39 315 39 q 562 104 490 39 q 633 286 633 169 q 566 467 633 401 q 383 533 499 533 l 361 533 l 361 582 q 529 632 474 582 q 585 769 585 682 q 530 907 585 856 q 382 958 475 958 q 226 893 281 958 q 172 706 172 828 l 172 0 l 122 0 l 122 707 q 190 926 122 849 q 382 1004 257 1004 z "},"à":{"ha":706,"x_min":56,"x_max":607,"o":"m 281 989 l 408 796 l 358 796 l 213 989 l 281 989 m 346 721 q 526 656 460 721 q 593 458 593 590 l 593 165 q 607 0 593 65 l 560 0 q 549 133 549 58 l 547 133 q 289 -14 472 -14 q 119 41 183 -14 q 56 185 56 96 q 114 322 56 271 q 310 394 172 374 q 544 422 443 414 l 544 463 q 491 624 544 571 q 346 676 438 676 q 195 626 249 676 q 136 493 142 576 l 85 493 q 160 659 92 597 q 346 721 228 721 m 544 304 l 544 378 q 315 350 432 368 q 154 294 201 333 q 107 186 107 254 q 158 73 107 115 q 297 31 210 31 q 476 103 411 31 q 530 186 515 144 q 544 304 544 228 z "},"á":{"ha":706,"x_min":56,"x_max":607,"o":"m 314 796 l 264 796 l 393 989 l 460 989 l 314 796 m 346 721 q 526 656 460 721 q 593 458 593 590 l 593 165 q 607 0 593 65 l 560 0 q 549 133 549 58 l 547 133 q 289 -14 472 -14 q 119 41 183 -14 q 56 185 56 96 q 114 322 56 271 q 310 394 172 374 q 544 422 443 414 l 544 463 q 491 624 544 571 q 346 676 438 676 q 195 626 249 676 q 136 493 142 576 l 85 493 q 160 659 92 597 q 346 721 228 721 m 544 304 l 544 378 q 315 350 432 368 q 154 294 201 333 q 107 186 107 254 q 158 73 107 115 q 297 31 210 31 q 476 103 411 31 q 530 186 515 144 q 544 304 544 228 z "},"â":{"ha":706,"x_min":56,"x_max":607,"o":"m 467 796 l 336 953 l 204 796 l 146 796 l 308 989 l 364 989 l 526 796 l 467 796 m 346 721 q 526 656 460 721 q 593 458 593 590 l 593 165 q 607 0 593 65 l 560 0 q 549 133 549 58 l 547 133 q 289 -14 472 -14 q 119 41 183 -14 q 56 185 56 96 q 114 322 56 271 q 310 394 172 374 q 544 422 443 414 l 544 463 q 491 624 544 571 q 346 676 438 676 q 195 626 249 676 q 136 493 142 576 l 85 493 q 160 659 92 597 q 346 721 228 721 m 544 304 l 544 378 q 315 350 432 368 q 154 294 201 333 q 107 186 107 254 q 158 73 107 115 q 297 31 210 31 q 476 103 411 31 q 530 186 515 144 q 544 304 544 228 z "},"ã":{"ha":706,"x_min":56,"x_max":607,"o":"m 507 975 l 550 975 q 516 881 546 914 q 439 847 486 847 q 332 889 396 847 q 235 931 268 931 q 167 847 174 931 l 124 847 q 158 942 128 908 q 235 975 188 975 q 342 933 278 975 q 438 892 406 892 q 507 975 500 892 m 346 721 q 526 656 460 721 q 593 458 593 590 l 593 165 q 607 0 593 65 l 560 0 q 549 133 549 58 l 547 133 q 289 -14 472 -14 q 119 41 183 -14 q 56 185 56 96 q 114 322 56 271 q 310 394 172 374 q 544 422 443 414 l 544 463 q 491 624 544 571 q 346 676 438 676 q 195 626 249 676 q 136 493 142 576 l 85 493 q 160 659 92 597 q 346 721 228 721 m 544 304 l 544 378 q 315 350 432 368 q 154 294 201 333 q 107 186 107 254 q 158 73 107 115 q 297 31 210 31 q 476 103 411 31 q 530 186 515 144 q 544 304 544 228 z "},"ä":{"ha":706,"x_min":56,"x_max":607,"o":"m 233 876 l 183 876 l 183 989 l 233 989 l 233 876 m 488 876 l 438 876 l 438 989 l 488 989 l 488 876 m 346 721 q 526 656 460 721 q 593 458 593 590 l 593 165 q 607 0 593 65 l 560 0 q 549 133 549 58 l 547 133 q 289 -14 472 -14 q 119 41 183 -14 q 56 185 56 96 q 114 322 56 271 q 310 394 172 374 q 544 422 443 414 l 544 463 q 491 624 544 571 q 346 676 438 676 q 195 626 249 676 q 136 493 142 576 l 85 493 q 160 659 92 597 q 346 721 228 721 m 544 304 l 544 378 q 315 350 432 368 q 154 294 201 333 q 107 186 107 254 q 158 73 107 115 q 297 31 210 31 q 476 103 411 31 q 530 186 515 144 q 544 304 544 228 z "},"å":{"ha":706,"x_min":56,"x_max":607,"o":"m 336 1058 q 424 1022 388 1058 q 461 933 461 985 q 424 845 461 882 q 336 808 388 808 q 247 844 283 808 q 211 933 211 881 q 247 1022 211 986 q 336 1058 283 1058 m 399 997 q 386 1009 399 997 q 336 1022 374 1022 q 273 997 299 1022 q 247 933 247 971 q 273 870 247 896 q 336 844 299 844 q 399 870 374 844 q 425 933 425 896 q 399 997 425 971 m 346 721 q 526 656 460 721 q 593 458 593 590 l 593 165 q 607 0 593 65 l 560 0 q 549 133 549 58 l 547 133 q 289 -14 472 -14 q 119 41 183 -14 q 56 185 56 96 q 114 322 56 271 q 310 394 172 374 q 544 422 443 414 l 544 463 q 491 624 544 571 q 346 676 438 676 q 195 626 249 676 q 136 493 142 576 l 85 493 q 160 659 92 597 q 346 721 228 721 m 544 304 l 544 378 q 315 350 432 368 q 154 294 201 333 q 107 186 107 254 q 158 73 107 115 q 297 31 210 31 q 476 103 411 31 q 530 186 515 144 q 544 304 544 228 z "},"æ":{"ha":1157,"x_min":56,"x_max":1093,"o":"m 822 29 q 963 78 907 29 q 1032 208 1019 126 l 1085 208 q 1001 47 1071 110 q 822 -15 932 -15 q 663 38 729 -15 q 565 189 597 92 q 465 39 540 93 q 286 -15 389 -15 q 119 40 183 -15 q 56 185 56 94 q 357 393 56 393 l 538 393 l 538 463 q 486 624 538 571 q 343 676 435 676 q 197 626 251 676 q 136 493 142 575 l 85 493 q 161 658 92 596 q 343 721 231 721 q 572 549 532 721 q 666 676 604 631 q 814 721 728 721 q 992 652 919 721 q 1085 467 1065 583 q 1093 349 1093 414 l 583 349 q 650 114 585 199 q 822 29 715 29 m 814 676 q 649 599 711 676 q 583 393 588 522 l 1043 393 q 977 601 1040 526 q 814 676 914 676 m 538 349 l 361 349 q 167 308 226 349 q 107 186 107 268 q 158 72 107 114 q 294 29 208 29 q 475 104 408 29 q 524 186 511 144 q 538 304 538 228 l 538 349 z "},"ç":{"ha":701,"x_min":65,"x_max":643,"o":"m 369 31 q 522 90 461 31 q 590 240 582 149 l 643 240 q 573 70 635 139 q 414 -12 511 1 l 361 -92 q 390 -89 375 -89 q 471 -115 440 -89 q 501 -185 501 -140 q 466 -262 501 -232 q 367 -293 431 -293 q 239 -258 299 -293 l 254 -228 q 363 -256 304 -256 q 431 -237 407 -256 q 456 -186 456 -218 q 371 -119 456 -119 q 326 -126 347 -119 l 308 -107 l 369 -15 q 147 83 228 -15 q 65 353 65 181 q 147 623 65 525 q 369 721 228 721 q 558 652 483 721 q 643 472 633 583 l 590 472 q 522 619 583 563 q 369 675 461 675 q 184 590 251 675 q 117 353 117 504 q 184 116 117 201 q 369 31 251 31 z "},"è":{"ha":731,"x_min":65,"x_max":665,"o":"m 386 796 l 240 989 l 308 989 l 436 796 l 386 796 m 375 29 q 530 78 468 29 q 606 208 592 126 l 658 208 q 567 47 642 110 q 375 -15 492 -15 q 149 88 232 -15 q 65 367 65 192 q 147 624 65 526 q 367 721 228 721 q 559 653 482 721 q 657 467 636 585 q 665 349 665 425 l 115 349 q 188 114 117 199 q 375 29 258 29 m 367 676 q 188 599 254 676 q 115 393 121 522 l 617 393 q 544 601 613 526 q 367 676 476 676 z "},"é":{"ha":731,"x_min":65,"x_max":665,"o":"m 342 796 l 292 796 l 421 989 l 488 989 l 342 796 m 375 29 q 530 78 468 29 q 606 208 592 126 l 658 208 q 567 47 642 110 q 375 -15 492 -15 q 149 88 232 -15 q 65 367 65 192 q 147 624 65 526 q 367 721 228 721 q 559 653 482 721 q 657 467 636 585 q 665 349 665 425 l 115 349 q 188 114 117 199 q 375 29 258 29 m 367 676 q 188 599 254 676 q 115 393 121 522 l 617 393 q 544 601 613 526 q 367 676 476 676 z "},"ê":{"ha":731,"x_min":65,"x_max":665,"o":"m 233 796 l 175 796 l 338 989 l 393 989 l 556 796 l 496 796 l 365 953 l 233 796 m 375 29 q 530 78 468 29 q 606 208 592 126 l 658 208 q 567 47 642 110 q 375 -15 492 -15 q 149 88 232 -15 q 65 367 65 192 q 147 624 65 526 q 367 721 228 721 q 559 653 482 721 q 657 467 636 585 q 665 349 665 425 l 115 349 q 188 114 117 199 q 375 29 258 29 m 367 676 q 188 599 254 676 q 115 393 121 522 l 617 393 q 544 601 613 526 q 367 676 476 676 z "},"ë":{"ha":731,"x_min":65,"x_max":665,"o":"m 263 876 l 213 876 l 213 989 l 263 989 l 263 876 m 517 876 l 467 876 l 467 989 l 517 989 l 517 876 m 375 29 q 530 78 468 29 q 606 208 592 126 l 658 208 q 567 47 642 110 q 375 -15 492 -15 q 149 88 232 -15 q 65 367 65 192 q 147 624 65 526 q 367 721 228 721 q 559 653 482 721 q 657 467 636 585 q 665 349 665 425 l 115 349 q 188 114 117 199 q 375 29 258 29 m 367 676 q 188 599 254 676 q 115 393 121 522 l 617 393 q 544 601 613 526 q 367 676 476 676 z "},"ì":{"ha":293,"x_min":24,"x_max":219,"o":"m 92 989 l 219 796 l 169 796 l 24 989 l 92 989 m 172 0 l 122 0 l 122 706 l 172 706 l 172 0 z "},"í":{"ha":293,"x_min":75,"x_max":271,"o":"m 125 796 l 75 796 l 204 989 l 271 989 l 125 796 m 172 0 l 122 0 l 122 706 l 172 706 l 172 0 z "},"î":{"ha":293,"x_min":-18,"x_max":311,"o":"m 311 797 l 254 797 l 147 953 l 40 797 l -18 797 l 117 989 l 176 989 l 311 797 m 172 0 l 122 0 l 122 706 l 172 706 l 172 0 z "},"ï":{"ha":293,"x_min":22,"x_max":271,"o":"m 72 882 l 22 882 l 22 989 l 72 989 l 72 882 m 271 882 l 221 882 l 221 989 l 271 989 l 271 882 m 172 0 l 122 0 l 122 706 l 172 706 l 172 0 z "},"ð":{"ha":749,"x_min":65,"x_max":685,"o":"m 531 753 q 685 353 685 561 q 601 83 685 181 q 374 -15 518 -15 q 148 83 231 -15 q 65 351 65 181 q 147 619 65 522 q 369 717 228 717 q 557 640 481 717 l 557 643 q 358 864 486 751 l 176 771 l 158 808 l 324 893 q 217 975 289 922 l 249 1004 q 367 914 307 965 l 533 1000 l 551 961 l 400 885 q 531 753 483 811 m 374 31 q 565 116 496 31 q 633 351 633 201 q 565 587 633 501 q 374 672 496 672 q 185 587 254 672 q 117 351 117 501 q 185 116 117 201 q 374 31 254 31 z "},"ñ":{"ha":763,"x_min":122,"x_max":650,"o":"m 554 975 l 597 975 q 563 881 593 914 q 486 847 533 847 q 379 889 443 847 q 282 931 315 931 q 214 847 221 931 l 171 847 q 205 942 175 908 q 282 975 235 975 q 389 933 325 975 q 485 892 453 892 q 554 975 547 892 m 404 719 q 586 647 522 719 q 650 429 650 574 l 650 0 l 600 0 l 600 428 q 399 675 600 675 q 238 608 304 675 q 172 432 172 542 l 172 0 l 122 0 l 122 706 l 172 706 l 172 579 l 174 579 q 266 682 204 644 q 404 719 328 719 z "},"ò":{"ha":749,"x_min":65,"x_max":683,"o":"m 318 989 l 446 796 l 396 796 l 250 989 l 318 989 m 147 623 q 188 672 147 623 q 374 721 229 721 q 601 623 518 721 q 683 353 683 525 q 601 83 683 181 q 374 -15 518 -15 q 147 83 229 -15 q 65 353 65 181 q 147 623 65 525 m 374 675 q 185 590 253 675 q 117 353 117 504 q 185 116 117 201 q 374 31 253 31 q 564 116 496 31 q 632 353 632 201 q 564 590 632 504 q 374 675 496 675 z "},"ó":{"ha":749,"x_min":65,"x_max":683,"o":"m 351 796 l 301 796 l 431 989 l 497 989 l 351 796 m 147 623 q 188 672 147 623 q 374 721 229 721 q 601 623 518 721 q 683 353 683 525 q 601 83 683 181 q 374 -15 518 -15 q 147 83 229 -15 q 65 353 65 181 q 147 623 65 525 m 374 675 q 185 590 253 675 q 117 353 117 504 q 185 116 117 201 q 374 31 253 31 q 564 116 496 31 q 632 353 632 201 q 564 590 632 504 q 374 675 496 675 z "},"ô":{"ha":749,"x_min":65,"x_max":683,"o":"m 506 796 l 375 953 l 243 796 l 185 796 l 347 989 l 403 989 l 565 796 l 506 796 m 147 623 q 188 672 147 623 q 374 721 229 721 q 601 623 518 721 q 683 353 683 525 q 601 83 683 181 q 374 -15 518 -15 q 147 83 229 -15 q 65 353 65 181 q 147 623 65 525 m 374 675 q 185 590 253 675 q 117 353 117 504 q 185 116 117 201 q 374 31 253 31 q 564 116 496 31 q 632 353 632 201 q 564 590 632 504 q 374 675 496 675 z "},"õ":{"ha":749,"x_min":65,"x_max":683,"o":"m 544 975 l 588 975 q 553 881 583 914 q 476 847 524 847 q 369 889 433 847 q 272 931 306 931 q 204 847 211 931 l 161 847 q 195 942 165 908 q 272 975 225 975 q 379 933 315 975 q 475 892 443 892 q 544 975 538 892 m 147 623 q 188 672 147 623 q 374 721 229 721 q 601 623 518 721 q 683 353 683 525 q 601 83 683 181 q 374 -15 518 -15 q 147 83 229 -15 q 65 353 65 181 q 147 623 65 525 m 374 675 q 185 590 253 675 q 117 353 117 504 q 185 116 117 201 q 374 31 253 31 q 564 116 496 31 q 632 353 632 201 q 564 590 632 504 q 374 675 496 675 z "},"ö":{"ha":749,"x_min":65,"x_max":683,"o":"m 272 876 l 222 876 l 222 989 l 272 989 l 272 876 m 526 876 l 476 876 l 476 989 l 526 989 l 526 876 m 147 623 q 188 672 147 623 q 374 721 229 721 q 601 623 518 721 q 683 353 683 525 q 601 83 683 181 q 374 -15 518 -15 q 147 83 229 -15 q 65 353 65 181 q 147 623 65 525 m 374 675 q 185 590 253 675 q 117 353 117 504 q 185 116 117 201 q 374 31 253 31 q 564 116 496 31 q 632 353 632 201 q 564 590 632 504 q 374 675 496 675 z "},"÷":{"ha":786,"x_min":104,"x_max":682,"o":"m 419 608 l 367 608 l 367 699 l 419 699 l 419 608 m 682 417 l 104 417 l 104 464 l 682 464 l 682 417 m 419 182 l 367 182 l 367 272 l 419 272 l 419 182 z "},"ø":{"ha":749,"x_min":65,"x_max":685,"o":"m 681 719 l 604 619 q 685 353 685 522 q 601 83 685 181 q 374 -15 518 -15 q 174 56 253 -15 l 103 -39 l 68 -12 l 143 88 q 65 353 65 188 q 147 623 65 525 q 374 721 229 721 q 574 651 493 721 l 646 746 l 681 719 m 374 675 q 185 590 254 675 q 117 353 117 504 q 175 129 117 215 l 544 611 q 374 675 478 675 m 374 31 q 565 116 496 31 q 633 353 633 201 q 572 579 633 492 l 204 94 q 374 31 271 31 z "},"ù":{"ha":763,"x_min":114,"x_max":642,"o":"m 326 989 l 454 796 l 404 796 l 258 989 l 326 989 m 358 -14 q 177 59 240 -14 q 114 276 114 132 l 114 706 l 164 706 l 164 278 q 364 31 164 31 q 525 97 458 31 q 592 274 592 164 l 592 706 l 642 706 l 642 0 l 592 0 l 592 126 l 589 126 q 496 24 557 61 q 358 -14 435 -14 z "},"ú":{"ha":763,"x_min":114,"x_max":642,"o":"m 360 796 l 310 796 l 439 989 l 506 989 l 360 796 m 358 -14 q 177 59 240 -14 q 114 276 114 132 l 114 706 l 164 706 l 164 278 q 364 31 164 31 q 525 97 458 31 q 592 274 592 164 l 592 706 l 642 706 l 642 0 l 592 0 l 592 126 l 589 126 q 496 24 557 61 q 358 -14 435 -14 z "},"û":{"ha":763,"x_min":114,"x_max":642,"o":"m 513 796 l 382 953 l 250 796 l 192 796 l 354 989 l 410 989 l 572 796 l 513 796 m 358 -14 q 177 59 240 -14 q 114 276 114 132 l 114 706 l 164 706 l 164 278 q 364 31 164 31 q 525 97 458 31 q 592 274 592 164 l 592 706 l 642 706 l 642 0 l 592 0 l 592 126 l 589 126 q 496 24 557 61 q 358 -14 435 -14 z "},"ü":{"ha":763,"x_min":114,"x_max":642,"o":"m 279 876 l 229 876 l 229 989 l 279 989 l 279 876 m 533 876 l 483 876 l 483 989 l 533 989 l 533 876 m 358 -14 q 177 59 240 -14 q 114 276 114 132 l 114 706 l 164 706 l 164 278 q 364 31 164 31 q 525 97 458 31 q 592 274 592 164 l 592 706 l 642 706 l 642 0 l 592 0 l 592 126 l 589 126 q 496 24 557 61 q 358 -14 435 -14 z "},"ý":{"ha":614,"x_min":-1,"x_max":615,"o":"m 285 796 l 235 796 l 364 989 l 431 989 l 285 796 m 615 706 l 322 -21 q 211 -214 264 -165 q 68 -262 158 -262 q 15 -254 39 -262 l 15 -208 q 68 -217 39 -217 q 183 -175 142 -217 q 278 -1 225 -133 l -1 706 l 53 706 l 303 65 l 304 65 l 561 706 l 615 706 z "},"þ":{"ha":769,"x_min":122,"x_max":704,"o":"m 172 556 l 174 556 q 263 677 201 633 q 408 721 325 721 q 624 622 544 721 q 704 353 704 524 q 624 85 704 183 q 408 -14 544 -14 q 263 30 325 -14 q 174 151 201 74 l 172 151 l 172 -257 l 122 -257 l 122 989 l 172 989 l 172 556 m 403 676 q 233 590 296 676 q 169 353 169 503 q 233 117 169 204 q 403 31 296 31 q 585 117 518 31 q 653 353 653 204 q 585 590 653 503 q 403 676 518 676 z "},"ÿ":{"ha":614,"x_min":-1,"x_max":615,"o":"m 206 876 l 156 876 l 156 989 l 206 989 l 206 876 m 460 876 l 410 876 l 410 989 l 460 989 l 460 876 m 615 706 l 322 -21 q 211 -214 264 -165 q 68 -262 158 -262 q 15 -254 39 -262 l 15 -208 q 68 -217 39 -217 q 183 -175 142 -217 q 278 -1 225 -133 l -1 706 l 53 706 l 303 65 l 304 65 l 561 706 l 615 706 z "},"Ā":{"ha":900,"x_min":8,"x_max":890,"o":"m 618 1108 l 282 1108 l 282 1153 l 618 1153 l 618 1108 m 693 347 l 206 347 l 64 0 l 8 0 l 414 989 l 485 989 l 890 0 l 835 0 l 693 347 m 674 396 l 624 518 q 534 736 592 594 q 450 943 476 878 l 449 943 q 365 736 422 878 q 275 518 307 594 l 225 396 l 674 396 z "},"ā":{"ha":706,"x_min":56,"x_max":607,"o":"m 504 885 l 168 885 l 168 929 l 504 929 l 504 885 m 346 721 q 526 656 460 721 q 593 458 593 590 l 593 165 q 607 0 593 65 l 560 0 q 549 133 549 58 l 547 133 q 289 -14 472 -14 q 119 41 183 -14 q 56 185 56 96 q 114 322 56 271 q 310 394 172 374 q 544 422 443 414 l 544 463 q 491 624 544 571 q 346 676 438 676 q 195 626 249 676 q 136 493 142 576 l 85 493 q 160 659 92 597 q 346 721 228 721 m 544 304 l 544 378 q 315 350 432 368 q 154 294 201 333 q 107 186 107 254 q 158 73 107 115 q 297 31 210 31 q 476 103 411 31 q 530 186 515 144 q 544 304 544 228 z "},"Ă":{"ha":900,"x_min":8,"x_max":890,"o":"m 590 1101 q 565 1077 590 1101 q 450 1053 539 1053 q 310 1101 361 1053 q 250 1236 258 1149 l 294 1236 q 450 1096 311 1096 q 606 1236 589 1096 l 650 1236 q 590 1101 642 1149 m 693 347 l 206 347 l 64 0 l 8 0 l 414 989 l 485 989 l 890 0 l 835 0 l 693 347 m 674 396 l 624 518 q 534 736 592 594 q 450 943 476 878 l 449 943 q 365 736 422 878 q 275 518 307 594 l 225 396 l 674 396 z "},"ă":{"ha":706,"x_min":56,"x_max":607,"o":"m 492 989 l 536 989 q 476 853 528 901 q 336 806 424 806 q 197 853 249 806 q 136 989 144 901 l 181 989 q 336 849 197 849 q 492 989 475 849 m 346 721 q 526 656 460 721 q 593 458 593 590 l 593 165 q 607 0 593 65 l 560 0 q 549 133 549 58 l 547 133 q 289 -14 472 -14 q 119 41 183 -14 q 56 185 56 96 q 114 322 56 271 q 310 394 172 374 q 544 422 443 414 l 544 463 q 491 624 544 571 q 346 676 438 676 q 195 626 249 676 q 136 493 142 576 l 85 493 q 160 659 92 597 q 346 721 228 721 m 544 304 l 544 378 q 315 350 432 368 q 154 294 201 333 q 107 186 107 254 q 158 73 107 115 q 297 31 210 31 q 476 103 411 31 q 530 186 515 144 q 544 304 544 228 z "},"Ą":{"ha":900,"x_min":8,"x_max":894,"o":"m 844 -224 q 894 -215 874 -224 l 894 -256 q 840 -264 874 -264 q 728 -167 728 -264 q 753 -85 728 -122 q 835 0 778 -47 l 693 347 l 206 347 l 64 0 l 8 0 l 414 989 l 485 989 l 890 0 q 801 -87 826 -51 q 776 -162 776 -124 q 844 -224 776 -224 m 674 396 l 624 518 q 534 736 592 594 q 450 943 476 878 l 449 943 q 365 736 422 878 q 275 518 307 594 l 225 396 l 674 396 z "},"ą":{"ha":706,"x_min":56,"x_max":611,"o":"m 561 -224 q 611 -215 590 -224 l 611 -256 q 557 -264 590 -264 q 444 -167 444 -264 q 471 -83 444 -121 q 558 6 497 -44 q 549 133 549 69 l 547 133 q 289 -14 472 -14 q 119 41 183 -14 q 56 185 56 96 q 114 322 56 271 q 310 394 172 374 q 544 422 443 414 l 544 463 q 491 624 544 571 q 346 676 438 676 q 195 626 249 676 q 136 493 142 576 l 85 493 q 160 659 92 597 q 346 721 228 721 q 526 656 460 721 q 593 458 593 590 l 593 165 q 607 0 593 65 q 518 -87 543 -51 q 493 -162 493 -124 q 561 -224 493 -224 m 544 304 l 544 378 q 315 350 432 368 q 154 294 201 333 q 107 186 107 254 q 158 73 107 115 q 297 31 210 31 q 476 103 411 31 q 530 186 515 144 q 544 304 544 228 z "},"Ć":{"ha":932,"x_min":65,"x_max":858,"o":"m 456 1056 l 404 1056 l 542 1236 l 611 1236 l 456 1056 m 482 1004 q 746 908 647 1004 q 853 664 844 811 l 799 664 q 705 874 789 793 q 482 954 621 954 q 216 831 314 954 q 118 494 118 707 q 215 158 118 282 q 476 35 311 35 q 701 116 613 35 q 804 329 789 197 l 858 329 q 741 79 843 174 q 476 -15 639 -15 q 176 122 286 -15 q 65 494 65 258 q 178 867 65 729 q 482 1004 290 1004 z "},"ć":{"ha":701,"x_min":65,"x_max":643,"o":"m 347 796 l 297 796 l 426 989 l 493 989 l 347 796 m 369 721 q 558 652 483 721 q 643 472 633 583 l 590 472 q 522 619 583 563 q 369 675 461 675 q 184 590 251 675 q 117 353 117 504 q 184 116 117 201 q 369 31 251 31 q 522 90 461 31 q 590 240 582 149 l 643 240 q 558 56 633 126 q 369 -15 483 -15 q 147 83 228 -15 q 65 353 65 181 q 147 623 65 525 q 369 721 228 721 z "},"Ĉ":{"ha":932,"x_min":65,"x_max":858,"o":"m 454 1236 l 510 1236 l 674 1056 l 614 1056 l 482 1200 l 351 1056 l 292 1056 l 454 1236 m 482 1004 q 746 908 647 1004 q 853 664 844 811 l 799 664 q 705 874 789 793 q 482 954 621 954 q 216 831 314 954 q 118 494 118 707 q 215 158 118 282 q 476 35 311 35 q 701 116 613 35 q 804 329 789 197 l 858 329 q 741 79 843 174 q 476 -15 639 -15 q 176 122 286 -15 q 65 494 65 258 q 178 867 65 729 q 482 1004 290 1004 z "},"ĉ":{"ha":701,"x_min":65,"x_max":643,"o":"m 501 796 l 371 953 l 239 796 l 181 796 l 343 989 l 399 989 l 561 796 l 501 796 m 369 721 q 558 652 483 721 q 643 472 633 583 l 590 472 q 522 619 583 563 q 369 675 461 675 q 184 590 251 675 q 117 353 117 504 q 184 116 117 201 q 369 31 251 31 q 522 90 461 31 q 590 240 582 149 l 643 240 q 558 56 633 126 q 369 -15 483 -15 q 147 83 228 -15 q 65 353 65 181 q 147 623 65 525 q 369 721 228 721 z "},"Ċ":{"ha":932,"x_min":65,"x_max":858,"o":"m 507 1068 l 457 1068 l 457 1181 l 507 1181 l 507 1068 m 482 1004 q 746 908 647 1004 q 853 664 844 811 l 799 664 q 705 874 789 793 q 482 954 621 954 q 216 831 314 954 q 118 494 118 707 q 215 158 118 282 q 476 35 311 35 q 701 116 613 35 q 804 329 789 197 l 858 329 q 741 79 843 174 q 476 -15 639 -15 q 176 122 286 -15 q 65 494 65 258 q 178 867 65 729 q 482 1004 290 1004 z "},"ċ":{"ha":701,"x_min":65,"x_max":643,"o":"m 394 876 l 344 876 l 344 989 l 394 989 l 394 876 m 369 721 q 558 652 483 721 q 643 472 633 583 l 590 472 q 522 619 583 563 q 369 675 461 675 q 184 590 251 675 q 117 353 117 504 q 184 116 117 201 q 369 31 251 31 q 522 90 461 31 q 590 240 582 149 l 643 240 q 558 56 633 126 q 369 -15 483 -15 q 147 83 228 -15 q 65 353 65 181 q 147 623 65 525 q 369 721 228 721 z "},"Č":{"ha":932,"x_min":65,"x_max":858,"o":"m 510 1056 l 454 1056 l 292 1236 l 351 1236 l 482 1092 l 614 1236 l 674 1236 l 510 1056 m 482 1004 q 746 908 647 1004 q 853 664 844 811 l 799 664 q 705 874 789 793 q 482 954 621 954 q 216 831 314 954 q 118 494 118 707 q 215 158 118 282 q 476 35 311 35 q 701 116 613 35 q 804 329 789 197 l 858 329 q 741 79 843 174 q 476 -15 639 -15 q 176 122 286 -15 q 65 494 65 258 q 178 867 65 729 q 482 1004 290 1004 z "},"č":{"ha":701,"x_min":65,"x_max":643,"o":"m 399 796 l 343 796 l 181 989 l 239 989 l 371 832 l 501 989 l 561 989 l 399 796 m 369 721 q 558 652 483 721 q 643 472 633 583 l 590 472 q 522 619 583 563 q 369 675 461 675 q 184 590 251 675 q 117 353 117 504 q 184 116 117 201 q 369 31 251 31 q 522 90 461 31 q 590 240 582 149 l 643 240 q 558 56 633 126 q 369 -15 483 -15 q 147 83 228 -15 q 65 353 65 181 q 147 623 65 525 q 369 721 228 721 z "},"Ď":{"ha":989,"x_min":144,"x_max":925,"o":"m 476 1056 l 421 1056 l 258 1236 l 318 1236 l 449 1092 l 581 1236 l 640 1236 l 476 1056 m 144 989 l 422 989 q 794 860 664 989 q 925 494 925 732 q 794 128 925 257 q 422 0 664 0 l 144 0 l 144 989 m 196 940 l 196 49 l 422 49 q 755 164 639 49 q 871 494 871 279 q 755 825 871 710 q 422 940 639 940 l 196 940 z "},"ď":{"ha":769,"x_min":65,"x_max":819,"o":"m 647 0 l 597 0 l 597 151 l 596 151 q 506 30 568 74 q 361 -14 444 -14 q 145 85 225 -14 q 65 353 65 183 q 145 622 65 524 q 361 721 225 721 q 506 677 444 721 q 596 556 568 633 l 597 556 l 597 989 l 647 989 l 647 0 m 751 746 l 715 746 l 765 989 l 819 989 l 751 746 m 365 676 q 183 590 250 676 q 117 353 117 503 q 183 117 117 204 q 365 31 250 31 q 537 117 474 31 q 600 353 600 204 q 537 590 600 503 q 365 676 474 676 z "},"Đ":{"ha":989,"x_min":57,"x_max":925,"o":"m 144 989 l 422 989 q 794 860 664 989 q 925 494 925 732 q 794 128 925 257 q 422 0 664 0 l 144 0 l 144 478 l 57 478 l 57 524 l 144 524 l 144 989 m 196 49 l 422 49 q 755 164 639 49 q 871 494 871 279 q 755 825 871 710 q 422 940 639 940 l 196 940 l 196 524 l 529 524 l 529 478 l 196 478 l 196 49 z "},"đ":{"ha":765,"x_min":65,"x_max":731,"o":"m 731 819 l 647 819 l 647 0 l 597 0 l 597 151 l 596 151 q 506 30 568 74 q 361 -14 444 -14 q 145 85 225 -14 q 65 353 65 183 q 145 622 65 524 q 361 721 225 721 q 506 677 444 721 q 596 556 568 633 l 597 556 l 597 819 l 393 819 l 393 861 l 597 861 l 597 989 l 647 989 l 647 861 l 731 861 l 731 819 m 365 31 q 537 117 474 31 q 600 353 600 204 q 537 590 600 503 q 365 676 474 676 q 183 590 250 676 q 117 353 117 503 q 183 117 117 204 q 365 31 250 31 z "},"Ē":{"ha":829,"x_min":144,"x_max":750,"o":"m 606 1108 l 269 1108 l 269 1153 l 606 1153 l 606 1108 m 732 940 l 196 940 l 196 532 l 707 532 l 707 483 l 196 483 l 196 49 l 750 49 l 750 0 l 144 0 l 144 989 l 732 989 l 732 940 z "},"ē":{"ha":731,"x_min":65,"x_max":665,"o":"m 532 885 l 196 885 l 196 929 l 532 929 l 532 885 m 375 29 q 530 78 468 29 q 606 208 592 126 l 658 208 q 567 47 642 110 q 375 -15 492 -15 q 149 88 232 -15 q 65 367 65 192 q 147 624 65 526 q 367 721 228 721 q 559 653 482 721 q 657 467 636 585 q 665 349 665 425 l 115 349 q 188 114 117 199 q 375 29 258 29 m 367 676 q 188 599 254 676 q 115 393 121 522 l 617 393 q 544 601 613 526 q 367 676 476 676 z "},"Ĕ":{"ha":829,"x_min":144,"x_max":750,"o":"m 593 1236 l 638 1236 q 577 1101 629 1149 q 438 1053 525 1053 q 298 1101 350 1053 q 238 1236 246 1149 l 282 1236 q 438 1096 299 1096 q 593 1236 576 1096 m 732 940 l 196 940 l 196 532 l 707 532 l 707 483 l 196 483 l 196 49 l 750 49 l 750 0 l 144 0 l 144 989 l 732 989 l 732 940 z "},"ĕ":{"ha":731,"x_min":65,"x_max":665,"o":"m 503 853 q 477 830 503 853 q 364 806 451 806 q 224 853 276 806 q 164 989 172 901 l 208 989 q 364 849 225 849 q 519 989 503 849 l 564 989 q 503 853 556 901 m 375 29 q 530 78 468 29 q 606 208 592 126 l 658 208 q 567 47 642 110 q 375 -15 492 -15 q 149 88 232 -15 q 65 367 65 192 q 147 624 65 526 q 367 721 228 721 q 559 653 482 721 q 657 467 636 585 q 665 349 665 425 l 115 349 q 188 114 117 199 q 375 29 258 29 m 367 676 q 188 599 254 676 q 115 393 121 522 l 617 393 q 544 601 613 526 q 367 676 476 676 z "},"Ė":{"ha":829,"x_min":144,"x_max":750,"o":"m 463 1068 l 413 1068 l 413 1181 l 463 1181 l 463 1068 m 732 940 l 196 940 l 196 532 l 707 532 l 707 483 l 196 483 l 196 49 l 750 49 l 750 0 l 144 0 l 144 989 l 732 989 l 732 940 z "},"ė":{"ha":731,"x_min":65,"x_max":665,"o":"m 389 876 l 339 876 l 339 989 l 389 989 l 389 876 m 375 29 q 530 78 468 29 q 606 208 592 126 l 658 208 q 567 47 642 110 q 375 -15 492 -15 q 149 88 232 -15 q 65 367 65 192 q 147 624 65 526 q 367 721 228 721 q 559 653 482 721 q 657 467 636 585 q 665 349 665 425 l 115 349 q 188 114 117 199 q 375 29 258 29 m 367 676 q 188 599 254 676 q 115 393 121 522 l 617 393 q 544 601 613 526 q 367 676 476 676 z "},"Ę":{"ha":829,"x_min":144,"x_max":754,"o":"m 704 -224 q 754 -215 733 -224 l 754 -256 q 700 -264 733 -264 q 588 -167 588 -264 q 613 -85 588 -122 q 694 0 638 -47 l 144 0 l 144 989 l 732 989 l 732 940 l 196 940 l 196 532 l 707 532 l 707 483 l 196 483 l 196 49 l 750 49 l 750 0 q 661 -87 686 -51 q 636 -162 636 -124 q 704 -224 636 -224 z "},"ę":{"ha":731,"x_min":65,"x_max":665,"o":"m 375 29 q 530 78 468 29 q 606 208 592 126 l 658 208 q 554 33 642 108 q 457 -71 485 -28 q 429 -160 429 -114 q 499 -224 429 -224 q 549 -215 526 -224 l 549 -256 q 493 -264 528 -264 q 382 -167 382 -264 q 465 -4 382 -83 l 465 -1 q 375 -15 425 -15 q 149 88 232 -15 q 65 367 65 192 q 147 624 65 526 q 367 721 228 721 q 559 653 482 721 q 657 467 636 585 q 665 349 665 425 l 115 349 q 188 114 117 199 q 375 29 258 29 m 367 676 q 188 599 254 676 q 115 393 121 522 l 617 393 q 544 601 613 526 q 367 676 476 676 z "},"Ě":{"ha":829,"x_min":144,"x_max":750,"o":"m 465 1056 l 410 1056 l 247 1236 l 307 1236 l 438 1092 l 569 1236 l 629 1236 l 465 1056 m 732 940 l 196 940 l 196 532 l 707 532 l 707 483 l 196 483 l 196 49 l 750 49 l 750 0 l 144 0 l 144 989 l 732 989 l 732 940 z "},"ě":{"ha":731,"x_min":65,"x_max":665,"o":"m 338 796 l 175 989 l 233 989 l 365 832 l 496 989 l 556 989 l 393 796 l 338 796 m 375 29 q 530 78 468 29 q 606 208 592 126 l 658 208 q 567 47 642 110 q 375 -15 492 -15 q 149 88 232 -15 q 65 367 65 192 q 147 624 65 526 q 367 721 228 721 q 559 653 482 721 q 657 467 636 585 q 665 349 665 425 l 115 349 q 188 114 117 199 q 375 29 258 29 m 367 676 q 188 599 254 676 q 115 393 121 522 l 617 393 q 544 601 613 526 q 367 676 476 676 z "},"Ĝ":{"ha":986,"x_min":65,"x_max":865,"o":"m 457 1236 l 513 1236 l 676 1056 l 617 1056 l 485 1200 l 354 1056 l 294 1056 l 457 1236 m 494 1004 q 752 922 654 1004 q 863 701 850 839 l 808 701 q 711 886 793 818 q 494 954 629 954 q 219 831 319 954 q 118 490 118 707 q 214 156 118 276 q 478 35 310 35 q 606 57 547 35 q 713 126 664 79 q 788 256 761 172 q 815 454 815 340 l 503 454 l 503 503 l 865 503 l 865 0 l 815 0 l 815 221 l 814 221 q 691 49 782 113 q 474 -15 600 -15 q 174 120 283 -15 q 65 490 65 256 q 180 867 65 729 q 494 1004 294 1004 z "},"ĝ":{"ha":769,"x_min":65,"x_max":647,"o":"m 501 796 l 371 953 l 239 796 l 181 796 l 343 989 l 399 989 l 561 796 l 501 796 m 363 721 q 596 557 529 721 l 597 557 l 597 706 l 647 706 l 647 43 q 363 -264 647 -264 q 165 -206 238 -264 q 93 -44 93 -147 l 143 -44 q 203 -174 144 -128 q 363 -219 263 -219 q 597 44 597 -219 l 597 172 l 596 172 q 363 8 529 8 q 145 104 225 8 q 65 364 65 200 q 145 625 65 529 q 363 721 225 721 m 363 676 q 183 592 249 676 q 117 364 117 508 q 183 137 117 221 q 363 53 249 53 q 537 136 474 53 q 600 364 600 219 q 537 593 600 510 q 363 676 474 676 z "},"Ğ":{"ha":986,"x_min":65,"x_max":865,"o":"m 640 1236 l 685 1236 q 624 1101 676 1149 q 485 1053 572 1053 q 345 1101 397 1053 q 285 1236 293 1149 l 329 1236 q 485 1096 346 1096 q 640 1236 624 1096 m 494 1004 q 752 922 654 1004 q 863 701 850 839 l 808 701 q 711 886 793 818 q 494 954 629 954 q 219 831 319 954 q 118 490 118 707 q 214 156 118 276 q 478 35 310 35 q 606 57 547 35 q 713 126 664 79 q 788 256 761 172 q 815 454 815 340 l 503 454 l 503 503 l 865 503 l 865 0 l 815 0 l 815 221 l 814 221 q 691 49 782 113 q 474 -15 600 -15 q 174 120 283 -15 q 65 490 65 256 q 180 867 65 729 q 494 1004 294 1004 z "},"ğ":{"ha":769,"x_min":65,"x_max":647,"o":"m 526 989 l 571 989 q 510 853 563 901 q 371 806 458 806 q 231 853 283 806 q 171 989 179 901 l 215 989 q 371 849 232 849 q 526 989 510 849 m 363 721 q 596 557 529 721 l 597 557 l 597 706 l 647 706 l 647 43 q 363 -264 647 -264 q 165 -206 238 -264 q 93 -44 93 -147 l 143 -44 q 203 -174 144 -128 q 363 -219 263 -219 q 597 44 597 -219 l 597 172 l 596 172 q 363 8 529 8 q 145 104 225 8 q 65 364 65 200 q 145 625 65 529 q 363 721 225 721 m 363 676 q 183 592 249 676 q 117 364 117 508 q 183 137 117 221 q 363 53 249 53 q 537 136 474 53 q 600 364 600 219 q 537 593 600 510 q 363 676 474 676 z "},"Ġ":{"ha":986,"x_min":65,"x_max":865,"o":"m 510 1068 l 460 1068 l 460 1181 l 510 1181 l 510 1068 m 494 1004 q 752 922 654 1004 q 863 701 850 839 l 808 701 q 711 886 793 818 q 494 954 629 954 q 219 831 319 954 q 118 490 118 707 q 214 156 118 276 q 478 35 310 35 q 606 57 547 35 q 713 126 664 79 q 788 256 761 172 q 815 454 815 340 l 503 454 l 503 503 l 865 503 l 865 0 l 815 0 l 815 221 l 814 221 q 691 49 782 113 q 474 -15 600 -15 q 174 120 283 -15 q 65 490 65 256 q 180 867 65 729 q 494 1004 294 1004 z "},"ġ":{"ha":769,"x_min":65,"x_max":647,"o":"m 396 876 l 346 876 l 346 989 l 396 989 l 396 876 m 363 721 q 596 557 529 721 l 597 557 l 597 706 l 647 706 l 647 43 q 363 -264 647 -264 q 165 -206 238 -264 q 93 -44 93 -147 l 143 -44 q 203 -174 144 -128 q 363 -219 263 -219 q 597 44 597 -219 l 597 172 l 596 172 q 363 8 529 8 q 145 104 225 8 q 65 364 65 200 q 145 625 65 529 q 363 721 225 721 m 363 676 q 183 592 249 676 q 117 364 117 508 q 183 137 117 221 q 363 53 249 53 q 537 136 474 53 q 600 364 600 219 q 537 593 600 510 q 363 676 474 676 z "},"Ģ":{"ha":986,"x_min":65,"x_max":865,"o":"m 494 1004 q 752 922 654 1004 q 863 701 850 839 l 808 701 q 711 886 793 818 q 494 954 629 954 q 219 831 319 954 q 118 490 118 707 q 214 156 118 276 q 478 35 310 35 q 606 57 547 35 q 713 126 664 79 q 788 256 761 172 q 815 454 815 340 l 503 454 l 503 503 l 865 503 l 865 0 l 815 0 l 815 221 l 814 221 q 691 49 782 113 q 474 -15 600 -15 q 174 120 283 -15 q 65 490 65 256 q 180 867 65 729 q 494 1004 294 1004 m 513 -203 l 458 -339 l 431 -339 l 474 -203 l 456 -203 l 456 -103 l 513 -103 l 513 -203 z "},"ģ":{"ha":769,"x_min":65,"x_max":647,"o":"m 368 915 l 386 915 l 386 815 l 329 815 l 329 915 l 383 1051 l 411 1051 l 368 915 m 363 721 q 596 557 529 721 l 597 557 l 597 706 l 647 706 l 647 43 q 363 -264 647 -264 q 165 -206 238 -264 q 93 -44 93 -147 l 143 -44 q 203 -174 144 -128 q 363 -219 263 -219 q 597 44 597 -219 l 597 172 l 596 172 q 363 8 529 8 q 145 104 225 8 q 65 364 65 200 q 145 625 65 529 q 363 721 225 721 m 363 676 q 183 592 249 676 q 117 364 117 508 q 183 137 117 221 q 363 53 249 53 q 537 136 474 53 q 600 364 600 219 q 537 593 600 510 q 363 676 474 676 z "},"Ĥ":{"ha":996,"x_min":144,"x_max":853,"o":"m 471 1236 l 526 1236 l 690 1056 l 631 1056 l 499 1200 l 368 1056 l 308 1056 l 471 1236 m 853 0 l 800 0 l 800 489 l 196 489 l 196 0 l 144 0 l 144 989 l 196 989 l 196 538 l 800 538 l 800 989 l 853 989 l 853 0 z "},"ĥ":{"ha":763,"x_min":122,"x_max":650,"o":"m 354 1236 l 410 1236 l 574 1056 l 514 1056 l 382 1200 l 251 1056 l 192 1056 l 354 1236 m 172 579 l 174 579 q 269 683 207 646 q 404 719 331 719 q 586 647 522 719 q 650 429 650 574 l 650 0 l 600 0 l 600 428 q 399 675 600 675 q 238 608 304 675 q 172 432 172 542 l 172 0 l 122 0 l 122 989 l 172 989 l 172 579 z "},"Ħ":{"ha":996,"x_min":61,"x_max":936,"o":"m 936 815 l 853 815 l 853 0 l 800 0 l 800 489 l 196 489 l 196 0 l 144 0 l 144 815 l 61 815 l 61 861 l 144 861 l 144 989 l 196 989 l 196 861 l 800 861 l 800 989 l 853 989 l 853 861 l 936 861 l 936 815 m 800 815 l 196 815 l 196 538 l 800 538 l 800 815 z "},"ħ":{"ha":763,"x_min":35,"x_max":650,"o":"m 404 719 q 586 647 522 719 q 650 429 650 574 l 650 0 l 600 0 l 600 428 q 399 675 600 675 q 238 608 304 675 q 172 432 172 542 l 172 0 l 122 0 l 122 819 l 35 819 l 35 861 l 122 861 l 122 989 l 172 989 l 172 861 l 371 861 l 371 819 l 172 819 l 172 579 l 174 579 q 269 683 207 646 q 404 719 331 719 z "},"Ĩ":{"ha":340,"x_min":-43,"x_max":383,"o":"m 340 1222 l 383 1222 q 349 1128 379 1161 q 272 1094 319 1094 q 165 1136 229 1094 q 68 1178 101 1178 q 0 1094 7 1178 l -43 1094 q -9 1189 -39 1156 q 68 1222 21 1222 q 175 1181 111 1222 q 271 1139 239 1139 q 340 1222 333 1139 m 196 0 l 144 0 l 144 989 l 196 989 l 196 0 z "},"ĩ":{"ha":293,"x_min":-39,"x_max":332,"o":"m 292 975 l 332 975 q 301 881 329 914 q 229 847 274 847 q 140 889 192 847 q 63 931 89 931 q 1 847 7 931 l -39 847 q -9 942 -36 908 q 63 975 18 975 q 151 933 100 975 q 229 892 203 892 q 292 975 286 892 m 172 0 l 122 0 l 122 706 l 172 706 l 172 0 z "},"Ī":{"ha":340,"x_min":1,"x_max":338,"o":"m 338 1108 l 1 1108 l 1 1153 l 338 1153 l 338 1108 m 196 0 l 144 0 l 144 989 l 196 989 l 196 0 z "},"ī":{"ha":293,"x_min":0,"x_max":294,"o":"m 294 885 l 0 885 l 0 929 l 294 929 l 294 885 m 172 0 l 122 0 l 122 706 l 172 706 l 172 0 z "},"Ĭ":{"ha":340,"x_min":-31,"x_max":369,"o":"m 325 1236 l 369 1236 q 310 1101 361 1149 q 169 1053 258 1053 q 29 1101 81 1053 q -31 1236 -22 1149 l 14 1236 q 169 1096 31 1096 q 325 1236 308 1096 m 196 0 l 144 0 l 144 989 l 196 989 l 196 0 z "},"ĭ":{"ha":293,"x_min":-24,"x_max":317,"o":"m 272 989 l 317 989 q 267 853 311 901 q 146 806 224 806 q 26 853 69 806 q -24 989 -18 901 l 21 989 q 146 849 32 849 q 272 989 261 849 m 172 0 l 122 0 l 122 706 l 172 706 l 172 0 z "},"Į":{"ha":340,"x_min":33,"x_max":200,"o":"m 150 -224 q 200 -215 179 -224 l 200 -256 q 146 -264 179 -264 q 33 -167 33 -264 q 59 -83 33 -122 q 144 4 85 -44 l 144 989 l 196 989 l 196 0 q 107 -87 132 -51 q 82 -162 82 -124 q 150 -224 82 -224 z "},"į":{"ha":293,"x_min":10,"x_max":176,"o":"m 172 876 l 122 876 l 122 989 l 172 989 l 172 876 m 126 -224 q 176 -215 156 -224 l 176 -256 q 122 -264 156 -264 q 10 -167 10 -264 q 35 -83 10 -122 q 122 4 61 -44 l 122 706 l 172 706 l 172 0 q 83 -87 108 -51 q 58 -162 58 -124 q 126 -224 58 -224 z "},"İ":{"ha":340,"x_min":144,"x_max":196,"o":"m 194 1068 l 144 1068 l 144 1181 l 194 1181 l 194 1068 m 196 0 l 144 0 l 144 989 l 196 989 l 196 0 z "},"ı":{"ha":293,"x_min":122,"x_max":172,"o":"m 172 0 l 122 0 l 122 706 l 172 706 l 172 0 z "},"Ĳ":{"ha":782,"x_min":144,"x_max":646,"o":"m 196 0 l 144 0 l 144 989 l 196 989 l 196 0 m 646 989 l 646 251 q 586 60 646 125 q 417 -6 526 -6 q 361 1 385 -6 l 361 51 q 417 44 393 44 q 593 251 593 44 l 593 989 l 646 989 z "},"ĳ":{"ha":599,"x_min":122,"x_max":478,"o":"m 172 876 l 122 876 l 122 989 l 172 989 l 172 876 m 478 876 l 428 876 l 428 989 l 478 989 l 478 876 m 172 0 l 122 0 l 122 706 l 172 706 l 172 0 m 478 706 l 478 -61 q 435 -215 478 -168 q 311 -261 392 -261 q 276 -257 292 -261 l 276 -211 q 308 -214 296 -214 q 398 -180 368 -214 q 428 -61 428 -146 l 428 706 l 478 706 z "},"Ĵ":{"ha":442,"x_min":21,"x_max":471,"o":"m 251 1236 l 307 1236 l 471 1056 l 411 1056 l 279 1200 l 149 1056 l 89 1056 l 251 1236 m 306 989 l 306 251 q 246 60 306 125 q 76 -6 186 -6 q 21 1 44 -6 l 21 51 q 76 44 53 44 q 253 251 253 44 l 253 989 l 306 989 z "},"ĵ":{"ha":306,"x_min":-17,"x_max":324,"o":"m 324 797 l 267 797 l 160 953 l 53 797 l -6 797 l 129 989 l 189 989 l 324 797 m 185 706 l 185 -61 q 142 -215 185 -168 q 18 -261 99 -261 q -17 -257 -1 -261 l -17 -211 q 15 -214 3 -214 q 105 -180 75 -214 q 135 -61 135 -146 l 135 706 l 185 706 z "},"Ķ":{"ha":788,"x_min":144,"x_max":781,"o":"m 256 518 l 781 0 l 706 0 l 197 504 l 196 504 l 196 0 l 144 0 l 144 989 l 196 989 l 196 532 l 197 532 l 663 989 l 736 989 l 256 518 m 468 -203 l 414 -339 l 386 -339 l 429 -203 l 411 -203 l 411 -103 l 468 -103 l 468 -203 z "},"ķ":{"ha":635,"x_min":122,"x_max":642,"o":"m 642 0 l 569 0 l 174 372 l 172 372 l 172 0 l 122 0 l 122 989 l 172 989 l 172 400 l 174 400 l 529 706 l 601 706 l 228 388 l 642 0 m 326 -103 l 383 -103 l 383 -203 l 329 -339 l 301 -339 l 344 -203 l 326 -203 l 326 -103 z "},"ĸ":{"ha":656,"x_min":122,"x_max":642,"o":"m 642 0 l 569 0 l 174 372 l 172 372 l 172 0 l 122 0 l 122 706 l 172 706 l 172 400 l 174 400 l 529 706 l 601 706 l 228 388 l 642 0 z "},"Ĺ":{"ha":747,"x_min":143,"x_max":738,"o":"m 194 1056 l 143 1056 l 281 1236 l 350 1236 l 194 1056 m 196 49 l 738 49 l 738 0 l 144 0 l 144 989 l 196 989 l 196 49 z "},"ĺ":{"ha":293,"x_min":117,"x_max":313,"o":"m 167 1079 l 117 1079 l 246 1272 l 313 1272 l 167 1079 m 172 0 l 122 0 l 122 989 l 172 989 l 172 0 z "},"Ļ":{"ha":747,"x_min":144,"x_max":738,"o":"m 196 49 l 738 49 l 738 0 l 144 0 l 144 989 l 196 989 l 196 49 m 469 -203 l 415 -339 l 388 -339 l 431 -203 l 413 -203 l 413 -103 l 469 -103 l 469 -203 z "},"ļ":{"ha":293,"x_min":93,"x_max":175,"o":"m 172 0 l 122 0 l 122 989 l 172 989 l 172 0 m 175 -203 l 121 -339 l 93 -339 l 136 -203 l 118 -203 l 118 -103 l 175 -103 l 175 -203 z "},"Ľ":{"ha":747,"x_min":144,"x_max":738,"o":"m 196 49 l 738 49 l 738 0 l 144 0 l 144 989 l 196 989 l 196 49 m 336 692 l 300 692 l 350 989 l 404 989 l 336 692 z "},"ľ":{"ha":293,"x_min":122,"x_max":346,"o":"m 172 0 l 122 0 l 122 989 l 172 989 l 172 0 m 278 746 l 242 746 l 292 989 l 346 989 l 278 746 z "},"Ŀ":{"ha":858,"x_min":144,"x_max":738,"o":"m 196 49 l 738 49 l 738 0 l 144 0 l 144 989 l 196 989 l 196 49 m 635 494 l 567 494 l 567 604 l 635 604 l 635 494 z "},"ŀ":{"ha":451,"x_min":122,"x_max":407,"o":"m 172 0 l 122 0 l 122 989 l 172 989 l 172 0 m 407 438 l 339 438 l 339 547 l 407 547 l 407 438 z "},"Ł":{"ha":747,"x_min":29,"x_max":738,"o":"m 738 49 l 738 0 l 144 0 l 144 443 l 29 375 l 29 428 l 144 496 l 144 989 l 196 989 l 196 521 l 417 653 l 417 600 l 196 468 l 196 49 l 738 49 z "},"ł":{"ha":342,"x_min":14,"x_max":328,"o":"m 328 638 l 196 558 l 196 0 l 146 0 l 146 533 l 14 454 l 14 504 l 146 583 l 146 989 l 196 989 l 196 608 l 328 688 l 328 638 z "},"Ń":{"ha":1014,"x_min":144,"x_max":871,"o":"m 481 1056 l 429 1056 l 567 1236 l 636 1236 l 481 1056 m 871 0 l 789 0 l 504 453 l 197 938 l 196 938 l 196 419 l 196 0 l 144 0 l 144 989 l 225 989 l 510 536 l 817 51 l 818 51 l 818 569 l 818 989 l 871 989 l 871 0 z "},"ń":{"ha":763,"x_min":122,"x_max":650,"o":"m 361 796 l 311 796 l 440 989 l 507 989 l 361 796 m 404 719 q 586 647 522 719 q 650 429 650 574 l 650 0 l 600 0 l 600 428 q 399 675 600 675 q 238 608 304 675 q 172 432 172 542 l 172 0 l 122 0 l 122 706 l 172 706 l 172 579 l 174 579 q 266 682 204 644 q 404 719 328 719 z "},"Ņ":{"ha":1014,"x_min":144,"x_max":871,"o":"m 871 0 l 789 0 l 504 453 l 197 938 l 196 938 l 196 419 l 196 0 l 144 0 l 144 989 l 225 989 l 510 536 l 817 51 l 818 51 l 818 569 l 818 989 l 871 989 l 871 0 m 536 -203 l 482 -339 l 454 -339 l 497 -203 l 479 -203 l 479 -103 l 536 -103 l 536 -203 z "},"ņ":{"ha":763,"x_min":122,"x_max":650,"o":"m 404 719 q 586 647 522 719 q 650 429 650 574 l 650 0 l 600 0 l 600 428 q 399 675 600 675 q 238 608 304 675 q 172 432 172 542 l 172 0 l 122 0 l 122 706 l 172 706 l 172 579 l 174 579 q 266 682 204 644 q 404 719 328 719 m 411 -203 l 357 -339 l 329 -339 l 372 -203 l 354 -203 l 354 -103 l 411 -103 l 411 -203 z "},"Ň":{"ha":1014,"x_min":144,"x_max":871,"o":"m 535 1056 l 479 1056 l 317 1236 l 376 1236 l 507 1092 l 639 1236 l 699 1236 l 535 1056 m 871 0 l 789 0 l 504 453 l 197 938 l 196 938 l 196 419 l 196 0 l 144 0 l 144 989 l 225 989 l 510 536 l 817 51 l 818 51 l 818 569 l 818 989 l 871 989 l 871 0 z "},"ň":{"ha":763,"x_min":122,"x_max":650,"o":"m 411 796 l 356 796 l 193 989 l 251 989 l 383 832 l 514 989 l 574 989 l 411 796 m 404 719 q 586 647 522 719 q 650 429 650 574 l 650 0 l 600 0 l 600 428 q 399 675 600 675 q 238 608 304 675 q 172 432 172 542 l 172 0 l 122 0 l 122 706 l 172 706 l 172 579 l 174 579 q 266 682 204 644 q 404 719 328 719 z "},"ŉ":{"ha":858,"x_min":83,"x_max":746,"o":"m 172 879 l 121 703 l 83 703 l 125 879 l 107 879 l 107 989 l 172 989 l 172 879 m 501 719 q 683 647 619 719 q 746 429 746 574 l 746 0 l 696 0 l 696 428 q 494 675 696 675 q 334 608 400 675 q 268 432 268 542 l 268 0 l 218 0 l 218 706 l 268 706 l 268 579 l 269 579 q 362 682 300 644 q 501 719 424 719 z "},"Ŋ":{"ha":1014,"x_min":144,"x_max":871,"o":"m 871 989 l 871 -67 q 703 -261 871 -261 q 667 -257 683 -261 l 667 -211 q 700 -214 689 -214 q 789 -181 760 -214 q 818 -67 818 -149 l 818 0 l 501 479 q 406 622 457 546 q 293 792 356 699 q 197 938 231 886 l 196 938 l 196 438 l 196 0 l 144 0 l 144 989 l 225 989 l 513 553 q 665 324 564 476 q 817 96 767 171 l 818 96 l 818 594 l 818 989 l 871 989 z "},"ŋ":{"ha":763,"x_min":122,"x_max":650,"o":"m 404 719 q 585 647 517 719 q 650 417 650 575 l 650 -67 q 607 -216 650 -171 q 483 -261 564 -261 q 449 -257 465 -261 l 449 -211 q 481 -214 468 -214 q 570 -181 540 -214 q 600 -67 600 -149 l 600 415 q 547 614 600 556 q 399 675 493 675 q 238 608 304 675 q 172 432 172 542 l 172 0 l 122 0 l 122 706 l 172 706 l 172 579 l 174 579 q 269 683 207 646 q 404 719 331 719 z "},"Ō":{"ha":989,"x_min":65,"x_max":924,"o":"m 663 1108 l 326 1108 l 326 1153 l 663 1153 l 663 1108 m 181 866 q 239 935 181 866 q 494 1004 297 1004 q 808 866 692 1004 q 924 494 924 728 q 808 123 924 261 q 494 -15 692 -15 q 181 123 297 -15 q 65 494 65 261 q 181 866 65 728 m 768 830 q 717 892 768 830 q 494 954 667 954 q 220 829 322 954 q 118 494 118 704 q 220 160 118 285 q 494 35 322 35 q 768 159 667 35 q 869 494 869 283 q 768 830 869 706 z "},"ō":{"ha":749,"x_min":65,"x_max":683,"o":"m 542 885 l 206 885 l 206 929 l 542 929 l 542 885 m 147 623 q 188 672 147 623 q 374 721 229 721 q 601 623 518 721 q 683 353 683 525 q 601 83 683 181 q 374 -15 518 -15 q 147 83 229 -15 q 65 353 65 181 q 147 623 65 525 m 374 675 q 185 590 253 675 q 117 353 117 504 q 185 116 117 201 q 374 31 253 31 q 564 116 496 31 q 632 353 632 201 q 564 590 632 504 q 374 675 496 675 z "},"Ŏ":{"ha":989,"x_min":65,"x_max":924,"o":"m 650 1236 l 694 1236 q 635 1101 686 1149 q 494 1053 583 1053 q 354 1101 406 1053 q 294 1236 303 1149 l 339 1236 q 494 1096 356 1096 q 650 1236 633 1096 m 181 866 q 239 935 181 866 q 494 1004 297 1004 q 808 866 692 1004 q 924 494 924 728 q 808 123 924 261 q 494 -15 692 -15 q 181 123 297 -15 q 65 494 65 261 q 181 866 65 728 m 768 830 q 717 892 768 830 q 494 954 667 954 q 220 829 322 954 q 118 494 118 704 q 220 160 118 285 q 494 35 322 35 q 768 159 667 35 q 869 494 869 283 q 768 830 869 706 z "},"ŏ":{"ha":749,"x_min":65,"x_max":683,"o":"m 529 989 l 574 989 q 513 853 565 901 q 374 806 461 806 q 234 853 286 806 q 174 989 182 901 l 218 989 q 374 849 235 849 q 529 989 513 849 m 147 623 q 188 672 147 623 q 374 721 229 721 q 601 623 518 721 q 683 353 683 525 q 601 83 683 181 q 374 -15 518 -15 q 147 83 229 -15 q 65 353 65 181 q 147 623 65 525 m 374 675 q 185 590 253 675 q 117 353 117 504 q 185 116 117 201 q 374 31 253 31 q 564 116 496 31 q 632 353 632 201 q 564 590 632 504 q 374 675 496 675 z "},"Ő":{"ha":989,"x_min":65,"x_max":924,"o":"m 404 1051 l 354 1051 l 517 1236 l 585 1236 l 404 1051 m 571 1051 l 521 1051 l 683 1236 l 750 1236 l 571 1051 m 181 866 q 239 935 181 866 q 494 1004 297 1004 q 808 866 692 1004 q 924 494 924 728 q 808 123 924 261 q 494 -15 692 -15 q 181 123 297 -15 q 65 494 65 261 q 181 866 65 728 m 768 830 q 717 892 768 830 q 494 954 667 954 q 220 829 322 954 q 118 494 118 704 q 220 160 118 285 q 494 35 322 35 q 768 159 667 35 q 869 494 869 283 q 768 830 869 706 z "},"ő":{"ha":749,"x_min":65,"x_max":683,"o":"m 283 796 l 233 796 l 396 989 l 464 989 l 283 796 m 450 796 l 400 796 l 563 989 l 629 989 l 450 796 m 147 623 q 188 672 147 623 q 374 721 229 721 q 601 623 518 721 q 683 353 683 525 q 601 83 683 181 q 374 -15 518 -15 q 147 83 229 -15 q 65 353 65 181 q 147 623 65 525 m 374 675 q 185 590 253 675 q 117 353 117 504 q 185 116 117 201 q 374 31 253 31 q 564 116 496 31 q 632 353 632 201 q 564 590 632 504 q 374 675 496 675 z "},"Œ":{"ha":1353,"x_min":65,"x_max":1274,"o":"m 1256 940 l 719 940 l 719 532 l 1231 532 l 1231 483 l 719 483 l 719 49 l 1274 49 l 1274 0 l 551 0 q 192 128 318 0 q 65 494 65 257 q 192 860 65 732 q 551 989 318 989 l 1256 989 l 1256 940 m 668 940 l 551 940 q 231 824 343 940 q 118 494 118 708 q 231 165 118 281 q 551 49 343 49 l 668 49 l 668 940 z "},"œ":{"ha":1201,"x_min":65,"x_max":1138,"o":"m 867 29 q 1008 78 953 29 q 1078 208 1064 126 l 1129 208 q 1046 47 1115 110 q 867 -15 976 -15 q 705 41 772 -15 q 607 199 638 97 q 512 40 579 96 q 349 -15 444 -15 q 141 83 217 -15 q 65 353 65 181 q 141 623 65 525 q 349 721 217 721 q 509 667 443 721 q 604 515 575 614 q 699 667 633 613 q 858 721 765 721 q 1037 652 964 721 q 1129 467 1110 583 q 1138 349 1138 414 l 628 349 q 694 114 629 199 q 867 29 760 29 m 858 676 q 694 599 756 676 q 628 393 632 522 l 1089 393 q 1022 601 1085 526 q 858 676 958 676 m 178 117 q 209 74 178 117 q 349 31 240 31 q 520 117 457 31 q 583 353 583 203 q 520 589 583 503 q 349 675 457 675 q 178 589 240 675 q 117 353 117 503 q 178 117 117 203 z "},"Ŕ":{"ha":843,"x_min":144,"x_max":800,"o":"m 392 1056 l 340 1056 l 478 1236 l 547 1236 l 392 1056 m 144 989 l 415 989 q 661 922 579 989 q 743 733 743 856 q 688 565 743 632 q 539 482 632 499 l 539 479 q 627 426 594 465 q 693 294 660 388 l 800 0 l 743 0 l 642 285 q 563 421 607 383 q 429 458 518 458 l 196 458 l 196 0 l 144 0 l 144 989 m 196 940 l 196 507 l 429 507 q 625 569 560 507 q 690 733 690 632 q 621 887 690 833 q 415 940 551 940 l 196 940 z "},"ŕ":{"ha":460,"x_min":122,"x_max":442,"o":"m 253 796 l 203 796 l 332 989 l 399 989 l 253 796 m 400 710 q 442 706 422 710 l 442 657 q 401 660 419 660 q 233 591 294 660 q 172 392 172 522 l 172 0 l 122 0 l 122 706 l 172 706 l 172 568 l 174 568 q 400 710 239 710 z "},"Ŗ":{"ha":843,"x_min":144,"x_max":800,"o":"m 144 989 l 415 989 q 661 922 579 989 q 743 733 743 856 q 688 565 743 632 q 539 482 632 499 l 539 479 q 627 426 594 465 q 693 294 660 388 l 800 0 l 743 0 l 642 285 q 563 421 607 383 q 429 458 518 458 l 196 458 l 196 0 l 144 0 l 144 989 m 196 940 l 196 507 l 429 507 q 625 569 560 507 q 690 733 690 632 q 621 887 690 833 q 415 940 551 940 l 196 940 m 485 -203 l 431 -339 l 403 -339 l 446 -203 l 428 -203 l 428 -103 l 485 -103 l 485 -203 z "},"ŗ":{"ha":460,"x_min":93,"x_max":442,"o":"m 400 710 q 442 706 422 710 l 442 657 q 401 660 419 660 q 233 591 294 660 q 172 392 172 522 l 172 0 l 122 0 l 122 706 l 172 706 l 172 568 l 174 568 q 400 710 239 710 m 175 -203 l 121 -339 l 93 -339 l 136 -203 l 118 -203 l 118 -103 l 175 -103 l 175 -203 z "},"Ř":{"ha":843,"x_min":144,"x_max":800,"o":"m 446 1056 l 390 1056 l 228 1236 l 288 1236 l 418 1092 l 550 1236 l 610 1236 l 446 1056 m 144 989 l 415 989 q 661 922 579 989 q 743 733 743 856 q 688 565 743 632 q 539 482 632 499 l 539 479 q 627 426 594 465 q 693 294 660 388 l 800 0 l 743 0 l 642 285 q 563 421 607 383 q 429 458 518 458 l 196 458 l 196 0 l 144 0 l 144 989 m 196 940 l 196 507 l 429 507 q 625 569 560 507 q 690 733 690 632 q 621 887 690 833 q 415 940 551 940 l 196 940 z "},"ř":{"ha":460,"x_min":86,"x_max":467,"o":"m 304 796 l 249 796 l 86 989 l 144 989 l 276 832 l 407 989 l 467 989 l 304 796 m 400 710 q 442 706 422 710 l 442 657 q 401 660 419 660 q 233 591 294 660 q 172 392 172 522 l 172 0 l 122 0 l 122 706 l 172 706 l 172 568 l 174 568 q 400 710 239 710 z "},"Ś":{"ha":814,"x_min":68,"x_max":729,"o":"m 357 1056 l 306 1056 l 443 1236 l 513 1236 l 357 1056 m 383 1004 q 713 678 713 1004 l 660 678 q 383 956 660 956 q 204 901 269 956 q 139 750 139 846 q 199 612 139 656 q 406 533 260 568 q 542 494 492 513 q 640 446 592 476 q 708 368 688 415 q 729 251 729 321 q 643 56 729 128 q 408 -15 557 -15 q 156 72 243 -15 q 68 331 68 158 l 121 331 q 408 33 121 33 q 606 91 536 33 q 676 251 676 149 q 660 342 676 306 q 603 404 644 379 q 518 444 561 429 q 394 479 475 460 q 158 575 231 519 q 86 750 86 631 q 167 934 86 864 q 383 1004 247 1004 z "},"ś":{"ha":640,"x_min":60,"x_max":579,"o":"m 285 796 l 235 796 l 364 989 l 431 989 l 285 796 m 307 721 q 491 657 425 721 q 558 479 557 593 l 507 479 q 454 624 507 572 q 307 675 401 675 q 176 637 226 675 q 125 533 125 599 q 166 442 125 468 q 317 390 207 415 q 426 363 386 375 q 505 327 465 350 q 562 269 544 304 q 579 182 579 233 q 510 40 579 94 q 332 -15 442 -15 q 132 52 203 -15 q 60 240 61 119 l 110 240 q 168 85 110 140 q 332 31 226 31 q 474 72 418 31 q 529 179 529 113 q 482 283 529 253 q 303 343 435 314 q 228 362 256 354 q 167 384 200 369 q 117 417 135 399 q 87 464 99 435 q 75 531 75 493 q 140 669 75 617 q 307 721 206 721 z "},"Ŝ":{"ha":814,"x_min":68,"x_max":729,"o":"m 356 1236 l 411 1236 l 575 1056 l 515 1056 l 383 1200 l 253 1056 l 193 1056 l 356 1236 m 383 1004 q 713 678 713 1004 l 660 678 q 383 956 660 956 q 204 901 269 956 q 139 750 139 846 q 199 612 139 656 q 406 533 260 568 q 542 494 492 513 q 640 446 592 476 q 708 368 688 415 q 729 251 729 321 q 643 56 729 128 q 408 -15 557 -15 q 156 72 243 -15 q 68 331 68 158 l 121 331 q 408 33 121 33 q 606 91 536 33 q 676 251 676 149 q 660 342 676 306 q 603 404 644 379 q 518 444 561 429 q 394 479 475 460 q 158 575 231 519 q 86 750 86 631 q 167 934 86 864 q 383 1004 247 1004 z "},"ŝ":{"ha":640,"x_min":60,"x_max":579,"o":"m 439 796 l 308 953 l 176 796 l 118 796 l 281 989 l 336 989 l 499 796 l 439 796 m 307 721 q 491 657 425 721 q 558 479 557 593 l 507 479 q 454 624 507 572 q 307 675 401 675 q 176 637 226 675 q 125 533 125 599 q 166 442 125 468 q 317 390 207 415 q 426 363 386 375 q 505 327 465 350 q 562 269 544 304 q 579 182 579 233 q 510 40 579 94 q 332 -15 442 -15 q 132 52 203 -15 q 60 240 61 119 l 110 240 q 168 85 110 140 q 332 31 226 31 q 474 72 418 31 q 529 179 529 113 q 482 283 529 253 q 303 343 435 314 q 228 362 256 354 q 167 384 200 369 q 117 417 135 399 q 87 464 99 435 q 75 531 75 493 q 140 669 75 617 q 307 721 206 721 z "},"Ş":{"ha":814,"x_min":68,"x_max":729,"o":"m 729 251 q 653 66 729 136 q 446 -14 578 -4 l 394 -92 q 424 -89 408 -89 q 504 -115 474 -89 q 535 -185 535 -140 q 499 -262 535 -232 q 400 -293 464 -293 q 272 -258 332 -293 l 288 -228 q 396 -256 338 -256 q 465 -237 440 -256 q 489 -186 489 -218 q 404 -119 489 -119 q 360 -126 381 -119 l 342 -107 l 404 -15 q 154 73 240 -14 q 68 331 68 160 l 121 331 q 408 33 121 33 q 606 91 536 33 q 676 251 676 149 q 660 342 676 306 q 603 404 644 379 q 518 444 561 429 q 394 479 475 460 q 158 575 231 519 q 86 750 86 631 q 167 934 86 864 q 383 1004 247 1004 q 713 678 713 1004 l 660 678 q 383 956 660 956 q 204 901 269 956 q 139 750 139 846 q 199 612 139 656 q 406 533 260 568 q 542 494 492 513 q 640 446 592 476 q 708 368 688 415 q 729 251 729 321 z "},"ş":{"ha":640,"x_min":60,"x_max":579,"o":"m 579 182 q 521 49 579 101 q 367 -14 463 -4 l 315 -92 q 344 -89 329 -89 q 425 -115 394 -89 q 456 -185 456 -140 q 420 -262 456 -232 q 321 -293 385 -293 q 193 -258 253 -293 l 208 -228 q 317 -256 258 -256 q 385 -237 361 -256 q 410 -186 410 -218 q 325 -119 410 -119 q 281 -126 301 -119 l 263 -107 l 325 -15 q 131 53 200 -14 q 60 240 61 121 l 110 240 q 168 85 110 140 q 332 31 226 31 q 474 72 418 31 q 529 179 529 113 q 482 283 529 253 q 303 343 435 314 q 228 362 256 354 q 167 384 200 369 q 117 417 135 399 q 87 464 99 435 q 75 531 75 493 q 140 669 75 617 q 307 721 206 721 q 491 657 425 721 q 558 479 557 593 l 507 479 q 454 624 507 572 q 307 675 401 675 q 176 637 226 675 q 125 533 125 599 q 166 442 125 468 q 317 390 207 415 q 426 363 386 375 q 505 327 465 350 q 562 269 544 304 q 579 182 579 233 z "},"Š":{"ha":814,"x_min":68,"x_max":729,"o":"m 411 1056 l 356 1056 l 193 1236 l 253 1236 l 383 1092 l 515 1236 l 575 1236 l 411 1056 m 383 1004 q 713 678 713 1004 l 660 678 q 383 956 660 956 q 204 901 269 956 q 139 750 139 846 q 199 612 139 656 q 406 533 260 568 q 542 494 492 513 q 640 446 592 476 q 708 368 688 415 q 729 251 729 321 q 643 56 729 128 q 408 -15 557 -15 q 156 72 243 -15 q 68 331 68 158 l 121 331 q 408 33 121 33 q 606 91 536 33 q 676 251 676 149 q 660 342 676 306 q 603 404 644 379 q 518 444 561 429 q 394 479 475 460 q 158 575 231 519 q 86 750 86 631 q 167 934 86 864 q 383 1004 247 1004 z "},"š":{"ha":640,"x_min":60,"x_max":579,"o":"m 336 796 l 281 796 l 118 989 l 176 989 l 308 832 l 439 989 l 499 989 l 336 796 m 307 721 q 491 657 425 721 q 558 479 557 593 l 507 479 q 454 624 507 572 q 307 675 401 675 q 176 637 226 675 q 125 533 125 599 q 166 442 125 468 q 317 390 207 415 q 426 363 386 375 q 505 327 465 350 q 562 269 544 304 q 579 182 579 233 q 510 40 579 94 q 332 -15 442 -15 q 132 52 203 -15 q 60 240 61 119 l 110 240 q 168 85 110 140 q 332 31 226 31 q 474 72 418 31 q 529 179 529 113 q 482 283 529 253 q 303 343 435 314 q 228 362 256 354 q 167 384 200 369 q 117 417 135 399 q 87 464 99 435 q 75 531 75 493 q 140 669 75 617 q 307 721 206 721 z "},"Ţ":{"ha":804,"x_min":10,"x_max":793,"o":"m 793 940 l 428 940 l 428 0 l 376 0 l 376 940 l 10 940 l 10 989 l 793 989 l 793 940 m 431 -203 l 376 -339 l 349 -339 l 392 -203 l 374 -203 l 374 -103 l 431 -103 l 431 -203 z "},"ţ":{"ha":394,"x_min":18,"x_max":351,"o":"m 303 43 q 351 49 329 43 l 351 3 q 297 -3 324 -3 q 185 38 219 -3 q 150 171 150 78 l 150 661 l 18 661 l 18 706 l 150 706 l 150 868 l 200 868 l 200 706 l 344 706 l 344 661 l 200 661 l 200 171 q 224 72 200 101 q 303 43 247 43 m 193 -103 l 250 -103 l 250 -203 l 196 -339 l 168 -339 l 211 -203 l 193 -203 l 193 -103 z "},"Ť":{"ha":804,"x_min":10,"x_max":793,"o":"m 429 1056 l 374 1056 l 211 1236 l 271 1236 l 401 1092 l 533 1236 l 593 1236 l 429 1056 m 793 940 l 428 940 l 428 0 l 376 0 l 376 940 l 10 940 l 10 989 l 793 989 l 793 940 z "},"ť":{"ha":394,"x_min":18,"x_max":372,"o":"m 304 746 l 268 746 l 318 989 l 372 989 l 304 746 m 200 661 l 200 171 q 224 72 200 101 q 303 43 247 43 q 351 49 329 43 l 351 3 q 297 -3 324 -3 q 185 38 219 -3 q 150 171 150 78 l 150 661 l 18 661 l 18 706 l 150 706 l 150 868 l 200 868 l 200 706 l 344 706 l 344 661 l 200 661 z "},"Ŧ":{"ha":804,"x_min":10,"x_max":793,"o":"m 428 940 l 428 578 l 639 578 l 639 532 l 428 532 l 428 0 l 376 0 l 376 532 l 165 532 l 165 578 l 376 578 l 376 940 l 10 940 l 10 989 l 793 989 l 793 940 l 428 940 z "},"ŧ":{"ha":392,"x_min":18,"x_max":351,"o":"m 303 43 q 351 49 329 43 l 351 3 q 297 -3 324 -3 q 185 38 219 -3 q 150 171 150 78 l 150 365 l 22 365 l 22 407 l 150 407 l 150 661 l 18 661 l 18 706 l 150 706 l 150 868 l 200 868 l 200 706 l 344 706 l 344 661 l 200 661 l 200 407 l 342 407 l 342 365 l 200 365 l 200 171 q 224 72 200 101 q 303 43 247 43 z "},"Ũ":{"ha":950,"x_min":136,"x_max":814,"o":"m 646 1222 l 689 1222 q 655 1128 685 1161 q 578 1094 625 1094 q 471 1136 535 1094 q 374 1178 407 1178 q 306 1094 313 1178 l 263 1094 q 297 1189 267 1156 q 374 1222 326 1222 q 481 1181 417 1222 q 576 1139 544 1139 q 646 1222 639 1139 m 814 989 l 814 364 q 727 81 814 178 q 475 -15 640 -15 q 223 81 310 -15 q 136 364 136 178 l 136 989 l 188 989 l 188 364 q 262 117 188 200 q 475 35 336 35 q 688 117 614 35 q 763 364 763 200 l 763 989 l 814 989 z "},"ũ":{"ha":763,"x_min":114,"x_max":642,"o":"m 553 975 l 596 975 q 562 881 592 914 q 485 847 532 847 q 378 889 442 847 q 281 931 314 931 q 213 847 219 931 l 169 847 q 203 942 174 908 q 281 975 233 975 q 388 933 324 975 q 483 892 451 892 q 553 975 546 892 m 358 -14 q 177 59 240 -14 q 114 276 114 132 l 114 706 l 164 706 l 164 278 q 364 31 164 31 q 525 97 458 31 q 592 274 592 164 l 592 706 l 642 706 l 642 0 l 592 0 l 592 126 l 589 126 q 496 24 557 61 q 358 -14 435 -14 z "},"Ū":{"ha":950,"x_min":136,"x_max":814,"o":"m 643 1108 l 307 1108 l 307 1153 l 643 1153 l 643 1108 m 814 989 l 814 364 q 727 81 814 178 q 475 -15 640 -15 q 223 81 310 -15 q 136 364 136 178 l 136 989 l 188 989 l 188 364 q 262 117 188 200 q 475 35 336 35 q 688 117 614 35 q 763 364 763 200 l 763 989 l 814 989 z "},"ū":{"ha":763,"x_min":114,"x_max":642,"o":"m 550 885 l 214 885 l 214 929 l 550 929 l 550 885 m 358 -14 q 177 59 240 -14 q 114 276 114 132 l 114 706 l 164 706 l 164 278 q 364 31 164 31 q 525 97 458 31 q 592 274 592 164 l 592 706 l 642 706 l 642 0 l 592 0 l 592 126 l 589 126 q 496 24 557 61 q 358 -14 435 -14 z "},"Ŭ":{"ha":950,"x_min":136,"x_max":814,"o":"m 631 1236 l 675 1236 q 615 1101 667 1149 q 475 1053 564 1053 q 335 1101 386 1053 q 275 1236 283 1149 l 319 1236 q 475 1096 336 1096 q 631 1236 614 1096 m 814 989 l 814 364 q 727 81 814 178 q 475 -15 640 -15 q 223 81 310 -15 q 136 364 136 178 l 136 989 l 188 989 l 188 364 q 262 117 188 200 q 475 35 336 35 q 688 117 614 35 q 763 364 763 200 l 763 989 l 814 989 z "},"ŭ":{"ha":763,"x_min":114,"x_max":642,"o":"m 538 989 l 582 989 q 522 853 574 901 q 382 806 469 806 q 242 853 294 806 q 182 989 190 901 l 226 989 q 382 849 243 849 q 538 989 521 849 m 358 -14 q 177 59 240 -14 q 114 276 114 132 l 114 706 l 164 706 l 164 278 q 364 31 164 31 q 525 97 458 31 q 592 274 592 164 l 592 706 l 642 706 l 642 0 l 592 0 l 592 126 l 589 126 q 496 24 557 61 q 358 -14 435 -14 z "},"Ů":{"ha":950,"x_min":136,"x_max":814,"o":"m 387 1269 q 405 1287 387 1269 q 475 1306 424 1306 q 563 1269 526 1306 q 600 1181 600 1232 q 563 1092 600 1129 q 475 1056 526 1056 q 386 1092 422 1056 q 350 1181 350 1128 q 387 1269 350 1232 m 538 1244 q 525 1257 538 1244 q 475 1269 513 1269 q 412 1244 438 1269 q 386 1181 386 1218 q 412 1117 386 1143 q 475 1092 438 1092 q 538 1117 513 1092 q 564 1181 564 1143 q 538 1244 564 1218 m 814 989 l 814 364 q 727 81 814 178 q 475 -15 640 -15 q 223 81 310 -15 q 136 364 136 178 l 136 989 l 188 989 l 188 364 q 262 117 188 200 q 475 35 336 35 q 688 117 614 35 q 763 364 763 200 l 763 989 l 814 989 z "},"ů":{"ha":763,"x_min":114,"x_max":642,"o":"m 294 1022 q 312 1040 294 1022 q 382 1058 331 1058 q 470 1022 433 1058 q 507 933 507 985 q 470 845 507 882 q 382 808 433 808 q 294 844 331 808 q 257 933 257 881 q 294 1022 257 986 m 445 997 q 432 1009 445 997 q 382 1022 419 1022 q 319 997 344 1022 q 293 933 293 971 q 319 870 293 896 q 382 844 344 844 q 445 870 419 844 q 471 933 471 896 q 445 997 471 971 m 358 -14 q 177 59 240 -14 q 114 276 114 132 l 114 706 l 164 706 l 164 278 q 364 31 164 31 q 525 97 458 31 q 592 274 592 164 l 592 706 l 642 706 l 642 0 l 592 0 l 592 126 l 589 126 q 496 24 557 61 q 358 -14 435 -14 z "},"Ű":{"ha":950,"x_min":136,"x_max":814,"o":"m 385 1051 l 335 1051 l 497 1236 l 565 1236 l 385 1051 m 551 1051 l 501 1051 l 664 1236 l 731 1236 l 551 1051 m 814 989 l 814 364 q 727 81 814 178 q 475 -15 640 -15 q 223 81 310 -15 q 136 364 136 178 l 136 989 l 188 989 l 188 364 q 262 117 188 200 q 475 35 336 35 q 688 117 614 35 q 763 364 763 200 l 763 989 l 814 989 z "},"ű":{"ha":763,"x_min":114,"x_max":642,"o":"m 292 796 l 242 796 l 404 989 l 472 989 l 292 796 m 458 796 l 408 796 l 571 989 l 638 989 l 458 796 m 358 -14 q 177 59 240 -14 q 114 276 114 132 l 114 706 l 164 706 l 164 278 q 364 31 164 31 q 525 97 458 31 q 592 274 592 164 l 592 706 l 642 706 l 642 0 l 592 0 l 592 126 l 589 126 q 496 24 557 61 q 358 -14 435 -14 z "},"Ų":{"ha":950,"x_min":136,"x_max":814,"o":"m 814 989 l 814 364 q 776 156 814 238 q 657 10 738 75 q 567 -79 592 -43 q 542 -154 542 -115 q 611 -224 542 -224 q 661 -215 639 -224 l 661 -256 q 606 -264 640 -264 q 494 -158 494 -264 q 518 -78 494 -114 q 597 4 542 -42 l 597 7 q 475 -15 542 -15 q 223 81 310 -15 q 136 364 136 178 l 136 989 l 188 989 l 188 364 q 262 117 188 200 q 475 35 336 35 q 688 117 614 35 q 763 364 763 200 l 763 989 l 814 989 z "},"ų":{"ha":763,"x_min":114,"x_max":646,"o":"m 596 -224 q 646 -215 625 -224 l 646 -256 q 592 -264 625 -264 q 479 -167 479 -264 q 505 -83 479 -122 q 592 4 531 -44 l 592 126 l 589 126 q 496 24 557 61 q 358 -14 435 -14 q 177 59 240 -14 q 114 276 114 132 l 114 706 l 164 706 l 164 278 q 364 31 164 31 q 525 97 458 31 q 592 274 592 164 l 592 706 l 642 706 l 642 0 q 553 -87 578 -51 q 528 -162 528 -124 q 596 -224 528 -224 z "},"Ŵ":{"ha":1217,"x_min":17,"x_max":1201,"o":"m 582 1236 l 638 1236 l 801 1056 l 742 1056 l 610 1200 l 479 1056 l 419 1056 l 582 1236 m 938 0 l 857 0 l 735 464 l 610 939 l 607 939 l 482 464 l 360 0 l 279 0 l 17 989 l 68 989 l 190 536 l 319 50 l 321 50 q 449 539 396 333 l 568 989 l 649 989 l 768 539 q 896 50 821 333 l 897 50 l 1026 536 l 1149 989 l 1201 989 l 938 0 z "},"ŵ":{"ha":1033,"x_min":13,"x_max":1021,"o":"m 647 796 l 517 953 l 385 796 l 326 796 l 489 989 l 544 989 l 707 796 l 647 796 m 799 0 l 726 0 l 617 344 l 518 658 l 515 658 l 417 344 l 307 0 l 235 0 l 13 706 l 64 706 l 167 379 l 269 49 l 272 49 q 305 152 288 97 q 344 274 322 207 q 376 378 365 342 l 478 706 l 556 706 l 657 378 l 761 49 l 764 49 l 867 379 l 969 706 l 1021 706 l 799 0 z "},"Ŷ":{"ha":813,"x_min":8,"x_max":804,"o":"m 378 1236 l 433 1236 l 597 1056 l 538 1056 l 406 1200 l 275 1056 l 215 1056 l 378 1236 m 432 433 l 432 0 l 381 0 l 381 433 l 8 989 l 71 989 l 221 763 q 404 486 282 669 l 407 486 q 593 765 468 579 l 742 989 l 804 989 l 432 433 z "},"ŷ":{"ha":614,"x_min":-1,"x_max":615,"o":"m 439 796 l 308 953 l 176 796 l 118 796 l 281 989 l 336 989 l 499 796 l 439 796 m 615 706 l 322 -21 q 211 -214 264 -165 q 68 -262 158 -262 q 15 -254 39 -262 l 15 -208 q 68 -217 39 -217 q 183 -175 142 -217 q 278 -1 225 -133 l -1 706 l 53 706 l 303 65 l 304 65 l 561 706 l 615 706 z "},"Ÿ":{"ha":813,"x_min":8,"x_max":804,"o":"m 304 1082 l 254 1082 l 254 1194 l 304 1194 l 304 1082 m 558 1082 l 508 1082 l 508 1194 l 558 1194 l 558 1082 m 432 433 l 432 0 l 381 0 l 381 433 l 8 989 l 71 989 l 221 763 q 404 486 282 669 l 407 486 q 593 765 468 579 l 742 989 l 804 989 l 432 433 z "},"Ź":{"ha":765,"x_min":24,"x_max":742,"o":"m 346 1056 l 294 1056 l 432 1236 l 501 1236 l 346 1056 m 713 931 l 81 51 l 81 49 l 742 49 l 742 0 l 24 0 l 24 58 l 656 938 l 656 940 l 32 940 l 32 989 l 713 989 l 713 931 z "},"ź":{"ha":625,"x_min":31,"x_max":594,"o":"m 285 796 l 235 796 l 364 989 l 431 989 l 285 796 m 581 651 l 90 49 l 90 46 l 594 46 l 594 0 l 31 0 l 31 54 l 521 657 l 521 660 l 44 660 l 44 706 l 581 706 l 581 651 z "},"Ż":{"ha":765,"x_min":24,"x_max":742,"o":"m 397 1068 l 347 1068 l 347 1181 l 397 1181 l 397 1068 m 713 931 l 81 51 l 81 49 l 742 49 l 742 0 l 24 0 l 24 58 l 656 938 l 656 940 l 32 940 l 32 989 l 713 989 l 713 931 z "},"ż":{"ha":625,"x_min":31,"x_max":594,"o":"m 331 876 l 281 876 l 281 989 l 331 989 l 331 876 m 581 651 l 90 49 l 90 46 l 594 46 l 594 0 l 31 0 l 31 54 l 521 657 l 521 660 l 44 660 l 44 706 l 581 706 l 581 651 z "},"Ž":{"ha":765,"x_min":24,"x_max":742,"o":"m 400 1056 l 344 1056 l 182 1236 l 242 1236 l 372 1092 l 504 1236 l 564 1236 l 400 1056 m 713 931 l 81 51 l 81 49 l 742 49 l 742 0 l 24 0 l 24 58 l 656 938 l 656 940 l 32 940 l 32 989 l 713 989 l 713 931 z "},"ž":{"ha":625,"x_min":31,"x_max":594,"o":"m 335 796 l 279 796 l 117 989 l 175 989 l 307 832 l 438 989 l 497 989 l 335 796 m 581 651 l 90 49 l 90 46 l 594 46 l 594 0 l 31 0 l 31 54 l 521 657 l 521 660 l 44 660 l 44 706 l 581 706 l 581 651 z "},"ſ":{"ha":371,"x_min":21,"x_max":350,"o":"m 304 993 q 350 989 331 993 l 350 943 q 310 949 331 949 q 201 813 201 949 l 201 0 l 151 0 l 151 661 l 21 661 l 21 706 l 151 706 l 151 817 q 304 993 151 993 z "},"ƒ":{"ha":722,"x_min":35,"x_max":688,"o":"m 646 993 q 688 988 665 993 l 688 940 q 647 944 674 944 q 547 908 581 944 q 489 778 513 871 l 457 650 l 601 650 l 601 607 l 446 607 l 286 -28 q 205 -210 251 -160 q 72 -260 158 -260 q 35 -257 60 -260 l 35 -208 q 71 -212 53 -212 q 170 -172 133 -212 q 238 -17 207 -132 l 394 607 l 254 607 l 254 650 l 406 650 l 440 786 q 514 948 469 903 q 646 993 558 993 z "},"Ș":{"ha":814,"x_min":68,"x_max":729,"o":"m 383 1004 q 713 678 713 1004 l 660 678 q 383 956 660 956 q 204 901 269 956 q 139 750 139 846 q 199 612 139 656 q 406 533 260 568 q 542 494 492 513 q 640 446 592 476 q 708 368 688 415 q 729 251 729 321 q 643 56 729 128 q 408 -15 557 -15 q 156 72 243 -15 q 68 331 68 158 l 121 331 q 408 33 121 33 q 606 91 536 33 q 676 251 676 149 q 660 342 676 306 q 603 404 644 379 q 518 444 561 429 q 394 479 475 460 q 158 575 231 519 q 86 750 86 631 q 167 934 86 864 q 383 1004 247 1004 m 432 -203 l 378 -339 l 350 -339 l 393 -203 l 375 -203 l 375 -103 l 432 -103 l 432 -203 z "},"ș":{"ha":640,"x_min":60,"x_max":579,"o":"m 307 721 q 491 657 425 721 q 558 479 557 593 l 507 479 q 454 624 507 572 q 307 675 401 675 q 176 637 226 675 q 125 533 125 599 q 166 442 125 468 q 317 390 207 415 q 426 363 386 375 q 505 327 465 350 q 562 269 544 304 q 579 182 579 233 q 510 40 579 94 q 332 -15 442 -15 q 132 52 203 -15 q 60 240 61 119 l 110 240 q 168 85 110 140 q 332 31 226 31 q 474 72 418 31 q 529 179 529 113 q 482 283 529 253 q 303 343 435 314 q 228 362 256 354 q 167 384 200 369 q 117 417 135 399 q 87 464 99 435 q 75 531 75 493 q 140 669 75 617 q 307 721 206 721 m 353 -203 l 299 -339 l 271 -339 l 314 -203 l 296 -203 l 296 -103 l 353 -103 l 353 -203 z "},"Ț":{"ha":804,"x_min":10,"x_max":793,"o":"m 793 940 l 428 940 l 428 0 l 376 0 l 376 940 l 10 940 l 10 989 l 793 989 l 793 940 m 431 -203 l 376 -339 l 349 -339 l 392 -203 l 374 -203 l 374 -103 l 431 -103 l 431 -203 z "},"ț":{"ha":394,"x_min":18,"x_max":351,"o":"m 303 43 q 351 49 329 43 l 351 3 q 297 -3 324 -3 q 185 38 219 -3 q 150 171 150 78 l 150 661 l 18 661 l 18 706 l 150 706 l 150 868 l 200 868 l 200 706 l 344 706 l 344 661 l 200 661 l 200 171 q 224 72 200 101 q 303 43 247 43 m 193 -103 l 250 -103 l 250 -203 l 196 -339 l 168 -339 l 211 -203 l 193 -203 l 193 -103 z "},"ȷ":{"ha":306,"x_min":-17,"x_max":185,"o":"m 185 706 l 185 -61 q 142 -215 185 -168 q 18 -261 99 -261 q -17 -257 -1 -261 l -17 -211 q 15 -214 3 -214 q 105 -180 75 -214 q 135 -61 135 -146 l 135 706 l 185 706 z "},"ʼ":{"ha":265,"x_min":83,"x_max":172,"o":"m 172 879 l 121 703 l 83 703 l 125 879 l 107 879 l 107 989 l 172 989 l 172 879 z "},"ˆ":{"ha":519,"x_min":69,"x_max":450,"o":"m 390 796 l 260 953 l 128 796 l 69 796 l 232 989 l 288 989 l 450 796 l 390 796 z "},"ˇ":{"ha":519,"x_min":69,"x_max":450,"o":"m 288 796 l 232 796 l 69 989 l 128 989 l 260 832 l 390 989 l 450 989 l 288 796 z "},"ˉ":{"ha":475,"x_min":69,"x_max":406,"o":"m 406 885 l 69 885 l 69 929 l 406 929 l 406 885 z "},"˘":{"ha":539,"x_min":69,"x_max":469,"o":"m 425 989 l 469 989 q 409 853 461 901 q 269 806 357 806 q 130 853 182 806 q 69 989 78 901 l 114 989 q 269 849 131 849 q 425 989 408 849 z "},"˙":{"ha":189,"x_min":69,"x_max":119,"o":"m 119 876 l 69 876 l 69 989 l 119 989 l 119 876 z "},"˚":{"ha":389,"x_min":69,"x_max":319,"o":"m 194 1058 q 283 1022 246 1058 q 319 933 319 985 q 283 845 319 882 q 194 808 246 808 q 106 844 142 808 q 69 933 69 881 q 106 1022 69 986 q 194 1058 142 1058 m 258 997 q 245 1009 258 997 q 194 1022 232 1022 q 131 997 157 1022 q 106 933 106 971 q 131 870 106 896 q 194 844 157 844 q 258 870 232 844 q 283 933 283 896 q 258 997 283 971 z "},"˛":{"ha":306,"x_min":69,"x_max":236,"o":"m 185 7 l 232 0 q 143 -87 168 -51 q 118 -162 118 -124 q 186 -224 118 -224 q 236 -215 215 -224 l 236 -256 q 182 -264 215 -264 q 69 -167 69 -264 q 96 -82 69 -121 q 185 7 122 -43 z "},"˜":{"ha":565,"x_min":69,"x_max":496,"o":"m 453 975 l 496 975 q 462 881 492 914 q 385 847 432 847 q 278 889 342 847 q 181 931 214 931 q 113 847 119 931 l 69 847 q 103 942 74 908 q 181 975 133 975 q 288 933 224 975 q 383 892 351 892 q 453 975 446 892 z "},"˝":{"ha":535,"x_min":69,"x_max":465,"o":"m 119 796 l 69 796 l 232 989 l 300 989 l 119 796 m 286 796 l 236 796 l 399 989 l 465 989 l 286 796 z "},"̒":{"ha":0,"x_min":69,"x_max":151,"o":"m 108 915 l 126 915 l 126 815 l 69 815 l 69 915 l 124 1051 l 151 1051 l 108 915 z "},"̦":{"ha":0,"x_min":69,"x_max":151,"o":"m 151 -203 l 97 -339 l 69 -339 l 113 -203 l 94 -203 l 94 -103 l 151 -103 l 151 -203 z "},"Δ":{"ha":899,"x_min":8,"x_max":890,"o":"m 890 0 l 8 0 l 414 989 l 485 989 l 890 0 m 814 49 l 624 518 q 534 736 592 594 q 450 943 476 878 l 449 943 q 365 736 422 878 q 275 518 307 594 l 83 49 l 814 49 z "},"Ω":{"ha":1000,"x_min":63,"x_max":938,"o":"m 192 892 q 250 948 192 892 q 500 1004 307 1004 q 808 892 693 1004 q 922 565 922 781 q 856 298 922 419 q 669 51 790 176 l 669 49 l 938 49 l 938 0 l 607 0 l 607 50 q 801 300 735 182 q 868 564 868 418 q 768 855 868 756 q 500 954 668 954 q 231 855 332 954 q 131 564 131 756 q 198 300 131 418 q 393 50 265 182 l 393 0 l 63 0 l 63 49 l 331 49 l 331 51 q 144 298 210 176 q 78 565 78 419 q 192 892 78 781 z "},"μ":{"ha":772,"x_min":122,"x_max":746,"o":"m 644 706 l 644 167 q 659 66 644 92 q 713 40 674 40 q 746 46 731 40 l 746 1 q 699 -6 721 -6 q 623 24 647 -6 q 596 129 599 54 l 594 129 q 505 26 567 64 q 367 -12 443 -12 q 172 103 222 -12 l 172 -257 l 122 -257 l 122 706 l 172 706 l 172 281 q 369 33 172 33 q 529 99 464 33 q 594 279 594 165 l 594 706 l 644 706 z "},"π":{"ha":878,"x_min":19,"x_max":851,"o":"m 851 661 l 665 661 l 665 192 q 693 74 665 107 q 776 40 721 40 q 819 47 801 40 l 819 3 q 764 -6 792 -6 q 653 39 692 -6 q 615 189 615 83 l 615 661 l 228 661 l 228 0 l 178 0 l 178 661 l 19 661 l 19 706 l 851 706 l 851 661 z "},"Ẁ":{"ha":1217,"x_min":17,"x_max":1201,"o":"m 549 1236 l 688 1056 l 635 1056 l 481 1236 l 549 1236 m 938 0 l 857 0 l 735 464 l 610 939 l 607 939 l 482 464 l 360 0 l 279 0 l 17 989 l 68 989 l 190 536 l 319 50 l 321 50 q 449 539 396 333 l 568 989 l 649 989 l 768 539 q 896 50 821 333 l 897 50 l 1026 536 l 1149 989 l 1201 989 l 938 0 z "},"ẁ":{"ha":1033,"x_min":13,"x_max":1021,"o":"m 461 989 l 589 796 l 539 796 l 393 989 l 461 989 m 799 0 l 726 0 l 617 344 l 518 658 l 515 658 l 417 344 l 307 0 l 235 0 l 13 706 l 64 706 l 167 379 l 269 49 l 272 49 q 305 152 288 97 q 344 274 322 207 q 376 378 365 342 l 478 706 l 556 706 l 657 378 l 761 49 l 764 49 l 867 379 l 969 706 l 1021 706 l 799 0 z "},"Ẃ":{"ha":1217,"x_min":17,"x_max":1201,"o":"m 583 1056 l 532 1056 l 669 1236 l 739 1236 l 583 1056 m 938 0 l 857 0 l 735 464 l 610 939 l 607 939 l 482 464 l 360 0 l 279 0 l 17 989 l 68 989 l 190 536 l 319 50 l 321 50 q 449 539 396 333 l 568 989 l 649 989 l 768 539 q 896 50 821 333 l 897 50 l 1026 536 l 1149 989 l 1201 989 l 938 0 z "},"ẃ":{"ha":1033,"x_min":13,"x_max":1021,"o":"m 494 796 l 444 796 l 574 989 l 640 989 l 494 796 m 799 0 l 726 0 l 617 344 l 518 658 l 515 658 l 417 344 l 307 0 l 235 0 l 13 706 l 64 706 l 167 379 l 269 49 l 272 49 q 305 152 288 97 q 344 274 322 207 q 376 378 365 342 l 478 706 l 556 706 l 657 378 l 761 49 l 764 49 l 867 379 l 969 706 l 1021 706 l 799 0 z "},"Ẅ":{"ha":1217,"x_min":17,"x_max":1201,"o":"m 507 1082 l 457 1082 l 457 1194 l 507 1194 l 507 1082 m 761 1082 l 711 1082 l 711 1194 l 761 1194 l 761 1082 m 938 0 l 857 0 l 735 464 l 610 939 l 607 939 l 482 464 l 360 0 l 279 0 l 17 989 l 68 989 l 190 536 l 319 50 l 321 50 q 449 539 396 333 l 568 989 l 649 989 l 768 539 q 896 50 821 333 l 897 50 l 1026 536 l 1149 989 l 1201 989 l 938 0 z "},"ẅ":{"ha":1033,"x_min":13,"x_max":1021,"o":"m 414 876 l 364 876 l 364 989 l 414 989 l 414 876 m 668 876 l 618 876 l 618 989 l 668 989 l 668 876 m 799 0 l 726 0 l 617 344 l 518 658 l 515 658 l 417 344 l 307 0 l 235 0 l 13 706 l 64 706 l 167 379 l 269 49 l 272 49 q 305 152 288 97 q 344 274 322 207 q 376 378 365 342 l 478 706 l 556 706 l 657 378 l 761 49 l 764 49 l 867 379 l 969 706 l 1021 706 l 799 0 z "},"ẞ":{"ha":1018,"x_min":131,"x_max":946,"o":"m 867 847 l 601 575 q 946 261 946 526 q 864 58 946 129 q 642 -14 782 -14 q 432 49 506 -14 q 358 231 358 113 l 413 231 q 471 85 413 136 q 642 35 529 35 q 826 93 758 35 q 893 261 893 151 q 804 454 893 389 q 539 535 715 519 l 539 579 l 800 844 q 515 956 692 956 q 267 868 351 956 q 182 610 182 781 l 182 0 l 131 0 l 131 610 q 230 903 131 801 q 515 1004 329 1004 q 716 962 625 1004 q 867 847 807 919 z "},"Ỳ":{"ha":813,"x_min":8,"x_max":804,"o":"m 346 1236 l 485 1056 l 432 1056 l 278 1236 l 346 1236 m 432 433 l 432 0 l 381 0 l 381 433 l 8 989 l 71 989 l 221 763 q 404 486 282 669 l 407 486 q 593 765 468 579 l 742 989 l 804 989 l 432 433 z "},"ỳ":{"ha":614,"x_min":-1,"x_max":615,"o":"m 251 989 l 379 796 l 329 796 l 183 989 l 251 989 m 615 706 l 322 -21 q 211 -214 264 -165 q 68 -262 158 -262 q 15 -254 39 -262 l 15 -208 q 68 -217 39 -217 q 183 -175 142 -217 q 278 -1 225 -133 l -1 706 l 53 706 l 303 65 l 304 65 l 561 706 l 615 706 z "},"‐":{"ha":390,"x_min":42,"x_max":349,"o":"m 349 381 l 42 381 l 42 431 l 349 431 l 349 381 z "},"–":{"ha":694,"x_min":28,"x_max":667,"o":"m 667 381 l 28 381 l 28 431 l 667 431 l 667 381 z "},"—":{"ha":1389,"x_min":28,"x_max":1361,"o":"m 1361 381 l 28 381 l 28 431 l 1361 431 l 1361 381 z "},"―":{"ha":1389,"x_min":28,"x_max":1361,"o":"m 1361 381 l 28 381 l 28 431 l 1361 431 l 1361 381 z "},"‗":{"ha":694,"x_min":0,"x_max":694,"o":"m 694 -106 l 0 -106 l 0 -69 l 694 -69 l 694 -106 m 694 -272 l 0 -272 l 0 -236 l 694 -236 l 694 -272 z "},"‘":{"ha":265,"x_min":92,"x_max":182,"o":"m 92 813 l 143 989 l 182 989 l 139 813 l 158 813 l 158 703 l 92 703 l 92 813 z "},"’":{"ha":265,"x_min":83,"x_max":172,"o":"m 172 879 l 121 703 l 83 703 l 125 879 l 107 879 l 107 989 l 172 989 l 172 879 z "},"‚":{"ha":265,"x_min":83,"x_max":172,"o":"m 172 -12 l 121 -189 l 83 -189 l 125 -12 l 107 -12 l 107 97 l 172 97 l 172 -12 z "},"“":{"ha":438,"x_min":92,"x_max":354,"o":"m 92 813 l 143 989 l 182 989 l 139 813 l 158 813 l 158 703 l 92 703 l 92 813 m 265 813 l 317 989 l 354 989 l 313 813 l 331 813 l 331 703 l 265 703 l 265 813 z "},"”":{"ha":438,"x_min":83,"x_max":346,"o":"m 172 879 l 121 703 l 83 703 l 125 879 l 107 879 l 107 989 l 172 989 l 172 879 m 346 879 l 294 703 l 256 703 l 299 879 l 279 879 l 279 989 l 346 989 l 346 879 z "},"„":{"ha":438,"x_min":83,"x_max":344,"o":"m 172 -12 l 121 -189 l 83 -189 l 125 -12 l 107 -12 l 107 97 l 172 97 l 172 -12 m 344 -12 l 293 -189 l 256 -189 l 297 -12 l 279 -12 l 279 97 l 344 97 l 344 -12 z "},"†":{"ha":708,"x_min":75,"x_max":633,"o":"m 381 701 l 633 701 l 633 656 l 381 656 l 381 -167 l 328 -167 l 328 656 l 75 656 l 75 701 l 328 701 l 328 989 l 381 989 l 381 701 z "},"‡":{"ha":708,"x_min":75,"x_max":633,"o":"m 381 703 l 633 703 l 633 656 l 381 656 l 381 271 l 633 271 l 633 224 l 381 224 l 381 -167 l 328 -167 l 328 224 l 75 224 l 75 271 l 328 271 l 328 656 l 75 656 l 75 703 l 328 703 l 328 989 l 381 989 l 381 703 z "},"•":{"ha":431,"x_min":83,"x_max":347,"o":"m 308 401 q 289 382 308 401 q 215 363 269 363 q 122 401 161 363 q 83 494 83 440 q 122 588 83 549 q 215 626 161 626 q 308 588 269 626 q 347 494 347 549 q 308 401 347 440 z "},"…":{"ha":790,"x_min":85,"x_max":706,"o":"m 153 0 l 85 0 l 85 110 l 153 110 l 153 0 m 429 0 l 361 0 l 361 110 l 429 110 l 429 0 m 706 0 l 638 0 l 638 110 l 706 110 l 706 0 z "},"‰":{"ha":1256,"x_min":42,"x_max":1214,"o":"m 153 -42 l 99 -42 l 688 978 l 742 978 l 153 -42 m 85 895 q 106 924 85 895 q 207 953 128 953 q 330 895 286 953 q 374 732 374 838 q 330 567 374 625 q 207 510 286 510 q 85 567 128 510 q 42 732 42 625 q 85 895 42 838 m 207 908 q 122 863 151 908 q 92 732 92 817 q 122 600 92 646 q 207 554 151 554 q 322 732 322 554 q 207 908 322 908 m 633 429 q 755 371 711 429 q 799 207 799 313 q 755 43 799 101 q 633 -15 711 -15 q 510 43 554 -15 q 467 207 467 101 q 510 371 467 313 q 633 429 554 429 m 926 372 q 948 400 926 372 q 1049 429 969 429 q 1171 372 1128 429 q 1214 207 1214 314 q 1171 42 1214 100 q 1049 -15 1128 -15 q 926 42 969 -15 q 883 207 883 100 q 926 372 883 314 m 633 383 q 518 207 518 383 q 633 31 518 31 q 747 207 747 31 q 633 383 747 383 m 1134 338 q 1119 360 1134 338 q 1049 383 1104 383 q 963 338 993 383 q 933 207 933 292 q 963 76 933 122 q 1049 31 993 31 q 1134 76 1104 31 q 1164 207 1164 122 q 1134 338 1164 292 z "},"‹":{"ha":357,"x_min":74,"x_max":285,"o":"m 126 353 l 285 75 l 232 75 l 74 353 l 232 631 l 285 631 l 126 353 z "},"›":{"ha":357,"x_min":74,"x_max":285,"o":"m 126 631 l 285 353 l 126 75 l 74 75 l 231 353 l 74 631 l 126 631 z "},"‽":{"ha":671,"x_min":50,"x_max":615,"o":"m 363 989 l 361 886 q 544 819 474 881 q 615 665 615 758 q 585 540 615 592 q 464 414 556 489 q 375 322 394 358 q 356 201 356 286 l 314 201 l 304 836 q 160 774 213 826 q 100 629 107 721 l 50 629 q 123 808 57 743 q 303 885 189 874 l 301 989 l 363 989 m 433 446 q 537 559 513 515 q 561 665 561 603 q 506 787 561 740 q 360 838 450 833 l 353 357 l 356 357 q 433 446 371 392 m 303 111 l 365 111 l 365 0 l 303 0 l 303 111 z "},"‾":{"ha":694,"x_min":0,"x_max":694,"o":"m 694 1108 l 0 1108 l 0 1153 l 694 1153 l 694 1108 z "},"⁄":{"ha":172,"x_min":-215,"x_max":388,"o":"m -160 0 l -215 0 l 332 936 l 388 936 l -160 0 z "},"⁰":{"ha":558,"x_min":54,"x_max":504,"o":"m 111 1039 q 140 1082 111 1039 q 279 1125 168 1125 q 447 1039 390 1125 q 504 786 504 953 q 447 533 504 619 q 279 447 390 447 q 111 533 168 447 q 54 786 54 619 q 111 1039 54 953 m 456 786 q 279 1081 456 1081 q 103 786 103 1081 q 279 489 103 489 q 456 786 456 489 z "},"⁴":{"ha":517,"x_min":15,"x_max":501,"o":"m 501 644 l 375 644 l 375 458 l 331 458 l 331 644 l 15 644 l 15 693 l 313 1114 l 375 1114 l 375 688 l 501 688 l 501 644 m 63 688 l 331 688 l 331 788 l 331 1063 l 328 1063 l 151 813 l 63 688 z "},"⁵":{"ha":532,"x_min":58,"x_max":475,"o":"m 446 1071 l 140 1071 l 115 814 l 117 814 q 265 883 165 883 q 419 826 363 883 q 475 669 475 768 q 416 508 475 568 q 256 447 357 447 q 113 496 167 447 q 58 628 58 544 l 106 628 q 148 528 107 564 q 256 492 189 492 q 381 540 335 492 q 428 668 428 588 q 383 794 428 749 q 264 840 339 840 q 108 728 142 840 l 61 731 l 99 1114 l 446 1114 l 446 1071 z "},"⁶":{"ha":539,"x_min":54,"x_max":489,"o":"m 286 1125 q 418 1080 368 1125 q 479 954 468 1035 l 431 954 q 286 1081 407 1081 q 149 1002 199 1081 q 99 767 100 924 l 101 767 q 167 851 121 819 q 281 883 214 883 q 431 824 374 883 q 489 668 489 765 q 430 508 489 569 q 276 447 371 447 q 54 756 54 447 q 115 1031 54 936 q 286 1125 175 1125 m 276 840 q 158 793 204 840 q 113 672 113 746 q 156 541 113 590 q 276 492 200 492 q 396 540 350 492 q 442 668 442 588 q 397 793 442 746 q 276 840 351 840 z "},"⁷":{"ha":469,"x_min":15,"x_max":454,"o":"m 454 1114 l 454 1069 q 192 458 267 803 l 139 458 q 403 1071 224 810 l 15 1071 l 15 1114 l 454 1114 z "},"⁸":{"ha":542,"x_min":51,"x_max":490,"o":"m 123 1076 q 152 1100 123 1076 q 271 1125 181 1125 q 419 1076 361 1125 q 476 949 476 1026 q 356 797 476 842 l 356 796 q 490 635 490 754 q 428 499 490 551 q 271 447 367 447 q 113 499 175 447 q 51 635 51 551 q 186 796 51 754 l 186 797 q 65 949 65 842 q 123 1076 65 1026 m 384 1044 q 362 1063 384 1044 q 271 1081 340 1081 q 158 1044 201 1081 q 114 950 114 1008 q 156 854 114 890 q 271 818 199 818 q 385 854 343 818 q 428 950 428 890 q 384 1044 428 1008 m 393 735 q 369 755 393 735 q 271 775 344 775 q 149 735 197 775 q 100 636 100 696 q 147 531 100 571 q 271 492 194 492 q 394 531 347 492 q 442 636 442 571 q 393 735 442 696 z "},"⁹":{"ha":539,"x_min":50,"x_max":485,"o":"m 251 447 q 120 492 169 447 q 60 618 71 538 l 108 618 q 251 492 132 492 q 389 570 339 492 q 440 806 439 649 l 438 806 q 370 720 417 751 q 258 689 324 689 q 107 748 164 689 q 50 904 50 807 q 109 1064 50 1003 q 263 1125 168 1125 q 485 817 485 1125 q 424 542 485 636 q 251 447 363 447 m 261 732 q 380 779 333 732 q 426 900 426 826 q 383 1031 426 982 q 263 1081 339 1081 q 143 1033 189 1081 q 97 904 97 985 q 142 779 97 826 q 261 732 188 732 z "},"⁺":{"ha":563,"x_min":74,"x_max":490,"o":"m 301 788 l 490 788 l 490 746 l 301 746 l 301 564 l 261 564 l 261 746 l 74 746 l 74 788 l 261 788 l 261 969 l 301 969 l 301 788 z "},"⁻":{"ha":563,"x_min":74,"x_max":490,"o":"m 490 746 l 74 746 l 74 788 l 490 788 l 490 746 z "},"⁼":{"ha":563,"x_min":74,"x_max":490,"o":"m 490 815 l 74 815 l 74 857 l 490 857 l 490 815 m 490 676 l 74 676 l 74 718 l 490 718 l 490 676 z "},"⁽":{"ha":256,"x_min":54,"x_max":226,"o":"m 183 1179 l 226 1179 q 103 747 103 975 q 226 315 103 517 l 183 315 q 54 747 54 506 q 183 1179 54 986 z "},"⁾":{"ha":256,"x_min":29,"x_max":201,"o":"m 72 315 l 29 315 q 153 747 153 515 q 29 1179 153 981 l 72 1179 q 201 747 201 989 q 72 315 201 508 z "},"₀":{"ha":558,"x_min":54,"x_max":504,"o":"m 111 342 q 140 385 111 342 q 279 428 168 428 q 447 342 390 428 q 504 89 504 256 q 447 -164 504 -78 q 279 -250 390 -250 q 111 -164 168 -250 q 54 89 54 -78 q 111 342 54 256 m 456 89 q 279 383 456 383 q 103 89 103 383 q 279 -208 103 -208 q 456 89 456 -208 z "},"₁":{"ha":318,"x_min":13,"x_max":204,"o":"m 204 -239 l 158 -239 l 158 319 l 156 319 q 13 268 124 268 l 13 307 q 122 332 88 307 q 165 417 157 357 l 204 417 l 204 -239 z "},"₂":{"ha":540,"x_min":56,"x_max":488,"o":"m 275 428 q 419 378 364 428 q 474 250 474 328 q 428 127 474 174 q 279 24 383 81 q 138 -83 174 -36 q 103 -196 103 -131 l 488 -196 l 488 -239 l 58 -239 q 56 -221 56 -232 q 95 -67 56 -126 q 256 61 135 -7 q 389 151 353 115 q 425 250 425 186 q 383 347 425 310 q 274 383 342 383 q 160 344 200 383 q 114 235 119 306 l 65 235 q 127 376 71 324 q 275 428 183 428 z "},"₃":{"ha":535,"x_min":46,"x_max":478,"o":"m 256 428 q 408 380 351 428 q 465 254 465 332 q 344 97 465 136 l 344 96 q 478 -69 478 56 q 416 -199 478 -149 q 258 -250 354 -250 q 102 -198 158 -250 q 46 -54 46 -146 l 94 -54 q 137 -167 94 -128 q 258 -207 179 -207 q 381 -168 333 -207 q 429 -69 429 -129 q 382 37 429 0 q 247 74 335 74 l 213 74 l 213 117 l 247 117 q 373 153 328 117 q 418 251 418 189 q 373 347 418 311 q 254 383 328 383 q 140 346 181 383 q 99 235 99 308 l 50 235 q 106 376 50 325 q 256 428 161 428 z "},"₄":{"ha":517,"x_min":14,"x_max":500,"o":"m 500 -53 l 374 -53 l 374 -239 l 329 -239 l 329 -53 l 14 -53 l 14 -4 l 311 417 l 374 417 l 374 -10 l 500 -10 l 500 -53 m 61 -10 l 329 -10 l 329 90 l 329 365 l 326 365 l 150 115 l 61 -10 z "},"₅":{"ha":532,"x_min":58,"x_max":475,"o":"m 446 374 l 140 374 l 115 117 l 117 117 q 265 186 165 186 q 419 128 363 186 q 475 -28 475 71 q 416 -190 475 -129 q 256 -250 357 -250 q 113 -201 167 -250 q 58 -69 58 -153 l 106 -69 q 148 -169 107 -133 q 256 -206 189 -206 q 381 -158 335 -206 q 428 -29 428 -110 q 383 97 428 51 q 264 143 339 143 q 108 31 142 143 l 61 33 l 99 417 l 446 417 l 446 374 z "},"₆":{"ha":539,"x_min":54,"x_max":489,"o":"m 286 428 q 418 383 368 428 q 479 257 468 338 l 431 257 q 286 383 407 383 q 149 305 199 383 q 99 69 100 226 l 101 69 q 167 154 121 122 q 281 186 214 186 q 431 127 374 186 q 489 -29 489 68 q 430 -189 489 -128 q 276 -250 371 -250 q 54 58 54 -250 q 115 333 54 239 q 286 428 175 428 m 276 143 q 158 96 204 143 q 113 -25 113 49 q 156 -156 113 -107 q 276 -206 200 -206 q 396 -158 350 -206 q 442 -29 442 -110 q 397 96 442 49 q 276 143 351 143 z "},"₇":{"ha":469,"x_min":14,"x_max":453,"o":"m 453 417 l 453 372 q 190 -239 265 106 l 138 -239 q 401 374 222 113 l 14 374 l 14 417 l 453 417 z "},"₈":{"ha":542,"x_min":50,"x_max":489,"o":"m 122 378 q 150 403 122 378 q 269 428 179 428 q 417 378 360 428 q 475 251 475 329 q 354 100 475 144 l 354 99 q 489 -62 489 57 q 427 -198 489 -146 q 269 -250 365 -250 q 112 -198 174 -250 q 50 -62 50 -146 q 185 99 50 57 l 185 100 q 64 251 64 144 q 122 378 64 329 m 383 347 q 361 365 383 347 q 269 383 339 383 q 156 347 200 383 q 113 253 113 311 q 155 157 113 193 q 269 121 197 121 q 384 157 342 121 q 426 253 426 193 q 383 347 426 311 m 392 38 q 367 58 392 38 q 269 78 343 78 q 147 38 196 78 q 99 -61 99 -1 q 146 -166 99 -126 q 269 -206 193 -206 q 393 -166 346 -206 q 440 -61 440 -126 q 392 38 440 -1 z "},"₉":{"ha":539,"x_min":50,"x_max":485,"o":"m 251 -250 q 120 -205 169 -250 q 60 -79 71 -160 l 108 -79 q 251 -206 132 -206 q 389 -127 339 -206 q 440 108 439 -49 l 438 108 q 370 23 417 54 q 258 -8 324 -8 q 107 51 164 -8 q 50 207 50 110 q 109 367 50 306 q 263 428 168 428 q 485 119 485 428 q 424 -156 485 -61 q 251 -250 363 -250 m 261 35 q 380 82 333 35 q 426 203 426 129 q 383 334 426 285 q 263 383 339 383 q 143 335 189 383 q 97 207 97 288 q 142 82 97 129 q 261 35 188 35 z "},"₊":{"ha":563,"x_min":72,"x_max":489,"o":"m 301 90 l 489 90 l 489 49 l 301 49 l 301 -133 l 261 -133 l 261 49 l 72 49 l 72 90 l 261 90 l 261 272 l 301 272 l 301 90 z "},"₋":{"ha":563,"x_min":72,"x_max":489,"o":"m 489 49 l 72 49 l 72 90 l 489 90 l 489 49 z "},"₌":{"ha":563,"x_min":72,"x_max":489,"o":"m 489 118 l 72 118 l 72 160 l 489 160 l 489 118 m 489 -21 l 72 -21 l 72 21 l 489 21 l 489 -21 z "},"₍":{"ha":256,"x_min":54,"x_max":226,"o":"m 183 482 l 226 482 q 103 50 103 278 q 226 -382 103 -181 l 183 -382 q 54 50 54 -192 q 183 482 54 289 z "},"₎":{"ha":256,"x_min":29,"x_max":201,"o":"m 72 -382 l 29 -382 q 153 50 153 -182 q 29 482 153 283 l 72 482 q 201 50 201 292 q 72 -382 201 -189 z "},"₣":{"ha":722,"x_min":39,"x_max":674,"o":"m 203 888 l 203 538 l 646 538 l 646 489 l 203 489 l 203 267 l 453 267 l 453 219 l 203 219 l 203 0 l 150 0 l 150 219 l 39 219 l 39 267 l 150 267 l 150 936 l 674 936 l 674 888 l 203 888 z "},"₤":{"ha":722,"x_min":33,"x_max":663,"o":"m 150 47 l 661 47 l 661 0 l 33 0 l 33 47 q 181 240 181 47 l 181 354 l 33 354 l 33 401 l 181 401 l 181 506 l 33 506 l 33 553 l 181 553 l 181 678 q 244 881 181 811 q 422 951 307 951 q 598 878 533 951 q 663 679 663 806 l 613 679 q 562 844 613 786 q 422 903 511 903 q 281 844 331 903 q 231 678 231 786 l 231 553 l 414 553 l 414 506 l 231 506 l 231 401 l 414 401 l 414 354 l 231 354 l 231 240 q 150 49 231 99 l 150 47 z "},"₧":{"ha":1076,"x_min":144,"x_max":1033,"o":"m 985 43 q 1033 49 1011 43 l 1033 3 q 979 -3 1006 -3 q 867 38 901 -3 q 832 171 832 79 l 832 661 l 714 661 q 633 463 714 538 q 399 389 551 389 l 196 389 l 196 0 l 144 0 l 144 936 l 399 936 q 617 874 538 936 q 711 706 697 813 l 832 706 l 832 868 l 882 868 l 882 706 l 1026 706 l 1026 661 l 882 661 l 882 171 q 906 72 882 101 q 985 43 929 43 m 196 438 l 399 438 q 593 498 526 438 q 660 663 660 558 q 593 827 660 767 q 399 888 526 888 l 196 888 l 196 438 z "},"€":{"ha":722,"x_min":1,"x_max":697,"o":"m 644 274 l 697 274 q 602 58 679 132 q 397 -15 525 -15 q 172 81 254 -15 q 71 367 89 178 l 1 367 l 10 413 l 68 413 q 67 468 67 431 l 68 515 l 1 515 l 10 561 l 71 561 q 170 852 86 753 q 400 951 254 951 q 605 879 531 951 q 692 667 679 807 l 639 667 q 400 901 614 901 q 125 561 154 901 l 517 561 l 507 515 l 122 515 l 121 468 q 122 413 121 431 l 489 413 l 481 367 l 125 367 q 397 35 157 35 q 644 274 611 35 z "},"₹":{"ha":722,"x_min":38,"x_max":683,"o":"m 401 889 l 401 888 q 528 742 510 851 l 683 742 l 669 696 l 531 696 q 462 539 529 603 q 276 457 394 475 l 276 454 q 443 272 374 414 l 576 0 l 518 0 l 393 257 q 288 398 346 356 q 150 440 231 440 l 129 440 l 129 488 l 179 488 q 397 545 318 488 q 478 696 475 603 l 38 696 l 51 742 l 474 742 q 199 889 444 889 l 38 889 l 51 936 l 683 936 l 669 889 l 401 889 z "},"₺":{"ha":722,"x_min":35,"x_max":678,"o":"m 625 433 l 678 433 q 559 108 678 218 q 219 -3 440 -3 q 169 -1 185 -3 l 169 443 l 35 369 l 35 422 l 169 496 l 169 642 l 35 568 l 35 621 l 169 694 l 169 936 l 221 936 l 221 717 l 456 844 l 456 792 l 221 664 l 221 518 l 456 646 l 456 593 l 221 465 l 221 46 q 520 144 415 46 q 625 433 625 242 z "},"₼":{"ha":833,"x_min":69,"x_max":764,"o":"m 69 0 l 69 438 q 144 724 69 639 q 390 814 219 808 l 390 989 l 442 989 l 442 814 q 689 724 614 808 q 764 438 764 639 l 764 0 l 711 0 l 711 438 q 650 685 711 614 q 442 761 589 757 l 442 0 l 390 0 l 390 761 q 182 685 243 757 q 121 438 121 614 l 121 0 l 69 0 z "},"₽":{"ha":722,"x_min":17,"x_max":679,"o":"m 132 936 l 392 936 q 606 866 532 936 q 679 676 679 796 q 606 486 679 557 q 392 415 532 415 l 182 415 l 182 286 l 475 286 l 475 239 l 182 239 l 182 0 l 132 0 l 132 239 l 17 239 l 17 286 l 132 286 l 132 415 l 17 415 l 17 463 l 132 463 l 132 936 m 182 889 l 182 463 l 392 463 q 567 520 507 463 q 628 676 628 578 q 567 832 628 775 q 392 889 507 889 l 182 889 z "},"ℓ":{"ha":601,"x_min":89,"x_max":468,"o":"m 225 285 l 225 174 q 251 67 225 100 q 339 35 278 35 q 410 47 378 35 l 410 1 q 331 -11 375 -11 q 213 33 251 -11 q 175 174 175 78 l 175 279 l 161 279 q 89 286 124 279 l 89 325 q 161 318 126 318 l 175 318 l 175 689 q 209 894 175 836 q 317 951 243 951 q 426 889 385 951 q 468 690 468 826 q 225 285 468 329 m 225 694 l 225 325 q 426 690 426 369 q 318 908 426 908 q 247 863 268 908 q 225 694 225 817 z "},"℗":{"ha":1138,"x_min":74,"x_max":1064,"o":"m 210 863 q 278 933 210 863 q 568 1003 346 1003 q 927 863 790 1003 q 1064 494 1064 722 q 927 126 1064 267 q 568 -14 790 -14 q 210 126 346 -14 q 74 494 74 267 q 210 863 74 722 m 899 835 q 836 899 899 835 q 568 964 774 964 q 238 835 363 964 q 113 494 113 706 q 238 154 113 283 q 568 25 363 25 q 899 154 774 25 q 1025 494 1025 283 q 899 835 1025 706 m 385 825 l 611 825 q 784 772 724 825 q 844 629 844 719 q 784 486 844 539 q 611 433 724 433 l 438 433 l 438 144 l 385 144 l 385 825 m 438 775 l 438 483 l 611 483 q 744 522 699 483 q 790 629 790 560 q 744 737 790 699 q 611 775 699 775 l 438 775 z "},"™":{"ha":1047,"x_min":7,"x_max":975,"o":"m 404 947 l 228 947 l 228 494 l 183 494 l 183 947 l 7 947 l 7 989 l 404 989 l 404 947 m 975 494 l 931 494 l 931 747 l 931 936 l 929 936 q 890 841 915 904 q 853 746 865 778 l 754 494 l 703 494 l 604 746 q 565 841 590 778 q 528 936 540 904 l 526 936 l 526 747 l 526 494 l 482 494 l 482 989 l 554 989 l 651 738 l 728 544 l 729 544 l 804 738 l 903 989 l 975 989 l 975 494 z "},"Ω":{"ha":1000,"x_min":63,"x_max":938,"o":"m 192 892 q 250 948 192 892 q 500 1004 307 1004 q 808 892 693 1004 q 922 565 922 781 q 856 298 922 419 q 669 51 790 176 l 669 49 l 938 49 l 938 0 l 607 0 l 607 50 q 801 300 735 182 q 868 564 868 418 q 768 855 868 756 q 500 954 668 954 q 231 855 332 954 q 131 564 131 756 q 198 300 131 418 q 393 50 265 182 l 393 0 l 63 0 l 63 49 l 331 49 l 331 51 q 144 298 210 176 q 78 565 78 419 q 192 892 78 781 z "},"℮":{"ha":1190,"x_min":65,"x_max":1125,"o":"m 209 814 q 281 883 209 814 q 596 951 353 951 q 982 807 839 951 q 1125 451 1125 663 l 279 451 q 261 435 261 451 l 261 204 q 282 144 261 164 q 596 18 411 18 q 783 59 696 18 q 926 169 869 100 l 1021 169 q 858 38 965 93 q 596 -17 750 -17 q 211 119 357 -17 q 65 465 65 254 q 209 814 65 676 m 596 915 q 282 786 411 915 q 261 731 261 767 l 261 500 q 279 482 261 482 l 908 482 q 926 500 926 482 l 926 731 q 906 786 926 768 q 596 915 775 915 z "},"⅛":{"ha":922,"x_min":13,"x_max":878,"o":"m 185 375 l 138 375 l 138 836 l 136 836 q 13 803 99 803 l 13 843 q 107 864 76 843 q 144 936 138 885 l 185 936 l 185 375 m 121 0 l 65 0 l 613 936 l 668 936 l 121 0 m 688 572 q 817 530 767 572 q 867 419 867 488 q 767 292 867 326 l 767 290 q 878 151 878 256 q 825 35 878 79 q 688 -10 772 -10 q 549 35 601 -10 q 497 151 497 79 q 608 290 497 256 l 608 292 q 508 419 508 326 q 558 530 508 488 q 688 572 607 572 m 783 497 q 765 512 783 497 q 688 526 747 526 q 592 497 628 526 q 556 421 556 468 q 592 341 556 371 q 688 311 628 311 q 783 341 747 311 q 819 421 819 371 q 783 497 819 468 m 790 236 q 770 252 790 236 q 688 268 750 268 q 585 236 625 268 q 544 153 544 204 q 583 67 544 99 q 688 35 622 35 q 792 67 753 35 q 831 153 831 99 q 790 236 831 204 z "},"⅜":{"ha":1107,"x_min":40,"x_max":1063,"o":"m 225 947 q 356 906 307 947 q 404 797 404 865 q 304 663 404 700 l 304 661 q 415 521 415 628 q 363 408 415 451 q 226 364 310 364 q 90 410 139 364 q 40 535 40 456 l 88 535 q 226 410 88 410 q 328 440 289 410 q 368 521 368 471 q 328 608 368 578 q 213 639 288 639 l 185 639 l 185 682 l 213 682 q 318 713 279 682 q 357 794 357 743 q 321 872 357 843 q 224 901 285 901 q 126 870 161 901 q 92 779 92 839 l 43 779 q 92 903 43 858 q 225 947 142 947 m 306 0 l 250 0 l 797 936 l 853 936 l 306 0 m 872 572 q 1001 530 951 572 q 1051 419 1051 488 q 951 292 1051 326 l 951 290 q 1063 151 1063 256 q 1010 35 1063 79 q 872 -10 957 -10 q 734 35 786 -10 q 682 151 682 79 q 793 290 682 256 l 793 292 q 693 419 693 326 q 742 530 693 488 q 872 572 792 572 m 968 497 q 950 512 968 497 q 872 526 932 526 q 776 497 813 526 q 740 421 740 468 q 776 341 740 371 q 872 311 813 311 q 968 341 932 311 q 1004 421 1004 371 q 968 497 1004 468 m 975 236 q 955 252 975 236 q 872 268 935 268 q 769 236 810 268 q 729 153 729 204 q 768 67 729 99 q 872 35 807 35 q 976 67 938 35 q 1015 153 1015 99 q 975 236 1015 204 z "},"⅝":{"ha":1106,"x_min":50,"x_max":1061,"o":"m 389 892 l 128 892 l 108 689 l 110 689 q 232 742 151 742 q 365 691 317 742 q 414 554 414 640 q 363 416 414 468 q 224 364 311 364 q 97 406 144 364 q 50 521 50 449 l 97 521 q 133 439 99 468 q 224 410 168 410 q 328 449 290 410 q 367 556 367 489 q 330 658 367 621 q 229 696 293 696 q 101 604 126 696 l 53 607 l 85 936 l 389 936 l 389 892 m 304 0 l 249 0 l 796 936 l 851 936 l 304 0 m 871 572 q 1000 530 950 572 q 1050 419 1050 488 q 950 292 1050 326 l 950 290 q 1061 151 1061 256 q 1008 35 1061 79 q 871 -10 956 -10 q 733 35 785 -10 q 681 151 681 79 q 792 290 681 256 l 792 292 q 692 419 692 326 q 741 530 692 488 q 871 572 790 572 m 967 497 q 949 512 967 497 q 871 526 931 526 q 775 497 811 526 q 739 421 739 468 q 775 341 739 371 q 871 311 811 311 q 967 341 931 311 q 1003 421 1003 371 q 967 497 1003 468 m 974 236 q 953 252 974 236 q 871 268 933 268 q 768 236 808 268 q 728 153 728 204 q 767 67 728 99 q 871 35 806 35 q 975 67 936 35 q 1014 153 1014 99 q 974 236 1014 204 z "},"⅞":{"ha":979,"x_min":13,"x_max":935,"o":"m 393 936 l 393 892 q 169 375 236 675 l 119 375 q 340 892 192 675 l 13 892 l 13 936 l 393 936 m 178 0 l 122 0 l 669 936 l 725 936 l 178 0 m 744 572 q 874 530 824 572 q 924 419 924 488 q 824 292 924 326 l 824 290 q 935 151 935 256 q 882 35 935 79 q 744 -10 829 -10 q 606 35 658 -10 q 554 151 554 79 q 665 290 554 256 l 665 292 q 565 419 565 326 q 615 530 565 488 q 744 572 664 572 m 840 497 q 822 512 840 497 q 744 526 804 526 q 649 497 685 526 q 613 421 613 468 q 649 341 613 371 q 744 311 685 311 q 840 341 804 311 q 876 421 876 371 q 840 497 876 468 m 847 236 q 827 252 847 236 q 744 268 807 268 q 642 236 682 268 q 601 153 601 204 q 640 67 601 99 q 744 35 679 35 q 849 67 810 35 q 888 153 888 99 q 847 236 888 204 z "},"∂":{"ha":800,"x_min":75,"x_max":694,"o":"m 367 1004 q 610 876 525 1004 q 694 500 694 749 q 602 113 694 242 q 364 -15 510 -15 q 150 71 225 -15 q 75 304 75 157 q 157 558 75 458 q 379 658 239 658 q 550 601 482 658 q 638 451 618 544 l 640 451 q 642 522 642 474 q 569 842 642 731 q 367 954 497 954 q 164 771 186 954 l 110 771 q 185 942 121 879 q 367 1004 249 1004 m 382 608 q 197 523 265 608 q 129 303 129 438 q 189 106 129 176 q 364 35 249 35 q 551 124 482 35 q 619 343 619 214 q 555 535 619 461 q 382 608 490 608 z "},"∆":{"ha":899,"x_min":8,"x_max":890,"o":"m 890 0 l 8 0 l 414 989 l 485 989 l 890 0 m 814 49 l 624 518 q 534 736 592 594 q 450 943 476 878 l 449 943 q 365 736 422 878 q 275 518 307 594 l 83 49 l 814 49 z "},"∏":{"ha":885,"x_min":144,"x_max":742,"o":"m 742 -167 l 689 -167 l 689 940 l 196 940 l 196 -167 l 144 -167 l 144 989 l 742 989 l 742 -167 z "},"∑":{"ha":633,"x_min":49,"x_max":585,"o":"m 585 942 l 106 942 l 424 404 l 106 -119 l 585 -119 l 585 -167 l 49 -167 l 49 -119 l 368 404 l 49 942 l 49 989 l 585 989 l 585 942 z "},"−":{"ha":786,"x_min":104,"x_max":682,"o":"m 682 417 l 104 417 l 104 464 l 682 464 l 682 417 z "},"∕":{"ha":578,"x_min":42,"x_max":507,"o":"m 94 -124 l 42 -124 l 454 1035 l 507 1035 l 94 -124 z "},"∙":{"ha":407,"x_min":169,"x_max":238,"o":"m 238 369 l 169 369 l 169 479 l 238 479 l 238 369 z "},"√":{"ha":706,"x_min":35,"x_max":678,"o":"m 347 -167 l 289 -167 l 146 432 l 35 432 l 35 476 l 182 476 l 318 -99 l 321 -99 l 631 989 l 678 989 l 347 -167 z "},"∞":{"ha":797,"x_min":21,"x_max":776,"o":"m 611 608 q 731 558 685 608 q 776 428 776 508 q 731 297 776 347 q 611 247 685 247 q 494 284 542 247 q 399 389 446 321 q 304 284 351 321 q 188 247 257 247 q 67 297 114 247 q 21 428 21 347 q 67 558 21 508 q 188 608 114 608 q 304 572 257 608 q 399 467 351 535 q 494 572 446 535 q 611 608 542 608 m 190 294 q 287 328 247 294 q 372 428 326 361 q 321 495 342 471 q 265 540 300 519 q 190 561 231 561 q 102 525 135 561 q 69 428 69 489 q 102 331 69 367 q 190 294 135 294 m 607 294 q 697 331 664 294 q 729 428 729 367 q 697 525 729 489 q 607 561 664 561 q 510 528 550 561 q 425 428 471 494 q 476 360 456 385 q 532 315 497 336 q 607 294 567 294 z "},"∫":{"ha":385,"x_min":19,"x_max":367,"o":"m 321 993 q 367 989 347 993 l 367 943 q 326 949 347 949 q 218 813 218 949 l 218 -85 q 64 -261 218 -261 q 19 -257 39 -261 l 19 -211 q 58 -217 36 -217 q 141 -184 114 -217 q 168 -81 168 -151 l 168 817 q 321 993 168 993 z "},"≈":{"ha":786,"x_min":100,"x_max":686,"o":"m 250 656 q 335 633 294 656 q 402 583 376 610 q 464 533 428 556 q 536 510 500 510 q 612 544 583 510 q 640 638 640 579 l 686 638 q 645 511 686 560 q 536 463 604 463 q 451 485 492 463 q 385 535 411 508 q 322 585 358 563 q 250 608 286 608 q 174 574 203 608 q 146 481 146 539 l 100 481 q 141 607 100 558 q 250 656 182 656 m 250 418 q 335 395 294 418 q 402 345 376 372 q 464 295 428 318 q 536 272 500 272 q 612 307 583 272 q 640 400 640 342 l 686 400 q 645 274 686 322 q 536 225 604 225 q 451 248 492 225 q 385 298 411 271 q 322 348 358 325 q 250 371 286 371 q 174 336 203 371 q 146 243 146 301 l 100 243 q 141 369 100 321 q 250 418 182 418 z "},"≠":{"ha":786,"x_min":104,"x_max":682,"o":"m 471 511 l 371 368 l 682 368 l 682 321 l 338 321 l 201 125 l 147 125 l 283 321 l 104 321 l 104 368 l 317 368 l 415 511 l 104 511 l 104 558 l 449 558 l 585 754 l 640 754 l 504 558 l 682 558 l 682 511 l 471 511 z "},"≤":{"ha":786,"x_min":104,"x_max":682,"o":"m 682 675 l 153 442 l 153 439 l 682 206 l 682 153 l 104 408 l 104 472 l 682 728 l 682 675 m 682 47 l 682 0 l 104 0 l 104 47 l 682 47 z "},"≥":{"ha":786,"x_min":104,"x_max":682,"o":"m 682 472 l 682 408 l 104 153 l 104 206 l 633 439 l 633 442 l 104 675 l 104 728 l 682 472 m 682 0 l 104 0 l 104 47 l 682 47 l 682 0 z "},"◊":{"ha":764,"x_min":56,"x_max":708,"o":"m 708 494 l 413 0 l 351 0 l 56 494 l 351 989 l 413 989 l 708 494 m 108 494 l 382 40 l 656 494 l 382 949 l 108 494 z "},"":{"ha":833,"x_min":38,"x_max":790,"o":"m 208 1079 l 618 1079 q 744 1033 699 1079 q 790 907 790 988 l 790 82 q 744 -44 790 1 q 618 -90 699 -90 l 208 -90 q 83 -44 129 -90 q 38 82 38 1 l 38 907 q 83 1033 38 988 q 208 1079 129 1079 m 618 1040 l 208 1040 q 111 1004 147 1040 q 75 907 75 968 l 75 82 q 111 -15 75 21 q 208 -51 147 -51 l 618 -51 q 715 -15 679 -51 q 751 82 751 21 l 751 907 q 715 1004 751 968 q 618 1040 679 1040 m 408 894 q 569 840 507 894 q 631 699 631 785 q 607 598 631 639 q 510 494 583 557 q 425 396 443 438 q 407 256 407 354 l 361 256 l 361 285 q 383 420 361 374 q 474 526 404 467 q 557 616 538 582 q 576 699 576 650 q 530 806 576 765 q 408 846 483 846 q 281 802 328 846 q 229 676 235 758 l 178 676 q 244 838 185 782 q 408 894 304 894 m 414 90 l 351 90 l 351 185 l 414 185 l 414 90 z "},"ﬀ":{"ha":696,"x_min":21,"x_max":675,"o":"m 635 949 q 526 813 526 949 l 526 706 l 672 706 l 672 661 l 526 661 l 526 0 l 476 0 l 476 661 l 201 661 l 201 0 l 151 0 l 151 661 l 21 661 l 21 706 l 151 706 l 151 817 q 304 993 151 993 q 350 989 331 993 l 350 943 q 310 949 331 949 q 201 813 201 949 l 201 706 l 476 706 l 476 817 q 629 993 476 993 q 675 989 656 993 l 675 943 q 635 949 656 949 z "},"ﬁ":{"ha":664,"x_min":21,"x_max":543,"o":"m 151 706 l 151 817 q 304 993 151 993 q 350 989 331 993 l 350 943 q 310 949 331 949 q 201 813 201 949 l 201 706 l 349 706 l 349 661 l 201 661 l 201 0 l 151 0 l 151 661 l 21 661 l 21 706 l 151 706 m 543 989 l 543 876 l 493 876 l 493 989 l 543 989 m 493 706 l 543 706 l 543 0 l 493 0 l 493 706 z "},"ﬂ":{"ha":664,"x_min":21,"x_max":543,"o":"m 151 706 l 151 817 q 304 993 151 993 q 350 989 331 993 l 350 943 q 310 949 331 949 q 201 813 201 949 l 201 706 l 349 706 l 349 661 l 201 661 l 201 0 l 151 0 l 151 661 l 21 661 l 21 706 l 151 706 m 543 989 l 543 0 l 493 0 l 493 989 l 543 989 z "},"ﬃ":{"ha":989,"x_min":21,"x_max":868,"o":"m 476 706 l 476 817 q 629 993 476 993 q 675 989 656 993 l 675 943 q 635 949 656 949 q 526 813 526 949 l 526 706 l 672 706 l 672 661 l 526 661 l 526 0 l 476 0 l 476 661 l 201 661 l 201 0 l 151 0 l 151 661 l 21 661 l 21 706 l 151 706 l 151 817 q 304 993 151 993 q 350 989 331 993 l 350 943 q 310 949 331 949 q 201 813 201 949 l 201 706 l 476 706 m 868 989 l 868 876 l 818 876 l 818 989 l 868 989 m 818 706 l 868 706 l 868 0 l 818 0 l 818 706 z "},"ﬄ":{"ha":989,"x_min":21,"x_max":868,"o":"m 476 706 l 476 817 q 629 993 476 993 q 675 989 656 993 l 675 943 q 635 949 656 949 q 526 813 526 949 l 526 706 l 672 706 l 672 661 l 526 661 l 526 0 l 476 0 l 476 661 l 201 661 l 201 0 l 151 0 l 151 661 l 21 661 l 21 706 l 151 706 l 151 817 q 304 993 151 993 q 350 989 331 993 l 350 943 q 310 949 331 949 q 201 813 201 949 l 201 706 l 476 706 m 868 989 l 868 0 l 818 0 l 818 989 l 868 989 z "},"﻿":{"ha":0,"x_min":0,"x_max":0,"o":""}}}
